STARTFONT 2.3
FONT -FontForge-Source Code Pro-Book-R-Normal--12-120-72-72-M-70-ISO10646-1
SIZE 12 72 72  2
FONTBOUNDINGBOX 14 20 -4 -5
COMMENT "Generated by fontforge, http://fontforge.sourceforge.net"
COMMENT "Copyright 2010, 2012 Adobe Systems Incorporated (http://www.adobe.com/), with Reserved Font Name `Source'."
STARTPROPERTIES 42
FOUNDRY "FontForge"
FAMILY_NAME "Source Code Pro"
WEIGHT_NAME "Book"
SLANT "R"
SETWIDTH_NAME "Normal"
ADD_STYLE_NAME ""
PIXEL_SIZE 12
POINT_SIZE 120
RESOLUTION_X 72
RESOLUTION_Y 72
SPACING "M"
AVERAGE_WIDTH 70
CHARSET_REGISTRY "ISO10646"
CHARSET_ENCODING "1"
FONTNAME_REGISTRY ""
CHARSET_COLLECTIONS "ASCII ISOLatin1Encoding ISO8859-2 ISO8859-9 ISO8859-4 ISO10646-1"
BITS_PER_PIXEL 2
FONT_NAME "SourceCodePro-It"
FACE_NAME "Source Code Pro Italic"
COPYRIGHT "Copyright 2010, 2012 Adobe Systems Incorporated (http://www.adobe.com/), with Reserved Font Name `Source'."
FONT_VERSION "1.050;PS 1.000;hotconv 16.6.51;makeotf.lib2.5.65220"
FONT_ASCENT 9
FONT_DESCENT 3
UNDERLINE_POSITION -1
UNDERLINE_THICKNESS 1
X_HEIGHT 5
CAP_HEIGHT 7
RAW_ASCENT 750
RAW_DESCENT 250
ITALIC_ANGLE 5056
NORM_SPACE 7
RELATIVE_WEIGHT 40
RELATIVE_SETWIDTH 50
SUPERSCRIPT_X 0
SUPERSCRIPT_Y 4
SUPERSCRIPT_SIZE 7
SUBSCRIPT_X 0
SUBSCRIPT_Y 0
SUBSCRIPT_SIZE 7
FIGURE_WIDTH 7
AVG_LOWERCASE_WIDTH 70
AVG_UPPERCASE_WIDTH 70
ENDPROPERTIES
CHARS 1269
STARTCHAR space
ENCODING 32
SWIDTH 600 0
DWIDTH 7 0
BBX 1 1 0 0
BITMAP
00
ENDCHAR
STARTCHAR exclam
ENCODING 33
SWIDTH 600 0
DWIDTH 7 0
BBX 3 8 2 0
BITMAP
0C
18
14
20
20
00
A0
A0
ENDCHAR
STARTCHAR quotedbl
ENCODING 34
SWIDTH 600 0
DWIDTH 7 0
BBX 5 4 2 4
BITMAP
A240
9340
8300
8200
ENDCHAR
STARTCHAR numbersign
ENCODING 35
SWIDTH 600 0
DWIDTH 7 0
BBX 6 8 1 0
BITMAP
0840
0480
7FE0
2140
2200
FF80
4100
8800
ENDCHAR
STARTCHAR dollar
ENCODING 36
SWIDTH 600 0
DWIDTH 7 0
BBX 5 12 1 -2
BITMAP
0200
0200
2F40
6080
6000
2D00
0740
0180
8180
7E00
1400
2000
ENDCHAR
STARTCHAR percent
ENCODING 37
SWIDTH 600 0
DWIDTH 7 0
BBX 7 8 0 0
BITMAP
7C00
8508
8924
B440
00B4
1658
6214
81E0
ENDCHAR
STARTCHAR ampersand
ENCODING 38
SWIDTH 600 0
DWIDTH 7 0
BBX 7 8 0 0
BITMAP
07C0
0D90
0880
0E04
2914
9260
91D0
7E64
ENDCHAR
STARTCHAR quotesingle
ENCODING 39
SWIDTH 600 0
DWIDTH 7 0
BBX 2 4 3 4
BITMAP
70
60
60
90
ENDCHAR
STARTCHAR parenleft
ENCODING 40
SWIDTH 600 0
DWIDTH 7 0
BBX 5 11 2 -2
BITMAP
0140
0A00
1800
2000
6000
9000
9000
9000
5000
2000
1400
ENDCHAR
STARTCHAR parenright
ENCODING 41
SWIDTH 600 0
DWIDTH 7 0
BBX 5 11 0 -2
BITMAP
0500
0200
0140
0080
0080
0180
0140
0200
0500
1800
5000
ENDCHAR
STARTCHAR asterisk
ENCODING 42
SWIDTH 600 0
DWIDTH 7 0
BBX 5 6 1 1
BITMAP
0100
0500
6A80
1E00
2A00
5200
ENDCHAR
STARTCHAR plus
ENCODING 43
SWIDTH 600 0
DWIDTH 7 0
BBX 5 7 1 0
BITMAP
0400
0800
0800
FFC0
0800
0800
0400
ENDCHAR
STARTCHAR comma
ENCODING 44
SWIDTH 600 0
DWIDTH 7 0
BBX 3 5 1 -3
BITMAP
2C
2C
08
24
90
ENDCHAR
STARTCHAR hyphen
ENCODING 45
SWIDTH 600 0
DWIDTH 7 0
BBX 5 1 1 3
BITMAP
FFC0
ENDCHAR
STARTCHAR period
ENCODING 46
SWIDTH 600 0
DWIDTH 7 0
BBX 2 2 2 0
BITMAP
A0
A0
ENDCHAR
STARTCHAR slash
ENCODING 47
SWIDTH 600 0
DWIDTH 7 0
BBX 7 10 0 -1
BITMAP
0008
0020
0060
0080
0240
0600
0800
1800
2000
9000
ENDCHAR
STARTCHAR zero
ENCODING 48
SWIDTH 600 0
DWIDTH 7 0
BBX 7 8 0 0
BITMAP
07D0
1C24
2414
2254
6324
6030
34A0
1F80
ENDCHAR
STARTCHAR one
ENCODING 49
SWIDTH 600 0
DWIDTH 7 0
BBX 6 8 0 0
BITMAP
06C0
01C0
0180
0140
0240
0300
0300
7FE0
ENDCHAR
STARTCHAR two
ENCODING 50
SWIDTH 600 0
DWIDTH 7 0
BBX 6 8 0 0
BITMAP
07D0
1870
0030
0050
0180
0600
2800
7FF0
ENDCHAR
STARTCHAR three
ENCODING 51
SWIDTH 600 0
DWIDTH 7 0
BBX 6 8 0 0
BITMAP
07E0
0430
0060
0780
00A0
0060
60A0
2F80
ENDCHAR
STARTCHAR four
ENCODING 52
SWIDTH 600 0
DWIDTH 7 0
BBX 7 8 0 0
BITMAP
0070
01B0
0660
1860
2090
BFF4
00C0
0080
ENDCHAR
STARTCHAR five
ENCODING 53
SWIDTH 600 0
DWIDTH 7 0
BBX 7 8 0 0
BITMAP
0FF4
0800
1800
2FD0
0070
0030
50A0
2F80
ENDCHAR
STARTCHAR six
ENCODING 54
SWIDTH 600 0
DWIDTH 7 0
BBX 7 8 0 0
BITMAP
06E0
1D14
2400
37D0
7470
2020
3460
1B80
ENDCHAR
STARTCHAR seven
ENCODING 55
SWIDTH 600 0
DWIDTH 7 0
BBX 6 8 1 0
BITMAP
BFF0
0090
0240
0600
0C00
1800
2400
3000
ENDCHAR
STARTCHAR eight
ENCODING 56
SWIDTH 600 0
DWIDTH 7 0
BBX 7 8 0 0
BITMAP
07E0
0C24
0824
1EB0
3590
6020
3060
1F90
ENDCHAR
STARTCHAR nine
ENCODING 57
SWIDTH 600 0
DWIDTH 7 0
BBX 7 8 0 0
BITMAP
0BD0
1830
2014
2474
1FA4
0030
51D0
2F40
ENDCHAR
STARTCHAR colon
ENCODING 58
SWIDTH 600 0
DWIDTH 7 0
BBX 3 6 2 0
BITMAP
28
34
00
00
A0
A0
ENDCHAR
STARTCHAR semicolon
ENCODING 59
SWIDTH 600 0
DWIDTH 7 0
BBX 4 9 1 -3
BITMAP
0A
0D
00
00
2C
2C
08
24
90
ENDCHAR
STARTCHAR less
ENCODING 60
SWIDTH 600 0
DWIDTH 7 0
BBX 5 7 1 0
BITMAP
0080
0740
2800
A000
2800
0640
0080
ENDCHAR
STARTCHAR equal
ENCODING 61
SWIDTH 600 0
DWIDTH 7 0
BBX 5 3 1 2
BITMAP
FFC0
0000
FFC0
ENDCHAR
STARTCHAR greater
ENCODING 62
SWIDTH 600 0
DWIDTH 7 0
BBX 5 7 1 0
BITMAP
9000
6800
0A40
0180
0A40
6800
9000
ENDCHAR
STARTCHAR question
ENCODING 63
SWIDTH 600 0
DWIDTH 7 0
BBX 5 8 2 0
BITMAP
2E00
9240
0200
1800
2000
0000
9000
D000
ENDCHAR
STARTCHAR at
ENCODING 64
SWIDTH 600 0
DWIDTH 7 0
BBX 7 10 0 -2
BITMAP
06F4
1D18
2008
61B8
9654
8524
87A0
9000
3440
1F80
ENDCHAR
STARTCHAR A
ENCODING 65
SWIDTH 600 0
DWIDTH 7 0
BBX 6 8 0 0
BITMAP
01C0
0290
0650
0850
1860
3FE0
6030
C030
ENDCHAR
STARTCHAR B
ENCODING 66
SWIDTH 600 0
DWIDTH 7 0
BBX 7 8 0 0
BITMAP
0FE0
1824
1424
2ED0
2560
3024
6070
7F90
ENDCHAR
STARTCHAR C
ENCODING 67
SWIDTH 600 0
DWIDTH 7 0
BBX 6 8 1 0
BITMAP
0BD0
3860
6000
C000
C000
C000
A040
2F40
ENDCHAR
STARTCHAR D
ENCODING 68
SWIDTH 600 0
DWIDTH 7 0
BBX 7 8 0 0
BITMAP
1FD0
1874
2418
3018
3018
6034
51A0
BF40
ENDCHAR
STARTCHAR E
ENCODING 69
SWIDTH 600 0
DWIDTH 7 0
BBX 7 8 0 0
BITMAP
0BFC
0C00
1800
1FE0
2400
2000
3000
7FE0
ENDCHAR
STARTCHAR F
ENCODING 70
SWIDTH 600 0
DWIDTH 7 0
BBX 7 8 1 0
BITMAP
2FF4
2000
3000
7FC0
6000
9000
8000
C000
ENDCHAR
STARTCHAR G
ENCODING 71
SWIDTH 600 0
DWIDTH 7 0
BBX 7 8 0 0
BITMAP
02F4
0D14
2400
3000
60F4
6024
3430
1BD0
ENDCHAR
STARTCHAR H
ENCODING 72
SWIDTH 600 0
DWIDTH 7 0
BBX 7 8 0 0
BITMAP
180C
2418
2018
3FF4
2024
6030
5060
9060
ENDCHAR
STARTCHAR I
ENCODING 73
SWIDTH 600 0
DWIDTH 7 0
BBX 7 8 0 0
BITMAP
0FF8
0180
0240
0240
0300
0200
0600
7FD0
ENDCHAR
STARTCHAR J
ENCODING 74
SWIDTH 600 0
DWIDTH 7 0
BBX 7 8 0 0
BITMAP
0BF4
0024
0030
0020
0060
0090
51C0
2E40
ENDCHAR
STARTCHAR K
ENCODING 75
SWIDTH 600 0
DWIDTH 7 0
BBX 7 8 0 0
BITMAP
0C18
1860
1980
2B40
2980
30C0
6060
6030
ENDCHAR
STARTCHAR L
ENCODING 76
SWIDTH 600 0
DWIDTH 7 0
BBX 5 8 1 0
BITMAP
1800
2400
2400
3000
2000
6000
9000
BFC0
ENDCHAR
STARTCHAR M
ENCODING 77
SWIDTH 600 0
DWIDTH 7 0
BBX 7 8 0 0
BITMAP
1C1C
2C28
2968
3594
2664
6230
9020
8060
ENDCHAR
STARTCHAR N
ENCODING 78
SWIDTH 600 0
DWIDTH 7 0
BBX 7 8 0 0
BITMAP
1C0C
1918
2618
2224
3260
61B0
50A0
90A0
ENDCHAR
STARTCHAR O
ENCODING 79
SWIDTH 600 0
DWIDTH 7 0
BBX 7 8 0 0
BITMAP
07E0
1824
3018
6018
5018
6024
70A0
1F80
ENDCHAR
STARTCHAR P
ENCODING 80
SWIDTH 600 0
DWIDTH 7 0
BBX 7 8 0 0
BITMAP
0FE4
0C18
1808
1424
2FD0
3000
3000
6000
ENDCHAR
STARTCHAR Q
ENCODING 81
SWIDTH 600 0
DWIDTH 7 0
BBX 7 10 0 -2
BITMAP
07E0
1824
3018
6018
5018
6024
70A0
1F80
0600
02F0
ENDCHAR
STARTCHAR R
ENCODING 82
SWIDTH 600 0
DWIDTH 7 0
BBX 7 8 0 0
BITMAP
0FE0
1824
2418
2474
3F90
3180
60C0
5090
ENDCHAR
STARTCHAR S
ENCODING 83
SWIDTH 600 0
DWIDTH 7 0
BBX 7 8 0 0
BITMAP
07E0
0C24
1800
0A40
01D0
0060
60A0
1F80
ENDCHAR
STARTCHAR T
ENCODING 84
SWIDTH 600 0
DWIDTH 7 0
BBX 7 8 1 0
BITMAP
BFF4
0600
0900
0900
0C00
0800
1800
2400
ENDCHAR
STARTCHAR U
ENCODING 85
SWIDTH 600 0
DWIDTH 7 0
BBX 7 8 0 0
BITMAP
180C
2408
2418
3024
2020
6030
34A0
1F80
ENDCHAR
STARTCHAR V
ENCODING 86
SWIDTH 600 0
DWIDTH 7 0
BBX 7 8 1 0
BITMAP
5024
6060
6090
6180
2240
3600
3900
2800
ENDCHAR
STARTCHAR W
ENCODING 87
SWIDTH 600 0
DWIDTH 7 0
BBX 8 8 0 0
BITMAP
3006
3009
214C
2258
25A4
68A0
64A0
70D0
ENDCHAR
STARTCHAR X
ENCODING 88
SWIDTH 600 0
DWIDTH 7 0
BBX 7 8 0 0
BITMAP
1818
0C20
0690
0380
0740
1880
2090
9060
ENDCHAR
STARTCHAR Y
ENCODING 89
SWIDTH 600 0
DWIDTH 7 0
BBX 7 8 1 0
BITMAP
9024
60A0
3180
2640
1E00
0C00
1800
2400
ENDCHAR
STARTCHAR Z
ENCODING 90
SWIDTH 600 0
DWIDTH 7 0
BBX 7 8 0 0
BITMAP
1FFC
0024
0090
0280
0600
1800
2000
BFF0
ENDCHAR
STARTCHAR bracketleft
ENCODING 91
SWIDTH 600 0
DWIDTH 7 0
BBX 6 11 1 -2
BITMAP
0BE0
0800
0800
0800
1400
1400
2000
2000
2000
5000
7F00
ENDCHAR
STARTCHAR backslash
ENCODING 92
SWIDTH 600 0
DWIDTH 7 0
BBX 3 10 2 -1
BITMAP
80
50
60
20
20
20
24
14
08
08
ENDCHAR
STARTCHAR bracketright
ENCODING 93
SWIDTH 600 0
DWIDTH 7 0
BBX 6 11 0 -2
BITMAP
0BD0
0050
0080
0080
0080
0140
0140
0200
0200
0200
BE00
ENDCHAR
STARTCHAR asciicircum
ENCODING 94
SWIDTH 600 0
DWIDTH 7 0
BBX 5 5 1 3
BITMAP
0D00
1A00
2200
2140
5080
ENDCHAR
STARTCHAR underscore
ENCODING 95
SWIDTH 600 0
DWIDTH 7 0
BBX 7 1 -1 -2
BITMAP
7FF8
ENDCHAR
STARTCHAR grave
ENCODING 96
SWIDTH 600 0
DWIDTH 7 0
BBX 2 3 3 7
BITMAP
80
60
20
ENDCHAR
STARTCHAR a
ENCODING 97
SWIDTH 600 0
DWIDTH 7 0
BBX 7 6 0 0
BITMAP
0BD8
2834
3020
6030
70A0
2E60
ENDCHAR
STARTCHAR b
ENCODING 98
SWIDTH 600 0
DWIDTH 7 0
BBX 7 9 0 0
BITMAP
0C00
0800
1800
2AE0
2924
3024
2024
74A0
6B80
ENDCHAR
STARTCHAR c
ENCODING 99
SWIDTH 600 0
DWIDTH 7 0
BBX 6 6 1 0
BITMAP
1F80
A050
C000
8000
D140
6E00
ENDCHAR
STARTCHAR d
ENCODING 100
SWIDTH 600 0
DWIDTH 7 0
BBX 7 9 0 0
BITMAP
0008
000C
0018
0BE8
2834
3020
6030
70A0
2E60
ENDCHAR
STARTCHAR e
ENCODING 101
SWIDTH 600 0
DWIDTH 7 0
BBX 7 6 0 0
BITMAP
0BE0
2424
3FF4
6000
3450
1F80
ENDCHAR
STARTCHAR f
ENCODING 102
SWIDTH 600 0
DWIDTH 7 0
BBX 7 9 1 0
BITMAP
02F4
0600
0900
BFE0
0C00
1800
1400
2400
3000
ENDCHAR
STARTCHAR g
ENCODING 103
SWIDTH 600 0
DWIDTH 7 0
BBX 7 8 0 -2
BITMAP
0BE8
2834
2020
6030
3AE0
1550
51C0
7E40
ENDCHAR
STARTCHAR h
ENCODING 104
SWIDTH 600 0
DWIDTH 7 0
BBX 7 9 0 0
BITMAP
0C00
0800
1800
26F0
2924
3024
3030
6020
5060
ENDCHAR
STARTCHAR i
ENCODING 105
SWIDTH 600 0
DWIDTH 7 0
BBX 5 8 1 0
BITMAP
0600
0000
BD00
0800
0800
1800
1800
0F40
ENDCHAR
STARTCHAR j
ENCODING 106
SWIDTH 600 0
DWIDTH 7 0
BBX 6 10 0 -2
BITMAP
0060
0000
1FD0
0080
0080
0180
0240
0200
4700
B900
ENDCHAR
STARTCHAR k
ENCODING 107
SWIDTH 600 0
DWIDTH 7 0
BBX 7 9 0 0
BITMAP
0800
0C00
1800
1824
2490
2740
3980
3090
6020
ENDCHAR
STARTCHAR l
ENCODING 108
SWIDTH 600 0
DWIDTH 7 0
BBX 5 9 1 0
BITMAP
7E00
0500
0900
0C00
0800
1800
2400
2400
1F40
ENDCHAR
STARTCHAR m
ENCODING 109
SWIDTH 600 0
DWIDTH 7 0
BBX 7 6 0 0
BITMAP
2B78
3698
6218
9324
9624
C530
ENDCHAR
STARTCHAR n
ENCODING 110
SWIDTH 600 0
DWIDTH 7 0
BBX 7 6 0 0
BITMAP
26F0
2924
3024
3030
6020
5060
ENDCHAR
STARTCHAR o
ENCODING 111
SWIDTH 600 0
DWIDTH 7 0
BBX 7 6 0 0
BITMAP
0BD0
2870
6024
6024
70A0
1F80
ENDCHAR
STARTCHAR p
ENCODING 112
SWIDTH 600 0
DWIDTH 7 0
BBX 7 8 0 -2
BITMAP
26E0
2824
3024
2024
74A0
AB80
9000
C000
ENDCHAR
STARTCHAR q
ENCODING 113
SWIDTH 600 0
DWIDTH 7 0
BBX 7 8 0 -2
BITMAP
0BD8
2834
3020
6030
70A0
2EA0
0090
0080
ENDCHAR
STARTCHAR r
ENCODING 114
SWIDTH 600 0
DWIDTH 7 0
BBX 6 6 1 0
BITMAP
22D0
3900
3000
6000
9000
9000
ENDCHAR
STARTCHAR s
ENCODING 115
SWIDTH 600 0
DWIDTH 7 0
BBX 5 6 1 0
BITMAP
2F40
6180
2800
0640
9180
7E00
ENDCHAR
STARTCHAR t
ENCODING 116
SWIDTH 600 0
DWIDTH 7 0
BBX 6 8 1 0
BITMAP
0800
0800
FFD0
2400
2000
3000
3040
2F40
ENDCHAR
STARTCHAR u
ENCODING 117
SWIDTH 600 0
DWIDTH 7 0
BBX 7 6 0 0
BITMAP
2414
2024
3030
6030
61A0
3E60
ENDCHAR
STARTCHAR v
ENCODING 118
SWIDTH 600 0
DWIDTH 7 0
BBX 6 6 1 0
BITMAP
C060
9080
5180
6200
2900
2800
ENDCHAR
STARTCHAR w
ENCODING 119
SWIDTH 600 0
DWIDTH 7 0
BBX 8 6 0 0
BITMAP
5149
5348
5654
59A0
69A0
70D0
ENDCHAR
STARTCHAR x
ENCODING 120
SWIDTH 600 0
DWIDTH 7 0
BBX 7 6 0 0
BITMAP
1824
0890
0740
0A40
2480
6090
ENDCHAR
STARTCHAR y
ENCODING 121
SWIDTH 600 0
DWIDTH 7 0
BBX 8 8 -1 -2
BITMAP
0806
0908
0624
0220
0280
0240
0600
7800
ENDCHAR
STARTCHAR z
ENCODING 122
SWIDTH 600 0
DWIDTH 7 0
BBX 7 6 0 0
BITMAP
2FF4
0060
0280
0900
2400
BFE0
ENDCHAR
STARTCHAR braceleft
ENCODING 123
SWIDTH 600 0
DWIDTH 7 0
BBX 6 11 1 -2
BITMAP
02F0
0200
0500
0900
0800
B400
1800
1400
1400
2400
1F00
ENDCHAR
STARTCHAR bar
ENCODING 124
SWIDTH 600 0
DWIDTH 7 0
BBX 1 12 3 -3
BITMAP
80
80
80
80
80
80
80
80
80
80
80
80
ENDCHAR
STARTCHAR braceright
ENCODING 125
SWIDTH 600 0
DWIDTH 7 0
BBX 6 11 0 -2
BITMAP
0F80
0080
0080
0140
0140
01E0
0240
0200
0500
0900
F800
ENDCHAR
STARTCHAR asciitilde
ENCODING 126
SWIDTH 600 0
DWIDTH 7 0
BBX 5 2 1 3
BITMAP
7880
8B80
ENDCHAR
STARTCHAR uni00A0
ENCODING 160
SWIDTH 600 0
DWIDTH 7 0
BBX 1 1 0 0
BITMAP
00
ENDCHAR
STARTCHAR exclamdown
ENCODING 161
SWIDTH 600 0
DWIDTH 7 0
BBX 3 8 2 -2
BITMAP
28
24
00
20
60
50
90
C0
ENDCHAR
STARTCHAR cent
ENCODING 162
SWIDTH 600 0
DWIDTH 7 0
BBX 5 8 1 0
BITMAP
0200
1B80
7640
9500
8400
9940
2E00
0400
ENDCHAR
STARTCHAR sterling
ENCODING 163
SWIDTH 600 0
DWIDTH 7 0
BBX 7 8 0 0
BITMAP
02E0
0A14
0800
0800
3FD0
0800
1400
BFE0
ENDCHAR
STARTCHAR currency
ENCODING 164
SWIDTH 600 0
DWIDTH 7 0
BBX 7 7 0 0
BITMAP
1004
1BE4
1870
2430
24A0
6FA0
4010
ENDCHAR
STARTCHAR yen
ENCODING 165
SWIDTH 600 0
DWIDTH 7 0
BBX 7 8 0 0
BITMAP
1808
0824
0950
0680
3FF4
0300
7FF0
0600
ENDCHAR
STARTCHAR brokenbar
ENCODING 166
SWIDTH 600 0
DWIDTH 7 0
BBX 1 12 3 -3
BITMAP
80
80
80
80
80
40
40
80
80
80
80
80
ENDCHAR
STARTCHAR section
ENCODING 167
SWIDTH 600 0
DWIDTH 7 0
BBX 5 9 1 -1
BITMAP
1F40
1440
7800
9600
5080
15C0
0740
8600
7D00
ENDCHAR
STARTCHAR dieresis
ENCODING 168
SWIDTH 600 0
DWIDTH 7 0
BBX 4 1 2 7
BITMAP
62
ENDCHAR
STARTCHAR copyright
ENCODING 169
SWIDTH 600 0
DWIDTH 7 0
BBX 7 8 0 0
BITMAP
07E0
2818
26C8
8908
8848
8B54
6060
2F80
ENDCHAR
STARTCHAR ordfeminine
ENCODING 170
SWIDTH 600 0
DWIDTH 7 0
BBX 4 5 2 4
BITMAP
2E
92
82
86
75
ENDCHAR
STARTCHAR guillemotleft
ENCODING 171
SWIDTH 600 0
DWIDTH 7 0
BBX 5 5 1 1
BITMAP
1480
6240
C600
9200
2140
ENDCHAR
STARTCHAR logicalnot
ENCODING 172
SWIDTH 600 0
DWIDTH 7 0
BBX 5 3 1 1
BITMAP
FFC0
0080
0080
ENDCHAR
STARTCHAR uni00AD
ENCODING 173
SWIDTH 600 0
DWIDTH 7 0
BBX 5 1 1 3
BITMAP
FFC0
ENDCHAR
STARTCHAR registered
ENCODING 174
SWIDTH 600 0
DWIDTH 7 0
BBX 5 5 2 4
BITMAP
2E00
9140
6C40
8200
7D00
ENDCHAR
STARTCHAR macron
ENCODING 175
SWIDTH 600 0
DWIDTH 7 0
BBX 4 1 2 7
BITMAP
7F
ENDCHAR
STARTCHAR degree
ENCODING 176
SWIDTH 600 0
DWIDTH 7 0
BBX 4 3 2 5
BITMAP
2D
52
3D
ENDCHAR
STARTCHAR plusminus
ENCODING 177
SWIDTH 600 0
DWIDTH 7 0
BBX 5 7 1 0
BITMAP
0800
0800
FFC0
0800
0800
0000
FFC0
ENDCHAR
STARTCHAR two.sups
ENCODING 178
SWIDTH 600 0
DWIDTH 7 0
BBX 4 5 2 5
BITMAP
2D
12
05
24
BD
ENDCHAR
STARTCHAR three.sups
ENCODING 179
SWIDTH 600 0
DWIDTH 7 0
BBX 4 5 2 5
BITMAP
2D
16
1C
45
7C
ENDCHAR
STARTCHAR acute
ENCODING 180
SWIDTH 600 0
DWIDTH 7 0
BBX 3 2 3 7
BITMAP
18
60
ENDCHAR
STARTCHAR uni00B5
ENCODING 181
SWIDTH 600 0
DWIDTH 7 0
BBX 7 8 0 -2
BITMAP
2414
2024
3030
6020
61A0
AE70
8000
C000
ENDCHAR
STARTCHAR paragraph
ENCODING 182
SWIDTH 600 0
DWIDTH 7 0
BBX 6 9 1 -1
BITMAP
1F50
7E90
FDC0
BDC0
7D80
0140
0240
0300
0300
ENDCHAR
STARTCHAR periodcentered
ENCODING 183
SWIDTH 600 0
DWIDTH 7 0
BBX 3 2 2 3
BITMAP
74
70
ENDCHAR
STARTCHAR cedilla
ENCODING 184
SWIDTH 600 0
DWIDTH 7 0
BBX 3 4 1 -4
BITMAP
20
34
24
A0
ENDCHAR
STARTCHAR one.sups
ENCODING 185
SWIDTH 600 0
DWIDTH 7 0
BBX 4 5 2 5
BITMAP
2C
08
08
14
FE
ENDCHAR
STARTCHAR ordmasculine
ENCODING 186
SWIDTH 600 0
DWIDTH 7 0
BBX 4 5 2 4
BITMAP
2E
63
82
86
78
ENDCHAR
STARTCHAR guillemotright
ENCODING 187
SWIDTH 600 0
DWIDTH 7 0
BBX 6 5 0 1
BITMAP
2080
1850
0C30
2490
5140
ENDCHAR
STARTCHAR onequarter
ENCODING 188
SWIDTH 600 0
DWIDTH 7 0
BBX 7 8 0 0
BITMAP
6400
1408
2024
2040
0050
1560
63F4
8020
ENDCHAR
STARTCHAR onehalf
ENCODING 189
SWIDTH 600 0
DWIDTH 7 0
BBX 7 8 0 0
BITMAP
6400
1408
2024
2040
00B0
1460
6050
82F4
ENDCHAR
STARTCHAR threequarters
ENCODING 190
SWIDTH 600 0
DWIDTH 7 0
BBX 7 8 0 0
BITMAP
3800
0808
7424
B840
0050
1560
63F4
8020
ENDCHAR
STARTCHAR questiondown
ENCODING 191
SWIDTH 600 0
DWIDTH 7 0
BBX 5 8 0 -2
BITMAP
0280
0280
0000
0200
0900
2000
6140
2E00
ENDCHAR
STARTCHAR Agrave
ENCODING 192
SWIDTH 600 0
DWIDTH 7 0
BBX 6 10 0 0
BITMAP
0140
0080
01C0
0290
0650
0850
1860
3FE0
6030
C030
ENDCHAR
STARTCHAR Aacute
ENCODING 193
SWIDTH 600 0
DWIDTH 7 0
BBX 6 10 0 0
BITMAP
0020
0090
01C0
0290
0650
0850
1860
3FE0
6030
C030
ENDCHAR
STARTCHAR Acircumflex
ENCODING 194
SWIDTH 600 0
DWIDTH 7 0
BBX 7 10 0 0
BITMAP
01A0
0214
01C0
0290
0650
0850
1860
3FE0
6030
C030
ENDCHAR
STARTCHAR Atilde
ENCODING 195
SWIDTH 600 0
DWIDTH 7 0
BBX 7 10 0 0
BITMAP
03C8
0574
01C0
0290
0650
0850
1860
3FE0
6030
C030
ENDCHAR
STARTCHAR Adieresis
ENCODING 196
SWIDTH 600 0
DWIDTH 7 0
BBX 7 10 0 0
BITMAP
0224
0000
01C0
0290
0650
0850
1860
3FE0
6030
C030
ENDCHAR
STARTCHAR Aring
ENCODING 197
SWIDTH 600 0
DWIDTH 7 0
BBX 6 11 0 0
BITMAP
00E0
0160
01D0
01C0
0290
0650
0850
1860
3FE0
6030
C030
ENDCHAR
STARTCHAR AE
ENCODING 198
SWIDTH 600 0
DWIDTH 7 0
BBX 9 8 -1 0
BITMAP
007F80
00A400
016000
023E00
096000
1FD000
249000
60BD00
ENDCHAR
STARTCHAR Ccedilla
ENCODING 199
SWIDTH 600 0
DWIDTH 7 0
BBX 6 12 1 -4
BITMAP
0BD0
3860
6000
C000
C000
C000
A040
2F40
0800
1C00
0C00
3400
ENDCHAR
STARTCHAR Egrave
ENCODING 200
SWIDTH 600 0
DWIDTH 7 0
BBX 7 10 0 0
BITMAP
0080
0050
0BFC
0C00
1800
1FE0
2400
2000
3000
7FE0
ENDCHAR
STARTCHAR Eacute
ENCODING 201
SWIDTH 600 0
DWIDTH 7 0
BBX 7 10 0 0
BITMAP
0014
0060
0BFC
0C00
1800
1FE0
2400
2000
3000
7FE0
ENDCHAR
STARTCHAR Ecircumflex
ENCODING 202
SWIDTH 600 0
DWIDTH 7 0
BBX 7 10 0 0
BITMAP
00B0
0248
0BFC
0C00
1800
1FE0
2400
2000
3000
7FE0
ENDCHAR
STARTCHAR Edieresis
ENCODING 203
SWIDTH 600 0
DWIDTH 7 0
BBX 7 10 0 0
BITMAP
0158
0000
0BFC
0C00
1800
1FE0
2400
2000
3000
7FE0
ENDCHAR
STARTCHAR Igrave
ENCODING 204
SWIDTH 600 0
DWIDTH 7 0
BBX 7 10 0 0
BITMAP
0140
0080
0FF8
0180
0240
0240
0300
0200
0600
7FD0
ENDCHAR
STARTCHAR Iacute
ENCODING 205
SWIDTH 600 0
DWIDTH 7 0
BBX 7 10 0 0
BITMAP
0020
0090
0FF8
0180
0240
0240
0300
0200
0600
7FD0
ENDCHAR
STARTCHAR Icircumflex
ENCODING 206
SWIDTH 600 0
DWIDTH 7 0
BBX 7 10 0 0
BITMAP
01A0
0214
0FF8
0180
0240
0240
0300
0200
0600
7FD0
ENDCHAR
STARTCHAR Idieresis
ENCODING 207
SWIDTH 600 0
DWIDTH 7 0
BBX 7 10 0 0
BITMAP
0224
0000
0FF8
0180
0240
0240
0300
0200
0600
7FD0
ENDCHAR
STARTCHAR Eth
ENCODING 208
SWIDTH 600 0
DWIDTH 7 0
BBX 7 8 0 0
BITMAP
0FE0
1864
2418
BF08
3018
3024
60A0
7F80
ENDCHAR
STARTCHAR Ntilde
ENCODING 209
SWIDTH 600 0
DWIDTH 7 0
BBX 7 10 0 0
BITMAP
03C8
0574
1C0C
1918
2618
2224
3260
61B0
50A0
90A0
ENDCHAR
STARTCHAR Ograve
ENCODING 210
SWIDTH 600 0
DWIDTH 7 0
BBX 7 10 0 0
BITMAP
0140
0080
07E0
1824
3018
6018
5018
6024
70A0
1F80
ENDCHAR
STARTCHAR Oacute
ENCODING 211
SWIDTH 600 0
DWIDTH 7 0
BBX 7 10 0 0
BITMAP
0020
0090
07E0
1824
3018
6018
5018
6024
70A0
1F80
ENDCHAR
STARTCHAR Ocircumflex
ENCODING 212
SWIDTH 600 0
DWIDTH 7 0
BBX 7 10 0 0
BITMAP
01A0
0214
07E0
1824
3018
6018
5018
6024
70A0
1F80
ENDCHAR
STARTCHAR Otilde
ENCODING 213
SWIDTH 600 0
DWIDTH 7 0
BBX 7 10 0 0
BITMAP
03C8
0574
07E0
1824
3018
6018
5018
6024
70A0
1F80
ENDCHAR
STARTCHAR Odieresis
ENCODING 214
SWIDTH 600 0
DWIDTH 7 0
BBX 7 10 0 0
BITMAP
0224
0000
07E0
1824
3018
6018
5018
6024
70A0
1F80
ENDCHAR
STARTCHAR multiply
ENCODING 215
SWIDTH 600 0
DWIDTH 7 0
BBX 5 5 1 1
BITMAP
5080
2600
0D00
2600
5080
ENDCHAR
STARTCHAR Oslash
ENCODING 216
SWIDTH 600 0
DWIDTH 7 0
BBX 8 8 0 0
BITMAP
07E9
1828
30A8
6198
5618
6824
74A0
AF80
ENDCHAR
STARTCHAR Ugrave
ENCODING 217
SWIDTH 600 0
DWIDTH 7 0
BBX 7 10 0 0
BITMAP
0140
0080
180C
2408
2418
3024
2020
6030
34A0
1F80
ENDCHAR
STARTCHAR Uacute
ENCODING 218
SWIDTH 600 0
DWIDTH 7 0
BBX 7 10 0 0
BITMAP
0020
0090
180C
2408
2418
3024
2020
6030
34A0
1F80
ENDCHAR
STARTCHAR Ucircumflex
ENCODING 219
SWIDTH 600 0
DWIDTH 7 0
BBX 7 10 0 0
BITMAP
01A0
0214
180C
2408
2418
3024
2020
6030
34A0
1F80
ENDCHAR
STARTCHAR Udieresis
ENCODING 220
SWIDTH 600 0
DWIDTH 7 0
BBX 7 10 0 0
BITMAP
0224
0000
180C
2408
2418
3024
2020
6030
34A0
1F80
ENDCHAR
STARTCHAR Yacute
ENCODING 221
SWIDTH 600 0
DWIDTH 7 0
BBX 7 10 1 0
BITMAP
0080
0240
9024
60A0
3180
2640
1E00
0C00
1800
2400
ENDCHAR
STARTCHAR Thorn
ENCODING 222
SWIDTH 600 0
DWIDTH 7 0
BBX 7 8 0 0
BITMAP
0C00
1FE0
1828
2418
2064
3F90
6000
6000
ENDCHAR
STARTCHAR germandbls
ENCODING 223
SWIDTH 600 0
DWIDTH 7 0
BBX 7 9 0 0
BITMAP
06E0
0D30
1820
2480
2580
3090
2024
6124
96E0
ENDCHAR
STARTCHAR agrave
ENCODING 224
SWIDTH 600 0
DWIDTH 7 0
BBX 7 10 0 0
BITMAP
0140
01C0
0050
0000
0BD8
2834
3020
6030
70A0
2E60
ENDCHAR
STARTCHAR aacute
ENCODING 225
SWIDTH 600 0
DWIDTH 7 0
BBX 7 9 0 0
BITMAP
0020
0080
0000
0BD8
2834
3020
6030
70A0
2E60
ENDCHAR
STARTCHAR acircumflex
ENCODING 226
SWIDTH 600 0
DWIDTH 7 0
BBX 7 9 0 0
BITMAP
01A0
0220
0000
0BD8
2834
3020
6030
70A0
2E60
ENDCHAR
STARTCHAR atilde
ENCODING 227
SWIDTH 600 0
DWIDTH 7 0
BBX 7 9 0 0
BITMAP
0288
0574
0000
0BD8
2834
3020
6030
70A0
2E60
ENDCHAR
STARTCHAR adieresis
ENCODING 228
SWIDTH 600 0
DWIDTH 7 0
BBX 7 8 0 0
BITMAP
0220
0000
0BD8
2834
3020
6030
70A0
2E60
ENDCHAR
STARTCHAR aring
ENCODING 229
SWIDTH 600 0
DWIDTH 7 0
BBX 7 9 0 0
BITMAP
01E0
0260
01D0
0BD8
2834
3020
6030
70A0
2E60
ENDCHAR
STARTCHAR ae
ENCODING 230
SWIDTH 600 0
DWIDTH 7 0
BBX 8 6 -1 0
BITMAP
0B9E
0492
06EB
2995
61C0
3D78
ENDCHAR
STARTCHAR ccedilla
ENCODING 231
SWIDTH 600 0
DWIDTH 7 0
BBX 6 10 1 -4
BITMAP
1F80
A050
C000
8000
D140
6E00
1400
2800
1800
6400
ENDCHAR
STARTCHAR egrave
ENCODING 232
SWIDTH 600 0
DWIDTH 7 0
BBX 7 10 0 0
BITMAP
0240
0180
0080
0000
0BE0
2424
3FF4
6000
3450
1F80
ENDCHAR
STARTCHAR eacute
ENCODING 233
SWIDTH 600 0
DWIDTH 7 0
BBX 7 9 0 0
BITMAP
0060
0080
0000
0BE0
2424
3FF4
6000
3450
1F80
ENDCHAR
STARTCHAR ecircumflex
ENCODING 234
SWIDTH 600 0
DWIDTH 7 0
BBX 7 9 0 0
BITMAP
01D0
0620
0000
0BE0
2424
3FF4
6000
3450
1F80
ENDCHAR
STARTCHAR edieresis
ENCODING 235
SWIDTH 600 0
DWIDTH 7 0
BBX 7 8 0 0
BITMAP
0220
0000
0BE0
2424
3FF4
6000
3450
1F80
ENDCHAR
STARTCHAR igrave
ENCODING 236
SWIDTH 600 0
DWIDTH 7 0
BBX 5 10 1 0
BITMAP
0800
0900
0200
0000
BD00
0800
0800
1800
1800
0F40
ENDCHAR
STARTCHAR iacute
ENCODING 237
SWIDTH 600 0
DWIDTH 7 0
BBX 5 9 1 0
BITMAP
0180
0500
0000
BD00
0800
0800
1800
1800
0F40
ENDCHAR
STARTCHAR icircumflex
ENCODING 238
SWIDTH 600 0
DWIDTH 7 0
BBX 5 9 1 0
BITMAP
0B40
1480
0000
BD00
0800
0800
1800
1800
0F40
ENDCHAR
STARTCHAR idieresis
ENCODING 239
SWIDTH 600 0
DWIDTH 7 0
BBX 5 8 1 0
BITMAP
1480
0000
BD00
0800
0800
1800
1800
0F40
ENDCHAR
STARTCHAR eth
ENCODING 240
SWIDTH 600 0
DWIDTH 7 0
BBX 7 9 0 0
BITMAP
0258
01E0
0660
0BA4
3474
6024
5024
60A0
2F80
ENDCHAR
STARTCHAR ntilde
ENCODING 241
SWIDTH 600 0
DWIDTH 7 0
BBX 7 9 0 0
BITMAP
0288
0574
0000
26F0
2924
3024
3030
6020
5060
ENDCHAR
STARTCHAR ograve
ENCODING 242
SWIDTH 600 0
DWIDTH 7 0
BBX 7 10 0 0
BITMAP
0200
0180
0080
0000
0BD0
2870
6024
6024
70A0
1F80
ENDCHAR
STARTCHAR oacute
ENCODING 243
SWIDTH 600 0
DWIDTH 7 0
BBX 7 9 0 0
BITMAP
0060
0180
0000
0BD0
2870
6024
6024
70A0
1F80
ENDCHAR
STARTCHAR ocircumflex
ENCODING 244
SWIDTH 600 0
DWIDTH 7 0
BBX 7 9 0 0
BITMAP
01D0
0520
0000
0BD0
2870
6024
6024
70A0
1F80
ENDCHAR
STARTCHAR otilde
ENCODING 245
SWIDTH 600 0
DWIDTH 7 0
BBX 7 9 0 0
BITMAP
0694
0870
0000
0BD0
2870
6024
6024
70A0
1F80
ENDCHAR
STARTCHAR odieresis
ENCODING 246
SWIDTH 600 0
DWIDTH 7 0
BBX 7 8 0 0
BITMAP
0620
0000
0BD0
2870
6024
6024
70A0
1F80
ENDCHAR
STARTCHAR divide
ENCODING 247
SWIDTH 600 0
DWIDTH 7 0
BBX 5 5 1 1
BITMAP
0800
0000
FFC0
0000
0800
ENDCHAR
STARTCHAR oslash
ENCODING 248
SWIDTH 600 0
DWIDTH 7 0
BBX 7 6 0 0
BITMAP
0BE8
28B4
62A4
6924
74A0
AF80
ENDCHAR
STARTCHAR ugrave
ENCODING 249
SWIDTH 600 0
DWIDTH 7 0
BBX 7 10 0 0
BITMAP
0200
0180
0080
0000
2414
2024
3030
6030
61A0
3E60
ENDCHAR
STARTCHAR uacute
ENCODING 250
SWIDTH 600 0
DWIDTH 7 0
BBX 7 9 0 0
BITMAP
0060
0180
0000
2414
2024
3030
6030
61A0
3E60
ENDCHAR
STARTCHAR ucircumflex
ENCODING 251
SWIDTH 600 0
DWIDTH 7 0
BBX 7 9 0 0
BITMAP
01D0
0520
0000
2414
2024
3030
6030
61A0
3E60
ENDCHAR
STARTCHAR udieresis
ENCODING 252
SWIDTH 600 0
DWIDTH 7 0
BBX 7 8 0 0
BITMAP
0620
0000
2414
2024
3030
6030
61A0
3E60
ENDCHAR
STARTCHAR yacute
ENCODING 253
SWIDTH 600 0
DWIDTH 7 0
BBX 8 11 -1 -2
BITMAP
0018
0060
0000
0806
0908
0624
0220
0280
0240
0600
7800
ENDCHAR
STARTCHAR thorn
ENCODING 254
SWIDTH 600 0
DWIDTH 7 0
BBX 7 11 0 -2
BITMAP
0C00
0800
1800
2AE0
2924
3024
2024
74A0
AB80
9000
C000
ENDCHAR
STARTCHAR ydieresis
ENCODING 255
SWIDTH 600 0
DWIDTH 7 0
BBX 8 10 -1 -2
BITMAP
0188
0000
0806
0908
0624
0220
0280
0240
0600
7800
ENDCHAR
STARTCHAR Amacron
ENCODING 256
SWIDTH 600 0
DWIDTH 7 0
BBX 7 10 0 0
BITMAP
03F4
0000
01C0
0290
0650
0850
1860
3FE0
6030
C030
ENDCHAR
STARTCHAR amacron
ENCODING 257
SWIDTH 600 0
DWIDTH 7 0
BBX 7 8 0 0
BITMAP
03F0
0000
0BD8
2834
3020
6030
70A0
2E60
ENDCHAR
STARTCHAR Abreve
ENCODING 258
SWIDTH 600 0
DWIDTH 7 0
BBX 7 10 0 0
BITMAP
0214
02E0
01C0
0290
0650
0850
1860
3FE0
6030
C030
ENDCHAR
STARTCHAR abreve
ENCODING 259
SWIDTH 600 0
DWIDTH 7 0
BBX 7 9 0 0
BITMAP
0214
02E0
0000
0BD8
2834
3020
6030
70A0
2E60
ENDCHAR
STARTCHAR Aogonek
ENCODING 260
SWIDTH 600 0
DWIDTH 7 0
BBX 6 11 0 -3
BITMAP
01C0
0290
0650
0850
1860
3FE0
6030
C030
0050
0080
00B0
ENDCHAR
STARTCHAR aogonek
ENCODING 261
SWIDTH 600 0
DWIDTH 7 0
BBX 7 9 0 -3
BITMAP
0BD8
2834
3020
6030
70A0
2E60
0040
0200
01D0
ENDCHAR
STARTCHAR Cacute
ENCODING 262
SWIDTH 600 0
DWIDTH 7 0
BBX 6 10 1 0
BITMAP
0060
0180
0BD0
3860
6000
C000
C000
C000
A040
2F40
ENDCHAR
STARTCHAR cacute
ENCODING 263
SWIDTH 600 0
DWIDTH 7 0
BBX 6 9 1 0
BITMAP
0080
0240
0000
1F80
A050
C000
8000
D140
6E00
ENDCHAR
STARTCHAR Ccircumflex
ENCODING 264
SWIDTH 600 0
DWIDTH 7 0
BBX 6 10 1 0
BITMAP
02C0
0520
0BD0
3860
6000
C000
C000
C000
A040
2F40
ENDCHAR
STARTCHAR ccircumflex
ENCODING 265
SWIDTH 600 0
DWIDTH 7 0
BBX 6 9 1 0
BITMAP
0680
0850
0000
1F80
A050
C000
8000
D140
6E00
ENDCHAR
STARTCHAR Cdotaccent
ENCODING 266
SWIDTH 600 0
DWIDTH 7 0
BBX 6 10 1 0
BITMAP
0180
0000
0BD0
3860
6000
C000
C000
C000
A040
2F40
ENDCHAR
STARTCHAR cdotaccent
ENCODING 267
SWIDTH 600 0
DWIDTH 7 0
BBX 6 8 1 0
BITMAP
0240
0000
1F80
A050
C000
8000
D140
6E00
ENDCHAR
STARTCHAR Ccaron
ENCODING 268
SWIDTH 600 0
DWIDTH 7 0
BBX 6 10 1 0
BITMAP
0520
0280
0BD0
3860
6000
C000
C000
C000
A040
2F40
ENDCHAR
STARTCHAR ccaron
ENCODING 269
SWIDTH 600 0
DWIDTH 7 0
BBX 6 9 1 0
BITMAP
0850
0780
0000
1F80
A050
C000
8000
D140
6E00
ENDCHAR
STARTCHAR Dcaron
ENCODING 270
SWIDTH 600 0
DWIDTH 7 0
BBX 7 10 0 0
BITMAP
0214
01E0
1FD0
1874
2418
3018
3018
6034
51A0
BF40
ENDCHAR
STARTCHAR dcaron
ENCODING 271
SWIDTH 600 0
DWIDTH 7 0
BBX 9 10 0 0
BITMAP
000180
001940
001A00
002400
0BA000
247000
602000
506000
61D000
2E9000
ENDCHAR
STARTCHAR Dcroat
ENCODING 272
SWIDTH 600 0
DWIDTH 7 0
BBX 7 8 0 0
BITMAP
0FE0
1864
2418
BF08
3018
3024
60A0
7F80
ENDCHAR
STARTCHAR dcroat
ENCODING 273
SWIDTH 600 0
DWIDTH 7 0
BBX 8 9 0 0
BITMAP
000C
00AE
0018
0BA8
2874
6020
6030
60A0
2E60
ENDCHAR
STARTCHAR Emacron
ENCODING 274
SWIDTH 600 0
DWIDTH 7 0
BBX 7 10 0 0
BITMAP
01F8
0000
0BFC
0C00
1800
1FE0
2400
2000
3000
7FE0
ENDCHAR
STARTCHAR emacron
ENCODING 275
SWIDTH 600 0
DWIDTH 7 0
BBX 7 8 0 0
BITMAP
03F0
0000
0BE0
2424
3FF4
6000
3450
1F80
ENDCHAR
STARTCHAR Ebreve
ENCODING 276
SWIDTH 600 0
DWIDTH 7 0
BBX 7 10 0 0
BITMAP
0148
01F4
0BFC
0C00
1800
1FE0
2400
2000
3000
7FE0
ENDCHAR
STARTCHAR ebreve
ENCODING 277
SWIDTH 600 0
DWIDTH 7 0
BBX 7 9 0 0
BITMAP
0214
02E0
0000
0BE0
2424
3FF4
6000
3450
1F80
ENDCHAR
STARTCHAR Edotaccent
ENCODING 278
SWIDTH 600 0
DWIDTH 7 0
BBX 7 10 0 0
BITMAP
0060
0000
0BFC
0C00
1800
1FE0
2400
2000
3000
7FE0
ENDCHAR
STARTCHAR edotaccent
ENCODING 279
SWIDTH 600 0
DWIDTH 7 0
BBX 7 8 0 0
BITMAP
00C0
0000
0BE0
2424
3FF4
6000
3450
1F80
ENDCHAR
STARTCHAR Eogonek
ENCODING 280
SWIDTH 600 0
DWIDTH 7 0
BBX 7 11 0 -3
BITMAP
0BFC
0C00
1800
1FE0
2400
2000
3000
7FE0
0040
0240
01D0
ENDCHAR
STARTCHAR eogonek
ENCODING 281
SWIDTH 600 0
DWIDTH 7 0
BBX 7 9 0 -3
BITMAP
0BE0
2424
3FF4
6000
3450
1F80
0100
0200
02C0
ENDCHAR
STARTCHAR Ecaron
ENCODING 282
SWIDTH 600 0
DWIDTH 7 0
BBX 7 10 0 0
BITMAP
0148
00A0
0BFC
0C00
1800
1FE0
2400
2000
3000
7FE0
ENDCHAR
STARTCHAR ecaron
ENCODING 283
SWIDTH 600 0
DWIDTH 7 0
BBX 7 9 0 0
BITMAP
0214
01D0
0000
0BE0
2424
3FF4
6000
3450
1F80
ENDCHAR
STARTCHAR Gcircumflex
ENCODING 284
SWIDTH 600 0
DWIDTH 7 0
BBX 7 10 0 0
BITMAP
00A0
0214
02F4
0D14
2400
3000
60F4
6024
3430
1BD0
ENDCHAR
STARTCHAR gcircumflex
ENCODING 285
SWIDTH 600 0
DWIDTH 7 0
BBX 7 11 0 -2
BITMAP
01A0
0220
0000
0BE8
2834
2020
6030
3AE0
1550
51C0
7E40
ENDCHAR
STARTCHAR Gbreve
ENCODING 286
SWIDTH 600 0
DWIDTH 7 0
BBX 7 10 0 0
BITMAP
0218
01E0
02F4
0D14
2400
3000
60F4
6024
3430
1BD0
ENDCHAR
STARTCHAR gbreve
ENCODING 287
SWIDTH 600 0
DWIDTH 7 0
BBX 7 11 0 -2
BITMAP
0214
02E0
0000
0BE8
2834
2020
6030
3AE0
1550
51C0
7E40
ENDCHAR
STARTCHAR Gdotaccent
ENCODING 288
SWIDTH 600 0
DWIDTH 7 0
BBX 7 10 0 0
BITMAP
0050
0000
02F4
0D14
2400
3000
60F4
6024
3430
1BD0
ENDCHAR
STARTCHAR gdotaccent
ENCODING 289
SWIDTH 600 0
DWIDTH 7 0
BBX 7 10 0 -2
BITMAP
00D0
0000
0BE8
2834
2020
6030
3AE0
1550
51C0
7E40
ENDCHAR
STARTCHAR uni0122
ENCODING 290
SWIDTH 600 0
DWIDTH 7 0
BBX 7 11 0 -3
BITMAP
02F4
0D14
2400
3000
60F4
6024
3430
1BD0
0300
0200
0E00
ENDCHAR
STARTCHAR uni0123
ENCODING 291
SWIDTH 600 0
DWIDTH 7 0
BBX 7 11 0 -2
BITMAP
0060
0180
0040
0BE8
2834
2020
6030
3AE0
1550
51C0
7E40
ENDCHAR
STARTCHAR Hcircumflex
ENCODING 292
SWIDTH 600 0
DWIDTH 7 0
BBX 7 10 0 0
BITMAP
01A0
0214
180C
2418
2018
3FF4
2024
6030
5060
9060
ENDCHAR
STARTCHAR hcircumflex
ENCODING 293
SWIDTH 600 0
DWIDTH 7 0
BBX 7 11 0 0
BITMAP
0A00
2140
0C00
0800
1800
26F0
2924
3024
3030
6020
5060
ENDCHAR
STARTCHAR Hbar
ENCODING 294
SWIDTH 600 0
DWIDTH 7 0
BBX 8 8 0 0
BITMAP
180C
7FFE
2418
3FF4
2020
6030
5060
9060
ENDCHAR
STARTCHAR hbar
ENCODING 295
SWIDTH 600 0
DWIDTH 7 0
BBX 7 9 0 0
BITMAP
0C00
3FD0
1800
16E0
2924
3024
3030
6020
5060
ENDCHAR
STARTCHAR Itilde
ENCODING 296
SWIDTH 600 0
DWIDTH 7 0
BBX 7 10 0 0
BITMAP
03C8
0574
0FF8
0180
0240
0240
0300
0200
0600
7FD0
ENDCHAR
STARTCHAR itilde
ENCODING 297
SWIDTH 600 0
DWIDTH 7 0
BBX 6 9 1 0
BITMAP
1950
2280
0000
BD00
0800
0800
1800
1800
0F40
ENDCHAR
STARTCHAR Imacron
ENCODING 298
SWIDTH 600 0
DWIDTH 7 0
BBX 7 10 0 0
BITMAP
03F4
0000
0FF8
0180
0240
0240
0300
0200
0600
7FD0
ENDCHAR
STARTCHAR imacron
ENCODING 299
SWIDTH 600 0
DWIDTH 7 0
BBX 5 8 1 0
BITMAP
1F80
0000
BD00
0800
0800
1800
1800
0F40
ENDCHAR
STARTCHAR Ibreve
ENCODING 300
SWIDTH 600 0
DWIDTH 7 0
BBX 7 10 0 0
BITMAP
0214
02E0
0FF8
0180
0240
0240
0300
0200
0600
7FD0
ENDCHAR
STARTCHAR ibreve
ENCODING 301
SWIDTH 600 0
DWIDTH 7 0
BBX 5 9 1 0
BITMAP
1480
0F40
0000
BD00
0800
0800
1800
1800
0F40
ENDCHAR
STARTCHAR Iogonek
ENCODING 302
SWIDTH 600 0
DWIDTH 7 0
BBX 7 11 0 -3
BITMAP
0FF8
0180
0240
0240
0300
0200
0600
7FD0
0800
1400
1D00
ENDCHAR
STARTCHAR iogonek
ENCODING 303
SWIDTH 600 0
DWIDTH 7 0
BBX 5 11 1 -3
BITMAP
0600
0000
BD00
0800
0800
1800
1800
0F40
0500
0800
0B00
ENDCHAR
STARTCHAR Idotaccent
ENCODING 304
SWIDTH 600 0
DWIDTH 7 0
BBX 7 10 0 0
BITMAP
0090
0000
0FF8
0180
0240
0240
0300
0200
0600
7FD0
ENDCHAR
STARTCHAR dotlessi
ENCODING 305
SWIDTH 600 0
DWIDTH 7 0
BBX 5 6 1 0
BITMAP
BD00
0800
0800
1800
1800
0F40
ENDCHAR
STARTCHAR IJ
ENCODING 306
SWIDTH 600 0
DWIDTH 7 0
BBX 7 10 0 -2
BITMAP
0C18
1814
1824
2430
2030
3060
6060
6090
00C0
0780
ENDCHAR
STARTCHAR ij
ENCODING 307
SWIDTH 600 0
DWIDTH 7 0
BBX 6 10 1 -2
BITMAP
2490
0000
20C0
6180
9140
9240
C300
8300
0600
2C00
ENDCHAR
STARTCHAR Jcircumflex
ENCODING 308
SWIDTH 600 0
DWIDTH 7 0
BBX 7 10 0 0
BITMAP
01A0
0214
0BF4
0024
0030
0020
0060
0090
51C0
2E40
ENDCHAR
STARTCHAR jcircumflex
ENCODING 309
SWIDTH 600 0
DWIDTH 7 0
BBX 7 11 0 -2
BITMAP
00A0
0254
0000
1FD0
0080
0080
0180
0240
0200
4700
B900
ENDCHAR
STARTCHAR uni0136
ENCODING 310
SWIDTH 600 0
DWIDTH 7 0
BBX 7 11 0 -3
BITMAP
0C18
1860
1980
2B40
2980
30C0
6060
6030
0600
0200
0D00
ENDCHAR
STARTCHAR uni0137
ENCODING 311
SWIDTH 600 0
DWIDTH 7 0
BBX 7 12 0 -3
BITMAP
0800
0C00
1800
1824
2490
2740
3980
3090
6020
0600
0300
1D00
ENDCHAR
STARTCHAR kgreenlandic
ENCODING 312
SWIDTH 600 0
DWIDTH 7 0
BBX 7 6 0 0
BITMAP
1824
2490
2740
3980
3090
6020
ENDCHAR
STARTCHAR Lacute
ENCODING 313
SWIDTH 600 0
DWIDTH 7 0
BBX 5 10 1 0
BITMAP
0200
0900
1800
2400
2400
3000
2000
6000
9000
BFC0
ENDCHAR
STARTCHAR lacute
ENCODING 314
SWIDTH 600 0
DWIDTH 7 0
BBX 5 11 1 0
BITMAP
0180
0200
7E00
0500
0900
0C00
0800
1800
2400
2400
1F40
ENDCHAR
STARTCHAR uni013B
ENCODING 315
SWIDTH 600 0
DWIDTH 7 0
BBX 5 11 1 -3
BITMAP
1800
2400
2400
3000
2000
6000
9000
BFC0
0C00
0900
2800
ENDCHAR
STARTCHAR uni013C
ENCODING 316
SWIDTH 600 0
DWIDTH 7 0
BBX 5 12 1 -3
BITMAP
7E00
0500
0900
0C00
0800
1800
2400
2400
1F40
0900
0500
2800
ENDCHAR
STARTCHAR Lcaron
ENCODING 317
SWIDTH 600 0
DWIDTH 7 0
BBX 6 10 1 0
BITMAP
0050
0080
1880
2400
2400
3000
2000
6000
9000
BFC0
ENDCHAR
STARTCHAR lcaron
ENCODING 318
SWIDTH 600 0
DWIDTH 7 0
BBX 6 10 1 0
BITMAP
0020
7E50
0550
0900
0C00
0800
1800
2400
2400
1F40
ENDCHAR
STARTCHAR Ldot
ENCODING 319
SWIDTH 600 0
DWIDTH 7 0
BBX 6 8 1 0
BITMAP
1800
2400
2400
3000
2090
6000
9000
BFC0
ENDCHAR
STARTCHAR ldot
ENCODING 320
SWIDTH 600 0
DWIDTH 7 0
BBX 7 9 1 0
BITMAP
BC00
0C00
0800
1800
2400
2034
3000
3000
2E00
ENDCHAR
STARTCHAR Lslash
ENCODING 321
SWIDTH 600 0
DWIDTH 7 0
BBX 6 8 0 0
BITMAP
0600
0900
0910
0E90
2C00
6800
2400
2FF0
ENDCHAR
STARTCHAR lslash
ENCODING 322
SWIDTH 600 0
DWIDTH 7 0
BBX 5 9 1 0
BITMAP
7E00
0500
0940
0E40
6800
5800
2400
2400
1F40
ENDCHAR
STARTCHAR Nacute
ENCODING 323
SWIDTH 600 0
DWIDTH 7 0
BBX 7 10 0 0
BITMAP
0020
0090
1C0C
1918
2618
2224
3260
61B0
50A0
90A0
ENDCHAR
STARTCHAR nacute
ENCODING 324
SWIDTH 600 0
DWIDTH 7 0
BBX 7 9 0 0
BITMAP
0020
0080
0000
26F0
2924
3024
3030
6020
5060
ENDCHAR
STARTCHAR uni0145
ENCODING 325
SWIDTH 600 0
DWIDTH 7 0
BBX 7 11 0 -3
BITMAP
1C0C
1918
2618
2224
3260
61B0
50A0
90A0
0900
0600
2800
ENDCHAR
STARTCHAR uni0146
ENCODING 326
SWIDTH 600 0
DWIDTH 7 0
BBX 7 9 0 -3
BITMAP
26F0
2924
3024
3030
6020
5060
0900
0600
1800
ENDCHAR
STARTCHAR Ncaron
ENCODING 327
SWIDTH 600 0
DWIDTH 7 0
BBX 7 10 0 0
BITMAP
0214
01E0
1C0C
1918
2618
2224
3260
61B0
50A0
90A0
ENDCHAR
STARTCHAR ncaron
ENCODING 328
SWIDTH 600 0
DWIDTH 7 0
BBX 7 9 0 0
BITMAP
0214
01D0
0000
26F0
2924
3024
3030
6020
5060
ENDCHAR
STARTCHAR napostrophe
ENCODING 329
SWIDTH 600 0
DWIDTH 7 0
BBX 8 8 0 0
BITMAP
3400
7800
2ABC
7749
8908
080C
0C08
1818
ENDCHAR
STARTCHAR Eng
ENCODING 330
SWIDTH 600 0
DWIDTH 7 0
BBX 7 8 0 0
BITMAP
1AE0
1D28
2418
3018
3014
6024
5060
9380
ENDCHAR
STARTCHAR eng
ENCODING 331
SWIDTH 600 0
DWIDTH 7 0
BBX 7 8 0 -2
BITMAP
26F0
2924
3024
3030
6020
5060
0090
0380
ENDCHAR
STARTCHAR Omacron
ENCODING 332
SWIDTH 600 0
DWIDTH 7 0
BBX 7 10 0 0
BITMAP
03F4
0000
07E0
1824
3018
6018
5018
6024
70A0
1F80
ENDCHAR
STARTCHAR omacron
ENCODING 333
SWIDTH 600 0
DWIDTH 7 0
BBX 7 8 0 0
BITMAP
07F0
0000
0BD0
2870
6024
6024
70A0
1F80
ENDCHAR
STARTCHAR Obreve
ENCODING 334
SWIDTH 600 0
DWIDTH 7 0
BBX 7 10 0 0
BITMAP
0214
02E0
07E0
1824
3018
6018
5018
6024
70A0
1F80
ENDCHAR
STARTCHAR obreve
ENCODING 335
SWIDTH 600 0
DWIDTH 7 0
BBX 7 9 0 0
BITMAP
0624
02E0
0000
0BD0
2870
6024
6024
70A0
1F80
ENDCHAR
STARTCHAR Ohungarumlaut
ENCODING 336
SWIDTH 600 0
DWIDTH 7 0
BBX 7 10 0 0
BITMAP
0088
0154
07E0
1824
3018
6018
5018
6024
70A0
1F80
ENDCHAR
STARTCHAR ohungarumlaut
ENCODING 337
SWIDTH 600 0
DWIDTH 7 0
BBX 7 9 0 0
BITMAP
0088
0160
0000
0BD0
2870
6024
6024
70A0
1F80
ENDCHAR
STARTCHAR OE
ENCODING 338
SWIDTH 600 0
DWIDTH 7 0
BBX 8 8 0 0
BITMAP
07FE
2890
7080
60F8
9180
9140
6200
2FF4
ENDCHAR
STARTCHAR oe
ENCODING 339
SWIDTH 600 0
DWIDTH 7 0
BBX 7 6 0 0
BITMAP
2E78
A288
C2FC
8200
C700
B9F4
ENDCHAR
STARTCHAR Racute
ENCODING 340
SWIDTH 600 0
DWIDTH 7 0
BBX 7 10 0 0
BITMAP
0020
0090
0FE0
1824
2418
2474
3F90
3180
60C0
5090
ENDCHAR
STARTCHAR racute
ENCODING 341
SWIDTH 600 0
DWIDTH 7 0
BBX 6 9 1 0
BITMAP
0090
0240
0000
22D0
3900
3000
6000
9000
9000
ENDCHAR
STARTCHAR uni0156
ENCODING 342
SWIDTH 600 0
DWIDTH 7 0
BBX 7 11 0 -3
BITMAP
0FE0
1824
2418
2474
3F90
3180
60C0
5090
0900
0600
1900
ENDCHAR
STARTCHAR uni0157
ENCODING 343
SWIDTH 600 0
DWIDTH 7 0
BBX 7 9 0 -3
BITMAP
08B4
0E40
0C00
1800
2400
2400
3000
2400
A000
ENDCHAR
STARTCHAR Rcaron
ENCODING 344
SWIDTH 600 0
DWIDTH 7 0
BBX 7 10 0 0
BITMAP
0214
01E0
0FE0
1824
2418
2474
3F90
3180
60C0
5090
ENDCHAR
STARTCHAR rcaron
ENCODING 345
SWIDTH 600 0
DWIDTH 7 0
BBX 6 9 1 0
BITMAP
0860
0380
0000
22D0
3900
3000
6000
9000
9000
ENDCHAR
STARTCHAR Sacute
ENCODING 346
SWIDTH 600 0
DWIDTH 7 0
BBX 7 10 0 0
BITMAP
0020
0090
07E0
0C24
1800
0A40
01D0
0060
60A0
1F80
ENDCHAR
STARTCHAR sacute
ENCODING 347
SWIDTH 600 0
DWIDTH 7 0
BBX 5 9 1 0
BITMAP
0180
0600
0000
2F40
6180
2800
0640
9180
7E00
ENDCHAR
STARTCHAR Scircumflex
ENCODING 348
SWIDTH 600 0
DWIDTH 7 0
BBX 7 10 0 0
BITMAP
01D0
0620
07E0
0C24
1800
0A40
01D0
0060
60A0
1F80
ENDCHAR
STARTCHAR scircumflex
ENCODING 349
SWIDTH 600 0
DWIDTH 7 0
BBX 5 9 1 0
BITMAP
0740
1480
0000
2F40
6180
2800
0640
9180
7E00
ENDCHAR
STARTCHAR uni015E
ENCODING 350
SWIDTH 600 0
DWIDTH 7 0
BBX 7 12 0 -4
BITMAP
07E0
0C24
1800
0A40
01D0
0060
60A0
1F80
0500
0900
0600
1800
ENDCHAR
STARTCHAR uni015F
ENCODING 351
SWIDTH 600 0
DWIDTH 7 0
BBX 5 10 1 -4
BITMAP
2F40
6180
2800
0640
9180
7E00
1400
2400
1800
6000
ENDCHAR
STARTCHAR Scaron
ENCODING 352
SWIDTH 600 0
DWIDTH 7 0
BBX 7 10 0 0
BITMAP
0214
01D0
07E0
0C24
1800
0A40
01D0
0060
60A0
1F80
ENDCHAR
STARTCHAR scaron
ENCODING 353
SWIDTH 600 0
DWIDTH 7 0
BBX 6 9 1 0
BITMAP
0890
0B40
0000
2F40
6180
2800
0640
9180
7E00
ENDCHAR
STARTCHAR uni0162
ENCODING 354
SWIDTH 600 0
DWIDTH 7 0
BBX 7 12 1 -4
BITMAP
BFF4
0600
0900
0900
0C00
0800
1800
2400
2000
3400
2400
A000
ENDCHAR
STARTCHAR uni0163
ENCODING 355
SWIDTH 600 0
DWIDTH 7 0
BBX 6 12 1 -4
BITMAP
0800
0800
FFD0
2400
2000
3000
3040
2F40
0800
0C00
0800
3800
ENDCHAR
STARTCHAR Tcaron
ENCODING 356
SWIDTH 600 0
DWIDTH 7 0
BBX 7 10 1 0
BITMAP
0850
0780
BFF4
0600
0900
0900
0C00
0800
1800
2400
ENDCHAR
STARTCHAR tcaron
ENCODING 357
SWIDTH 600 0
DWIDTH 7 0
BBX 6 10 1 0
BITMAP
0050
0080
0880
0800
FFD0
2400
2000
3000
3040
2F40
ENDCHAR
STARTCHAR Tbar
ENCODING 358
SWIDTH 600 0
DWIDTH 7 0
BBX 7 8 1 0
BITMAP
BFF4
0600
0900
7F80
0C00
0800
1800
2400
ENDCHAR
STARTCHAR tbar
ENCODING 359
SWIDTH 600 0
DWIDTH 7 0
BBX 7 8 0 0
BITMAP
0200
0200
3FF4
0900
7FE0
0C00
0C10
0BD0
ENDCHAR
STARTCHAR Utilde
ENCODING 360
SWIDTH 600 0
DWIDTH 7 0
BBX 7 10 0 0
BITMAP
03C8
0574
180C
2408
2418
3024
2020
6030
34A0
1F80
ENDCHAR
STARTCHAR utilde
ENCODING 361
SWIDTH 600 0
DWIDTH 7 0
BBX 7 9 0 0
BITMAP
0694
08B0
0000
2414
2024
3030
6030
61A0
3E60
ENDCHAR
STARTCHAR Umacron
ENCODING 362
SWIDTH 600 0
DWIDTH 7 0
BBX 7 10 0 0
BITMAP
03F4
0000
180C
2408
2418
3024
2020
6030
34A0
1F80
ENDCHAR
STARTCHAR umacron
ENCODING 363
SWIDTH 600 0
DWIDTH 7 0
BBX 7 8 0 0
BITMAP
07F0
0000
2414
2024
3030
6030
61A0
3E60
ENDCHAR
STARTCHAR Ubreve
ENCODING 364
SWIDTH 600 0
DWIDTH 7 0
BBX 7 10 0 0
BITMAP
0214
02E0
180C
2408
2418
3024
2020
6030
34A0
1F80
ENDCHAR
STARTCHAR ubreve
ENCODING 365
SWIDTH 600 0
DWIDTH 7 0
BBX 7 9 0 0
BITMAP
0624
02E0
0000
2414
2024
3030
6030
61A0
3E60
ENDCHAR
STARTCHAR Uring
ENCODING 366
SWIDTH 600 0
DWIDTH 7 0
BBX 7 11 0 0
BITMAP
00E0
0160
01D0
180C
2408
2418
3024
2020
6030
34A0
1F80
ENDCHAR
STARTCHAR uring
ENCODING 367
SWIDTH 600 0
DWIDTH 7 0
BBX 7 9 0 0
BITMAP
01D0
0260
02D0
2414
2024
3030
6030
61A0
3E60
ENDCHAR
STARTCHAR Uhungarumlaut
ENCODING 368
SWIDTH 600 0
DWIDTH 7 0
BBX 7 10 0 0
BITMAP
0088
0154
180C
2408
2418
3024
2020
6030
34A0
1F80
ENDCHAR
STARTCHAR uhungarumlaut
ENCODING 369
SWIDTH 600 0
DWIDTH 7 0
BBX 7 9 0 0
BITMAP
0088
0260
0000
2414
2024
3030
6030
61A0
3E60
ENDCHAR
STARTCHAR Uogonek
ENCODING 370
SWIDTH 600 0
DWIDTH 7 0
BBX 7 11 0 -3
BITMAP
180C
2408
2418
3024
3020
6030
30A0
1F80
0800
1400
1D00
ENDCHAR
STARTCHAR uogonek
ENCODING 371
SWIDTH 600 0
DWIDTH 7 0
BBX 7 9 0 -3
BITMAP
2414
2024
3030
6030
61A0
3E60
0040
0200
02D0
ENDCHAR
STARTCHAR Wcircumflex
ENCODING 372
SWIDTH 600 0
DWIDTH 7 0
BBX 8 10 0 0
BITMAP
01E0
0220
3006
3009
214C
2258
25A4
68A0
64A0
70D0
ENDCHAR
STARTCHAR wcircumflex
ENCODING 373
SWIDTH 600 0
DWIDTH 7 0
BBX 8 9 0 0
BITMAP
02D0
0520
0000
5149
5348
5654
59A0
69A0
70D0
ENDCHAR
STARTCHAR Ycircumflex
ENCODING 374
SWIDTH 600 0
DWIDTH 7 0
BBX 7 10 1 0
BITMAP
0780
0880
9024
60A0
3180
2640
1E00
0C00
1800
2400
ENDCHAR
STARTCHAR ycircumflex
ENCODING 375
SWIDTH 600 0
DWIDTH 7 0
BBX 8 11 -1 -2
BITMAP
00B4
0148
0000
0806
0908
0624
0220
0280
0240
0600
7800
ENDCHAR
STARTCHAR Ydieresis
ENCODING 376
SWIDTH 600 0
DWIDTH 7 0
BBX 7 10 1 0
BITMAP
0880
0000
9024
60A0
3180
2640
1E00
0C00
1800
2400
ENDCHAR
STARTCHAR Zacute
ENCODING 377
SWIDTH 600 0
DWIDTH 7 0
BBX 7 10 0 0
BITMAP
0020
0090
1FFC
0024
0090
0280
0600
1800
2000
BFF0
ENDCHAR
STARTCHAR zacute
ENCODING 378
SWIDTH 600 0
DWIDTH 7 0
BBX 7 9 0 0
BITMAP
0060
0180
0000
2FF4
0060
0280
0900
2400
BFE0
ENDCHAR
STARTCHAR Zdotaccent
ENCODING 379
SWIDTH 600 0
DWIDTH 7 0
BBX 7 10 0 0
BITMAP
0080
0000
1FFC
0024
0090
0280
0600
1800
2000
BFF0
ENDCHAR
STARTCHAR zdotaccent
ENCODING 380
SWIDTH 600 0
DWIDTH 7 0
BBX 7 8 0 0
BITMAP
01C0
0000
2FF4
0060
0280
0900
2400
BFE0
ENDCHAR
STARTCHAR Zcaron
ENCODING 381
SWIDTH 600 0
DWIDTH 7 0
BBX 7 10 0 0
BITMAP
0214
01D0
1FFC
0024
0090
0280
0600
1800
2000
BFF0
ENDCHAR
STARTCHAR zcaron
ENCODING 382
SWIDTH 600 0
DWIDTH 7 0
BBX 7 9 0 0
BITMAP
0220
0290
0000
2FF4
0060
0280
0900
2400
BFE0
ENDCHAR
STARTCHAR longs
ENCODING 383
SWIDTH 600 0
DWIDTH 7 0
BBX 7 9 1 0
BITMAP
02F4
0600
0900
BC00
0C00
1800
1400
2400
3000
ENDCHAR
STARTCHAR uni0180
ENCODING 384
SWIDTH 600 0
DWIDTH 7 0
BBX 7 9 0 0
BITMAP
0C00
3FD0
1800
2AE0
2824
3024
2024
74A0
6B80
ENDCHAR
STARTCHAR uni018A
ENCODING 394
SWIDTH 600 0
DWIDTH 7 0
BBX 7 8 0 0
BITMAP
0BE0
2728
520C
560C
6908
0824
0CA0
1F80
ENDCHAR
STARTCHAR uni018F
ENCODING 399
SWIDTH 600 0
DWIDTH 7 0
BBX 7 8 0 0
BITMAP
06E0
0928
0018
0008
7FF8
6024
20A0
2F80
ENDCHAR
STARTCHAR uni0192
ENCODING 402
SWIDTH 600 0
DWIDTH 7 0
BBX 7 9 0 -1
BITMAP
007C
00D0
0180
0FF0
0300
0600
0900
1C00
F400
ENDCHAR
STARTCHAR uni0193
ENCODING 403
SWIDTH 600 0
DWIDTH 7 0
BBX 8 10 0 0
BITMAP
000A
0018
02F8
0D18
2400
3000
60F4
6024
3430
1BD0
ENDCHAR
STARTCHAR Ohorn
ENCODING 416
SWIDTH 600 0
DWIDTH 7 0
BBX 8 10 0 0
BITMAP
0006
0006
07E8
1824
3018
6018
5018
6024
70A0
1F80
ENDCHAR
STARTCHAR ohorn
ENCODING 417
SWIDTH 600 0
DWIDTH 7 0
BBX 7 8 0 0
BITMAP
0008
0008
0BE4
2870
6024
6024
70A0
1F80
ENDCHAR
STARTCHAR Uhorn
ENCODING 431
SWIDTH 600 0
DWIDTH 7 0
BBX 9 10 0 0
BITMAP
000140
000240
180D00
240800
241800
302400
202400
603000
34A000
1F8000
ENDCHAR
STARTCHAR uhorn
ENCODING 432
SWIDTH 600 0
DWIDTH 7 0
BBX 8 8 0 0
BITMAP
0002
0006
241D
2024
3034
6030
61A0
3E60
ENDCHAR
STARTCHAR uni01C2
ENCODING 450
SWIDTH 600 0
DWIDTH 7 0
BBX 7 11 0 -2
BITMAP
00C0
0080
0180
0240
2FF4
0300
7FE0
0600
0900
0800
0C00
ENDCHAR
STARTCHAR uni01CD
ENCODING 461
SWIDTH 600 0
DWIDTH 7 0
BBX 7 10 0 0
BITMAP
0214
01E0
01C0
0290
0650
0850
1860
3FE0
6030
C030
ENDCHAR
STARTCHAR uni01CE
ENCODING 462
SWIDTH 600 0
DWIDTH 7 0
BBX 7 9 0 0
BITMAP
0214
01D0
0000
0BD8
2834
3020
6030
70A0
2E60
ENDCHAR
STARTCHAR uni01CF
ENCODING 463
SWIDTH 600 0
DWIDTH 7 0
BBX 7 10 0 0
BITMAP
0214
01E0
0FF8
0180
0240
0240
0300
0200
0600
7FD0
ENDCHAR
STARTCHAR uni01D0
ENCODING 464
SWIDTH 600 0
DWIDTH 7 0
BBX 5 9 1 0
BITMAP
1480
0A40
0000
BD00
0800
0800
1800
1800
0F40
ENDCHAR
STARTCHAR uni01D1
ENCODING 465
SWIDTH 600 0
DWIDTH 7 0
BBX 7 10 0 0
BITMAP
0214
01E0
07E0
1824
3018
6018
5018
6024
70A0
1F80
ENDCHAR
STARTCHAR uni01D2
ENCODING 466
SWIDTH 600 0
DWIDTH 7 0
BBX 7 9 0 0
BITMAP
0224
02D0
0000
0BD0
2870
6024
6024
70A0
1F80
ENDCHAR
STARTCHAR uni01D3
ENCODING 467
SWIDTH 600 0
DWIDTH 7 0
BBX 7 10 0 0
BITMAP
0214
01E0
180C
2408
2418
3024
2020
6030
34A0
1F80
ENDCHAR
STARTCHAR uni01D4
ENCODING 468
SWIDTH 600 0
DWIDTH 7 0
BBX 7 9 0 0
BITMAP
0224
02D0
0000
2414
2024
3030
6030
61A0
3E60
ENDCHAR
STARTCHAR uni01D5
ENCODING 469
SWIDTH 600 0
DWIDTH 7 0
BBX 7 12 0 0
BITMAP
02F4
0000
0220
0000
180C
2408
2418
3024
2020
6030
34A0
1F80
ENDCHAR
STARTCHAR uni01D6
ENCODING 470
SWIDTH 600 0
DWIDTH 7 0
BBX 7 10 0 0
BITMAP
02F4
0000
0220
0000
2414
2024
3030
6030
61A0
3E60
ENDCHAR
STARTCHAR uni01D7
ENCODING 471
SWIDTH 600 0
DWIDTH 7 0
BBX 7 12 0 0
BITMAP
0020
0050
0220
0000
180C
2408
2418
3024
2020
6030
34A0
1F80
ENDCHAR
STARTCHAR uni01D8
ENCODING 472
SWIDTH 600 0
DWIDTH 7 0
BBX 7 10 0 0
BITMAP
0020
0040
0220
0000
2414
2024
3030
6030
61A0
3E60
ENDCHAR
STARTCHAR uni01D9
ENCODING 473
SWIDTH 600 0
DWIDTH 7 0
BBX 7 11 0 0
BITMAP
01A4
0220
0000
180C
2408
2418
3024
2020
6030
34A0
1F80
ENDCHAR
STARTCHAR uni01DA
ENCODING 474
SWIDTH 600 0
DWIDTH 7 0
BBX 7 10 0 0
BITMAP
0190
0000
0220
0000
2414
2024
3030
6030
61A0
3E60
ENDCHAR
STARTCHAR uni01DB
ENCODING 475
SWIDTH 600 0
DWIDTH 7 0
BBX 7 12 0 0
BITMAP
0080
0080
0220
0000
180C
2408
2418
3024
2020
6030
34A0
1F80
ENDCHAR
STARTCHAR uni01DC
ENCODING 476
SWIDTH 600 0
DWIDTH 7 0
BBX 7 10 0 0
BITMAP
0040
0080
0220
0000
2414
2024
3030
6030
61A0
3E60
ENDCHAR
STARTCHAR uni01E2
ENCODING 482
SWIDTH 600 0
DWIDTH 7 0
BBX 9 10 -1 0
BITMAP
002F80
000000
007F80
00A400
016000
023E00
096000
1FD000
249000
60BD00
ENDCHAR
STARTCHAR uni01E3
ENCODING 483
SWIDTH 600 0
DWIDTH 7 0
BBX 8 8 -1 0
BITMAP
00FC
0000
0B9E
0492
06EB
2995
61C0
3D78
ENDCHAR
STARTCHAR Gcaron
ENCODING 486
SWIDTH 600 0
DWIDTH 7 0
BBX 7 10 0 0
BITMAP
0158
00A0
02F4
0D14
2400
3000
60F4
6024
3430
1BD0
ENDCHAR
STARTCHAR gcaron
ENCODING 487
SWIDTH 600 0
DWIDTH 7 0
BBX 7 11 0 -2
BITMAP
0214
01D0
0000
0BE8
2834
2020
6030
3AE0
1550
51C0
7E40
ENDCHAR
STARTCHAR uni01EA
ENCODING 490
SWIDTH 600 0
DWIDTH 7 0
BBX 7 11 0 -3
BITMAP
07E0
1824
3018
6018
5018
6024
70A0
1F80
0800
1400
1D00
ENDCHAR
STARTCHAR uni01EB
ENCODING 491
SWIDTH 600 0
DWIDTH 7 0
BBX 7 9 0 -3
BITMAP
0BD0
2870
6024
6020
70A0
2F80
0800
1400
1D00
ENDCHAR
STARTCHAR uni01F4
ENCODING 500
SWIDTH 600 0
DWIDTH 7 0
BBX 7 10 0 0
BITMAP
0014
0090
02F4
0D14
2400
3000
60F4
6024
3430
1BD0
ENDCHAR
STARTCHAR uni01F5
ENCODING 501
SWIDTH 600 0
DWIDTH 7 0
BBX 7 11 0 -2
BITMAP
0020
0080
0000
0BE8
2834
2020
6030
3AE0
1550
51C0
7E40
ENDCHAR
STARTCHAR uni01F8
ENCODING 504
SWIDTH 600 0
DWIDTH 7 0
BBX 7 10 0 0
BITMAP
0140
0080
1C0C
1918
2618
2224
3260
61B0
50A0
90A0
ENDCHAR
STARTCHAR uni01F9
ENCODING 505
SWIDTH 600 0
DWIDTH 7 0
BBX 7 10 0 0
BITMAP
0140
0180
0090
0000
26F0
2924
3024
3030
6020
5060
ENDCHAR
STARTCHAR Aringacute
ENCODING 506
SWIDTH 600 0
DWIDTH 7 0
BBX 6 11 0 0
BITMAP
0020
0160
01E0
01C0
0290
0650
0C50
1860
3FE0
6030
C030
ENDCHAR
STARTCHAR aringacute
ENCODING 507
SWIDTH 600 0
DWIDTH 7 0
BBX 7 10 0 0
BITMAP
0060
01E0
0260
01D0
0BD8
2824
3020
6030
70A0
2E60
ENDCHAR
STARTCHAR AEacute
ENCODING 508
SWIDTH 600 0
DWIDTH 7 0
BBX 9 10 -1 0
BITMAP
000140
000500
007F80
00A400
016000
023E00
096000
1FD000
249000
60BD00
ENDCHAR
STARTCHAR aeacute
ENCODING 509
SWIDTH 600 0
DWIDTH 7 0
BBX 8 9 -1 0
BITMAP
0018
0060
0000
0B9E
0492
06EB
2995
61C0
3D78
ENDCHAR
STARTCHAR Oslashacute
ENCODING 510
SWIDTH 600 0
DWIDTH 7 0
BBX 8 10 0 0
BITMAP
0020
0090
07E9
1828
30A8
6198
5618
6824
74A0
AF80
ENDCHAR
STARTCHAR oslashacute
ENCODING 511
SWIDTH 600 0
DWIDTH 7 0
BBX 7 9 0 0
BITMAP
0060
0180
0000
0BE8
28B4
62A4
6924
74A0
AF80
ENDCHAR
STARTCHAR uni0218
ENCODING 536
SWIDTH 600 0
DWIDTH 7 0
BBX 7 11 0 -3
BITMAP
07E0
0C24
1800
0A40
01D0
0060
60A0
1F80
0900
0600
1900
ENDCHAR
STARTCHAR uni0219
ENCODING 537
SWIDTH 600 0
DWIDTH 7 0
BBX 5 9 1 -3
BITMAP
2F40
6180
2800
0640
9180
7E00
2800
1800
6400
ENDCHAR
STARTCHAR uni021A
ENCODING 538
SWIDTH 600 0
DWIDTH 7 0
BBX 7 11 1 -3
BITMAP
BFF4
0600
0900
0900
0C00
0800
1800
2400
2400
2400
A000
ENDCHAR
STARTCHAR uni021B
ENCODING 539
SWIDTH 600 0
DWIDTH 7 0
BBX 6 11 1 -3
BITMAP
0800
0800
FFD0
2400
2000
3000
3040
2F40
0C00
0900
2800
ENDCHAR
STARTCHAR uni0237
ENCODING 567
SWIDTH 600 0
DWIDTH 7 0
BBX 6 8 0 -2
BITMAP
1FD0
0080
0080
0180
0240
0200
4700
B900
ENDCHAR
STARTCHAR uni0243
ENCODING 579
SWIDTH 600 0
DWIDTH 7 0
BBX 7 8 0 0
BITMAP
0FE0
1828
1424
2FD0
3070
FE24
6070
7F90
ENDCHAR
STARTCHAR uni0250
ENCODING 592
SWIDTH 600 0
DWIDTH 7 0
BBX 7 6 0 0
BITMAP
26E0
2924
3070
3E80
6050
2F80
ENDCHAR
STARTCHAR uni0251
ENCODING 593
SWIDTH 600 0
DWIDTH 7 0
BBX 7 6 0 0
BITMAP
0BD8
2834
3020
6030
70A0
2E60
ENDCHAR
STARTCHAR uni0252
ENCODING 594
SWIDTH 600 0
DWIDTH 7 0
BBX 7 6 0 0
BITMAP
26E0
2824
3024
2024
74A0
6B80
ENDCHAR
STARTCHAR uni0253
ENCODING 595
SWIDTH 600 0
DWIDTH 7 0
BBX 7 9 0 0
BITMAP
07C0
0D00
1800
1AE0
2824
3024
2024
74A0
6B80
ENDCHAR
STARTCHAR uni0254
ENCODING 596
SWIDTH 600 0
DWIDTH 7 0
BBX 6 6 0 0
BITMAP
0B90
1470
0030
0030
5190
2E40
ENDCHAR
STARTCHAR uni0255
ENCODING 597
SWIDTH 600 0
DWIDTH 7 0
BBX 7 7 0 -1
BITMAP
07E0
2814
3000
22E0
3960
2BD0
5000
ENDCHAR
STARTCHAR uni0256
ENCODING 598
SWIDTH 600 0
DWIDTH 7 0
BBX 7 11 0 -2
BITMAP
0008
000C
0018
0BE4
2824
3020
6030
70A0
2E90
0090
0070
ENDCHAR
STARTCHAR uni0257
ENCODING 599
SWIDTH 600 0
DWIDTH 7 0
BBX 9 9 0 0
BITMAP
000740
000C00
000800
0BE800
282400
302400
603000
70A000
2E6000
ENDCHAR
STARTCHAR uni0258
ENCODING 600
SWIDTH 600 0
DWIDTH 7 0
BBX 6 6 1 0
BITMAP
2F40
9080
FFD0
00D0
4280
BE00
ENDCHAR
STARTCHAR uni0259
ENCODING 601
SWIDTH 600 0
DWIDTH 7 0
BBX 7 6 0 0
BITMAP
0BE0
1474
0024
7FF4
6060
2F80
ENDCHAR
STARTCHAR uni025A
ENCODING 602
SWIDTH 600 0
DWIDTH 7 0
BBX 8 6 0 0
BITMAP
2F40
11E4
06DD
A480
C240
7D00
ENDCHAR
STARTCHAR uni025B
ENCODING 603
SWIDTH 600 0
DWIDTH 7 0
BBX 7 6 0 0
BITMAP
0BE0
1824
1F80
6000
6050
2F90
ENDCHAR
STARTCHAR uni025C
ENCODING 604
SWIDTH 600 0
DWIDTH 7 0
BBX 6 6 0 0
BITMAP
0BE0
1470
0BD0
0060
6060
2F80
ENDCHAR
STARTCHAR uni025E
ENCODING 606
SWIDTH 600 0
DWIDTH 7 0
BBX 6 6 0 0
BITMAP
0BE0
2830
62D0
6070
7470
1F90
ENDCHAR
STARTCHAR uni025F
ENCODING 607
SWIDTH 600 0
DWIDTH 7 0
BBX 7 8 0 -2
BITMAP
1FD0
0080
00C0
1FF8
0180
0240
4700
BD00
ENDCHAR
STARTCHAR uni0260
ENCODING 608
SWIDTH 600 0
DWIDTH 7 0
BBX 8 10 0 -2
BITMAP
000B
0008
0BE8
2834
3020
6020
70A0
2E90
5180
7F40
ENDCHAR
STARTCHAR uni0261
ENCODING 609
SWIDTH 600 0
DWIDTH 7 0
BBX 7 8 0 -2
BITMAP
0BE8
2834
2020
6030
3AE0
1550
51C0
7E40
ENDCHAR
STARTCHAR uni0262
ENCODING 610
SWIDTH 600 0
DWIDTH 7 0
BBX 7 6 0 0
BITMAP
07E0
2814
3000
61F0
3420
1FD0
ENDCHAR
STARTCHAR uni0263
ENCODING 611
SWIDTH 600 0
DWIDTH 7 0
BBX 6 8 1 -2
BITMAP
8060
9080
6240
2600
2800
2800
9C00
7400
ENDCHAR
STARTCHAR uni0264
ENCODING 612
SWIDTH 600 0
DWIDTH 7 0
BBX 6 6 1 0
BITMAP
B5E0
1E00
2700
9240
9300
7D00
ENDCHAR
STARTCHAR uni0265
ENCODING 613
SWIDTH 600 0
DWIDTH 7 0
BBX 7 8 0 -2
BITMAP
2414
2024
3030
6030
61A0
3E50
0090
00C0
ENDCHAR
STARTCHAR uni0266
ENCODING 614
SWIDTH 600 0
DWIDTH 7 0
BBX 7 9 0 0
BITMAP
07C0
0D00
1800
16F0
2924
3024
3030
6020
5060
ENDCHAR
STARTCHAR uni0267
ENCODING 615
SWIDTH 600 0
DWIDTH 7 0
BBX 7 11 0 -2
BITMAP
07C0
0D00
1800
16F0
2924
3024
3030
6020
5060
0090
0380
ENDCHAR
STARTCHAR uni0268
ENCODING 616
SWIDTH 600 0
DWIDTH 7 0
BBX 5 8 1 0
BITMAP
0600
0000
BD00
0800
FF80
1800
1800
0F40
ENDCHAR
STARTCHAR uni026A
ENCODING 618
SWIDTH 600 0
DWIDTH 7 0
BBX 7 6 0 0
BITMAP
1FF4
0240
0300
0200
0600
7FD0
ENDCHAR
STARTCHAR uni026B
ENCODING 619
SWIDTH 600 0
DWIDTH 7 0
BBX 5 9 1 0
BITMAP
7E00
0500
1900
6D80
8F40
1800
2400
2400
1F40
ENDCHAR
STARTCHAR uni026C
ENCODING 620
SWIDTH 600 0
DWIDTH 7 0
BBX 5 9 1 0
BITMAP
7E00
0900
AC00
9C00
BF40
1800
2400
2400
1F40
ENDCHAR
STARTCHAR uni026D
ENCODING 621
SWIDTH 600 0
DWIDTH 7 0
BBX 4 11 1 -2
BITMAP
7E
05
09
0C
08
18
24
20
30
30
2E
ENDCHAR
STARTCHAR uni026E
ENCODING 622
SWIDTH 600 0
DWIDTH 7 0
BBX 7 11 0 -2
BITMAP
0800
1800
2400
2FFC
3020
3180
63E0
5030
9030
14A0
1F80
ENDCHAR
STARTCHAR uni026F
ENCODING 623
SWIDTH 600 0
DWIDTH 7 0
BBX 7 6 0 0
BITMAP
324C
6218
5314
9624
9A70
B7A0
ENDCHAR
STARTCHAR uni0270
ENCODING 624
SWIDTH 600 0
DWIDTH 7 0
BBX 7 8 0 -2
BITMAP
3248
6218
5314
9624
9A70
B7A0
0060
0050
ENDCHAR
STARTCHAR uni0271
ENCODING 625
SWIDTH 600 0
DWIDTH 7 0
BBX 7 8 0 -2
BITMAP
2B78
3698
6218
9324
9620
C530
0060
01D0
ENDCHAR
STARTCHAR uni0272
ENCODING 626
SWIDTH 600 0
DWIDTH 7 0
BBX 8 8 -1 -2
BITMAP
09BC
0A49
0C09
0C0C
1808
2418
2400
E000
ENDCHAR
STARTCHAR uni0273
ENCODING 627
SWIDTH 600 0
DWIDTH 7 0
BBX 7 8 0 -2
BITMAP
16F0
2924
3024
3030
6020
5060
0050
0074
ENDCHAR
STARTCHAR uni0274
ENCODING 628
SWIDTH 600 0
DWIDTH 7 0
BBX 7 6 0 0
BITMAP
1C24
2D30
2620
3260
21D0
60D0
ENDCHAR
STARTCHAR uni0275
ENCODING 629
SWIDTH 600 0
DWIDTH 7 0
BBX 7 6 0 0
BITMAP
0BD0
2420
7FF4
5024
70A0
1F80
ENDCHAR
STARTCHAR uni0276
ENCODING 630
SWIDTH 600 0
DWIDTH 7 0
BBX 8 6 0 0
BITMAP
1FE9
7480
91F8
C240
D200
7FF8
ENDCHAR
STARTCHAR uni0278
ENCODING 632
SWIDTH 600 0
DWIDTH 7 0
BBX 7 11 0 -2
BITMAP
00C0
00C0
0180
1BE0
3664
9318
9318
A670
2F90
0900
0C00
ENDCHAR
STARTCHAR uni0279
ENCODING 633
SWIDTH 600 0
DWIDTH 7 0
BBX 6 6 0 0
BITMAP
0020
0060
0050
00D0
06C0
7880
ENDCHAR
STARTCHAR uni027A
ENCODING 634
SWIDTH 600 0
DWIDTH 7 0
BBX 7 9 0 0
BITMAP
0014
0024
0030
0030
0060
0050
00D0
06C0
7880
ENDCHAR
STARTCHAR uni027B
ENCODING 635
SWIDTH 600 0
DWIDTH 7 0
BBX 5 8 0 -2
BITMAP
00C0
0080
0180
0240
0700
7A00
0200
03C0
ENDCHAR
STARTCHAR uni027D
ENCODING 637
SWIDTH 600 0
DWIDTH 7 0
BBX 6 8 1 -2
BITMAP
22D0
3900
7000
6000
9000
8000
D000
7D00
ENDCHAR
STARTCHAR uni027E
ENCODING 638
SWIDTH 600 0
DWIDTH 7 0
BBX 6 6 1 0
BITMAP
0BD0
2800
3000
6000
9000
9000
ENDCHAR
STARTCHAR uni0280
ENCODING 640
SWIDTH 600 0
DWIDTH 7 0
BBX 5 6 1 0
BITMAP
3F80
60C0
51C0
BF40
C200
C240
ENDCHAR
STARTCHAR uni0281
ENCODING 641
SWIDTH 600 0
DWIDTH 7 0
BBX 5 6 1 0
BITMAP
60C0
2080
7F80
D240
C240
BF00
ENDCHAR
STARTCHAR uni0282
ENCODING 642
SWIDTH 600 0
DWIDTH 7 0
BBX 6 8 0 -2
BITMAP
0BD0
1860
0A00
0190
6460
AF80
9000
7400
ENDCHAR
STARTCHAR uni0283
ENCODING 643
SWIDTH 600 0
DWIDTH 7 0
BBX 8 11 0 -2
BITMAP
007D
00C0
0180
0240
0240
0300
0300
0600
0900
4D00
B800
ENDCHAR
STARTCHAR uni0284
ENCODING 644
SWIDTH 600 0
DWIDTH 7 0
BBX 8 11 0 -2
BITMAP
007D
00C0
0180
0240
0240
3FF0
0300
0600
0900
4900
B800
ENDCHAR
STARTCHAR uni0287
ENCODING 647
SWIDTH 600 0
DWIDTH 7 0
BBX 6 8 0 -2
BITMAP
1F80
10C0
00C0
0180
0140
7FF0
0200
0200
ENDCHAR
STARTCHAR uni0288
ENCODING 648
SWIDTH 600 0
DWIDTH 7 0
BBX 6 10 1 -2
BITMAP
0800
0800
FFD0
2400
2000
3000
2000
5000
6100
3E00
ENDCHAR
STARTCHAR uni0289
ENCODING 649
SWIDTH 600 0
DWIDTH 7 0
BBX 7 6 0 0
BITMAP
1820
1430
BFF8
3060
31D0
2E90
ENDCHAR
STARTCHAR uni028A
ENCODING 650
SWIDTH 600 0
DWIDTH 7 0
BBX 7 6 0 0
BITMAP
2D78
1820
2030
6030
7090
2F40
ENDCHAR
STARTCHAR uni028B
ENCODING 651
SWIDTH 600 0
DWIDTH 7 0
BBX 7 6 0 0
BITMAP
24A0
2024
3024
6030
7090
2F40
ENDCHAR
STARTCHAR uni028C
ENCODING 652
SWIDTH 600 0
DWIDTH 7 0
BBX 6 6 0 0
BITMAP
0280
05C0
0880
2490
2060
9020
ENDCHAR
STARTCHAR uni028D
ENCODING 653
SWIDTH 600 0
DWIDTH 7 0
BBX 8 6 -1 0
BITMAP
070D
0A29
0A69
1699
2289
6149
ENDCHAR
STARTCHAR uni028E
ENCODING 654
SWIDTH 600 0
DWIDTH 7 0
BBX 8 9 0 0
BITMAP
002D
00A0
0180
0280
0580
0880
2490
2060
9020
ENDCHAR
STARTCHAR uni028F
ENCODING 655
SWIDTH 600 0
DWIDTH 7 0
BBX 6 6 1 0
BITMAP
9090
7180
2600
1D00
1800
1400
ENDCHAR
STARTCHAR uni0290
ENCODING 656
SWIDTH 600 0
DWIDTH 7 0
BBX 7 8 0 -2
BITMAP
2FF4
0060
0280
0900
2400
BFE0
0050
0074
ENDCHAR
STARTCHAR uni0291
ENCODING 657
SWIDTH 600 0
DWIDTH 7 0
BBX 7 7 0 -1
BITMAP
2FF4
0090
0240
0978
2498
BFE0
0200
ENDCHAR
STARTCHAR uni0292
ENCODING 658
SWIDTH 600 0
DWIDTH 7 0
BBX 7 8 0 -2
BITMAP
1FF4
0040
0600
1F80
0090
0050
81C0
7E40
ENDCHAR
STARTCHAR uni0294
ENCODING 660
SWIDTH 600 0
DWIDTH 7 0
BBX 6 9 1 0
BITMAP
1F80
6090
0050
0080
0240
1800
1400
2400
2000
ENDCHAR
STARTCHAR uni0295
ENCODING 661
SWIDTH 600 0
DWIDTH 7 0
BBX 6 9 1 0
BITMAP
1B80
3460
6000
2000
2400
0900
0C00
0C00
1800
ENDCHAR
STARTCHAR uni0298
ENCODING 664
SWIDTH 600 0
DWIDTH 7 0
BBX 6 9 1 0
BITMAP
1B80
3490
9060
C060
8950
8090
80C0
D240
7D00
ENDCHAR
STARTCHAR uni0299
ENCODING 665
SWIDTH 600 0
DWIDTH 7 0
BBX 5 6 1 0
BITMAP
3F80
60C0
BF40
8180
C180
FE00
ENDCHAR
STARTCHAR uni029C
ENCODING 668
SWIDTH 600 0
DWIDTH 7 0
BBX 7 6 0 0
BITMAP
2424
2024
3FF0
2020
6060
5090
ENDCHAR
STARTCHAR uni029D
ENCODING 669
SWIDTH 600 0
DWIDTH 7 0
BBX 6 11 0 -3
BITMAP
0060
0000
1FD0
0080
0080
0180
0240
7B00
CB00
BA40
0140
ENDCHAR
STARTCHAR uni029E
ENCODING 670
SWIDTH 600 0
DWIDTH 7 0
BBX 7 8 0 -2
BITMAP
3024
1820
0DB0
0B60
1850
6090
00C0
0080
ENDCHAR
STARTCHAR uni029F
ENCODING 671
SWIDTH 600 0
DWIDTH 7 0
BBX 5 6 1 0
BITMAP
2400
3000
3000
6000
5000
BFC0
ENDCHAR
STARTCHAR uni02A1
ENCODING 673
SWIDTH 600 0
DWIDTH 7 0
BBX 6 9 1 0
BITMAP
1F80
6090
0050
0080
0600
FFC0
1800
2400
2000
ENDCHAR
STARTCHAR uni02A2
ENCODING 674
SWIDTH 600 0
DWIDTH 7 0
BBX 6 9 1 0
BITMAP
1B80
3460
6000
3000
1800
BFC0
0800
0C00
1800
ENDCHAR
STARTCHAR uni02A4
ENCODING 676
SWIDTH 600 0
DWIDTH 7 0
BBX 8 11 0 -2
BITMAP
00C0
0080
0180
2EFE
A348
C220
82B8
CA0C
B90C
0128
02E0
ENDCHAR
STARTCHAR uni02A6
ENCODING 678
SWIDTH 600 0
DWIDTH 7 0
BBX 7 8 0 0
BITMAP
0800
1800
7FF4
2584
3090
2024
7024
2FD0
ENDCHAR
STARTCHAR uni02A7
ENCODING 679
SWIDTH 600 0
DWIDTH 7 0
BBX 7 11 1 -2
BITMAP
002C
2460
2090
FFC0
60C0
5180
9140
9240
B700
0600
2D00
ENDCHAR
STARTCHAR h.sups
ENCODING 688
SWIDTH 600 0
DWIDTH 7 0
BBX 4 7 2 4
BITMAP
10
20
2B
62
52
82
41
ENDCHAR
STARTCHAR j.sups
ENCODING 690
SWIDTH 600 0
DWIDTH 7 0
BBX 5 7 1 3
BITMAP
0180
1F40
0200
0200
0200
0500
7800
ENDCHAR
STARTCHAR r.sups
ENCODING 691
SWIDTH 600 0
DWIDTH 7 0
BBX 4 5 3 4
BITMAP
6D
A0
80
80
40
ENDCHAR
STARTCHAR w.sups
ENCODING 695
SWIDTH 600 0
DWIDTH 7 0
BBX 5 4 2 5
BITMAP
8880
A940
AA00
DA00
ENDCHAR
STARTCHAR y.sups
ENCODING 696
SWIDTH 600 0
DWIDTH 7 0
BBX 6 6 1 3
BITMAP
1490
0880
0A00
0A00
0800
7400
ENDCHAR
STARTCHAR uni02B9
ENCODING 697
SWIDTH 600 0
DWIDTH 7 0
BBX 2 3 3 5
BITMAP
20
20
50
ENDCHAR
STARTCHAR uni02BB
ENCODING 699
SWIDTH 600 0
DWIDTH 7 0
BBX 3 5 3 4
BITMAP
18
60
90
E0
A0
ENDCHAR
STARTCHAR uni02BC
ENCODING 700
SWIDTH 600 0
DWIDTH 7 0
BBX 4 5 2 3
BITMAP
1C
1D
08
28
60
ENDCHAR
STARTCHAR uni02BE
ENCODING 702
SWIDTH 600 0
DWIDTH 7 0
BBX 3 4 3 6
BITMAP
60
14
14
A0
ENDCHAR
STARTCHAR uni02BF
ENCODING 703
SWIDTH 600 0
DWIDTH 7 0
BBX 3 4 3 6
BITMAP
24
50
50
24
ENDCHAR
STARTCHAR uni02C1
ENCODING 705
SWIDTH 600 0
DWIDTH 7 0
BBX 4 5 3 6
BITMAP
78
85
80
50
20
ENDCHAR
STARTCHAR circumflex
ENCODING 710
SWIDTH 600 0
DWIDTH 7 0
BBX 4 2 2 7
BITMAP
1D
52
ENDCHAR
STARTCHAR caron
ENCODING 711
SWIDTH 600 0
DWIDTH 7 0
BBX 4 2 3 7
BITMAP
89
B4
ENDCHAR
STARTCHAR uni02C8
ENCODING 712
SWIDTH 600 0
DWIDTH 7 0
BBX 2 4 3 5
BITMAP
30
60
50
50
ENDCHAR
STARTCHAR uni02C9
ENCODING 713
SWIDTH 600 0
DWIDTH 7 0
BBX 4 1 2 7
BITMAP
7F
ENDCHAR
STARTCHAR uni02CA
ENCODING 714
SWIDTH 600 0
DWIDTH 7 0
BBX 3 2 3 7
BITMAP
18
60
ENDCHAR
STARTCHAR uni02CB
ENCODING 715
SWIDTH 600 0
DWIDTH 7 0
BBX 2 3 3 7
BITMAP
80
60
20
ENDCHAR
STARTCHAR uni02CC
ENCODING 716
SWIDTH 600 0
DWIDTH 7 0
BBX 3 4 1 -3
BITMAP
14
20
30
70
ENDCHAR
STARTCHAR uni02D0
ENCODING 720
SWIDTH 600 0
DWIDTH 7 0
BBX 3 6 2 0
BITMAP
38
20
00
00
50
A0
ENDCHAR
STARTCHAR uni02D1
ENCODING 721
SWIDTH 600 0
DWIDTH 7 0
BBX 2 2 3 4
BITMAP
E0
80
ENDCHAR
STARTCHAR breve
ENCODING 728
SWIDTH 600 0
DWIDTH 7 0
BBX 5 2 2 7
BITMAP
6240
2E00
ENDCHAR
STARTCHAR dotaccent
ENCODING 729
SWIDTH 600 0
DWIDTH 7 0
BBX 2 1 3 7
BITMAP
70
ENDCHAR
STARTCHAR ring
ENCODING 730
SWIDTH 600 0
DWIDTH 7 0
BBX 3 3 3 6
BITMAP
74
98
B4
ENDCHAR
STARTCHAR ogonek
ENCODING 731
SWIDTH 600 0
DWIDTH 7 0
BBX 3 3 1 -3
BITMAP
10
50
74
ENDCHAR
STARTCHAR tilde
ENCODING 732
SWIDTH 600 0
DWIDTH 7 0
BBX 5 2 2 7
BITMAP
6940
8700
ENDCHAR
STARTCHAR hungarumlaut
ENCODING 733
SWIDTH 600 0
DWIDTH 7 0
BBX 4 2 3 7
BITMAP
22
58
ENDCHAR
STARTCHAR uni02DE
ENCODING 734
SWIDTH 600 0
DWIDTH 7 0
BBX 4 2 2 3
BITMAP
64
0D
ENDCHAR
STARTCHAR uni02E0
ENCODING 736
SWIDTH 600 0
DWIDTH 7 0
BBX 5 6 2 3
BITMAP
5140
2200
2800
2800
1800
3400
ENDCHAR
STARTCHAR l.sups
ENCODING 737
SWIDTH 600 0
DWIDTH 7 0
BBX 3 7 3 4
BITMAP
74
20
20
20
50
50
74
ENDCHAR
STARTCHAR s.sups
ENCODING 738
SWIDTH 600 0
DWIDTH 7 0
BBX 4 5 2 4
BITMAP
2D
21
14
46
7D
ENDCHAR
STARTCHAR x.sups
ENCODING 739
SWIDTH 600 0
DWIDTH 7 0
BBX 4 4 2 5
BITMAP
22
18
28
95
ENDCHAR
STARTCHAR uni02E4
ENCODING 740
SWIDTH 600 0
DWIDTH 7 0
BBX 4 6 3 5
BITMAP
78
85
80
50
20
50
ENDCHAR
STARTCHAR uni0300
ENCODING 768
SWIDTH 600 0
DWIDTH 7 0
BBX 2 3 3 7
BITMAP
80
60
20
ENDCHAR
STARTCHAR uni0301
ENCODING 769
SWIDTH 600 0
DWIDTH 7 0
BBX 3 2 3 7
BITMAP
18
60
ENDCHAR
STARTCHAR uni0302
ENCODING 770
SWIDTH 600 0
DWIDTH 7 0
BBX 4 2 2 7
BITMAP
1D
52
ENDCHAR
STARTCHAR uni0303
ENCODING 771
SWIDTH 600 0
DWIDTH 7 0
BBX 5 2 2 7
BITMAP
6940
8700
ENDCHAR
STARTCHAR uni0304
ENCODING 772
SWIDTH 600 0
DWIDTH 7 0
BBX 4 1 2 7
BITMAP
7F
ENDCHAR
STARTCHAR uni0305
ENCODING 773
SWIDTH 600 0
DWIDTH 7 0
BBX 4 1 2 7
BITMAP
7F
ENDCHAR
STARTCHAR uni0306
ENCODING 774
SWIDTH 600 0
DWIDTH 7 0
BBX 5 2 2 7
BITMAP
6240
2E00
ENDCHAR
STARTCHAR uni0307
ENCODING 775
SWIDTH 600 0
DWIDTH 7 0
BBX 2 1 3 7
BITMAP
70
ENDCHAR
STARTCHAR uni0308
ENCODING 776
SWIDTH 600 0
DWIDTH 7 0
BBX 4 1 2 7
BITMAP
62
ENDCHAR
STARTCHAR uni0309
ENCODING 777
SWIDTH 600 0
DWIDTH 7 0
BBX 3 3 3 7
BITMAP
74
24
20
ENDCHAR
STARTCHAR uni030A
ENCODING 778
SWIDTH 600 0
DWIDTH 7 0
BBX 3 3 3 6
BITMAP
74
98
B4
ENDCHAR
STARTCHAR uni030B
ENCODING 779
SWIDTH 600 0
DWIDTH 7 0
BBX 4 2 3 7
BITMAP
22
58
ENDCHAR
STARTCHAR uni030C
ENCODING 780
SWIDTH 600 0
DWIDTH 7 0
BBX 4 2 3 7
BITMAP
89
B4
ENDCHAR
STARTCHAR uni030F
ENCODING 783
SWIDTH 600 0
DWIDTH 7 0
BBX 3 2 2 7
BITMAP
88
54
ENDCHAR
STARTCHAR uni0310
ENCODING 784
SWIDTH 600 0
DWIDTH 7 0
BBX 5 3 2 7
BITMAP
0900
5540
2E00
ENDCHAR
STARTCHAR uni0311
ENCODING 785
SWIDTH 600 0
DWIDTH 7 0
BBX 4 2 2 7
BITMAP
2E
52
ENDCHAR
STARTCHAR uni0312
ENCODING 786
SWIDTH 600 0
DWIDTH 7 0
BBX 2 2 3 7
BITMAP
20
60
ENDCHAR
STARTCHAR uni0313
ENCODING 787
SWIDTH 600 0
DWIDTH 7 0
BBX 1 2 4 7
BITMAP
C0
40
ENDCHAR
STARTCHAR uni0318
ENCODING 792
SWIDTH 600 0
DWIDTH 7 0
BBX 3 3 1 -3
BITMAP
08
74
14
ENDCHAR
STARTCHAR uni0319
ENCODING 793
SWIDTH 600 0
DWIDTH 7 0
BBX 3 3 1 -3
BITMAP
50
B4
80
ENDCHAR
STARTCHAR uni031A
ENCODING 794
SWIDTH 600 0
DWIDTH 7 0
BBX 2 2 4 7
BITMAP
F0
20
ENDCHAR
STARTCHAR uni031B
ENCODING 795
SWIDTH 600 0
DWIDTH 7 0
BBX 2 3 4 5
BITMAP
20
60
D0
ENDCHAR
STARTCHAR uni031C
ENCODING 796
SWIDTH 600 0
DWIDTH 7 0
BBX 3 2 1 -3
BITMAP
34
60
ENDCHAR
STARTCHAR uni031D
ENCODING 797
SWIDTH 600 0
DWIDTH 7 0
BBX 3 2 1 -2
BITMAP
20
B8
ENDCHAR
STARTCHAR uni031E
ENCODING 798
SWIDTH 600 0
DWIDTH 7 0
BBX 3 2 1 -3
BITMAP
B8
20
ENDCHAR
STARTCHAR uni031F
ENCODING 799
SWIDTH 600 0
DWIDTH 7 0
BBX 3 3 1 -3
BITMAP
20
B8
20
ENDCHAR
STARTCHAR uni0320
ENCODING 800
SWIDTH 600 0
DWIDTH 7 0
BBX 3 1 1 -2
BITMAP
B8
ENDCHAR
STARTCHAR uni0323
ENCODING 803
SWIDTH 600 0
DWIDTH 7 0
BBX 1 1 2 -3
BITMAP
C0
ENDCHAR
STARTCHAR uni0324
ENCODING 804
SWIDTH 600 0
DWIDTH 7 0
BBX 3 1 1 -3
BITMAP
88
ENDCHAR
STARTCHAR uni0325
ENCODING 805
SWIDTH 600 0
DWIDTH 7 0
BBX 3 3 1 -4
BITMAP
74
88
B4
ENDCHAR
STARTCHAR uni0326
ENCODING 806
SWIDTH 600 0
DWIDTH 7 0
BBX 3 3 1 -3
BITMAP
34
24
A0
ENDCHAR
STARTCHAR uni0327
ENCODING 807
SWIDTH 600 0
DWIDTH 7 0
BBX 3 4 1 -4
BITMAP
20
34
24
A0
ENDCHAR
STARTCHAR uni0328
ENCODING 808
SWIDTH 600 0
DWIDTH 7 0
BBX 3 3 1 -3
BITMAP
10
50
74
ENDCHAR
STARTCHAR uni0329
ENCODING 809
SWIDTH 600 0
DWIDTH 7 0
BBX 1 2 2 -3
BITMAP
80
80
ENDCHAR
STARTCHAR uni032A
ENCODING 810
SWIDTH 600 0
DWIDTH 7 0
BBX 3 2 1 -3
BITMAP
FC
88
ENDCHAR
STARTCHAR uni032C
ENCODING 812
SWIDTH 600 0
DWIDTH 7 0
BBX 4 2 1 -3
BITMAP
85
74
ENDCHAR
STARTCHAR uni032E
ENCODING 814
SWIDTH 600 0
DWIDTH 7 0
BBX 4 2 1 -3
BITMAP
85
B8
ENDCHAR
STARTCHAR uni032F
ENCODING 815
SWIDTH 600 0
DWIDTH 7 0
BBX 4 2 0 -3
BITMAP
2E
62
ENDCHAR
STARTCHAR uni0330
ENCODING 816
SWIDTH 600 0
DWIDTH 7 0
BBX 5 2 0 -3
BITMAP
2880
5740
ENDCHAR
STARTCHAR uni0331
ENCODING 817
SWIDTH 600 0
DWIDTH 7 0
BBX 3 1 1 -2
BITMAP
FC
ENDCHAR
STARTCHAR uni0334
ENCODING 820
SWIDTH 600 0
DWIDTH 7 0
BBX 5 3 1 2
BITMAP
1000
6980
8740
ENDCHAR
STARTCHAR uni0339
ENCODING 825
SWIDTH 600 0
DWIDTH 7 0
BBX 3 2 1 -3
BITMAP
34
70
ENDCHAR
STARTCHAR uni033A
ENCODING 826
SWIDTH 600 0
DWIDTH 7 0
BBX 3 2 1 -3
BITMAP
88
FC
ENDCHAR
STARTCHAR uni033B
ENCODING 827
SWIDTH 600 0
DWIDTH 7 0
BBX 3 2 1 -3
BITMAP
FC
F8
ENDCHAR
STARTCHAR uni033C
ENCODING 828
SWIDTH 600 0
DWIDTH 7 0
BBX 5 2 0 -3
BITMAP
3B40
9940
ENDCHAR
STARTCHAR uni033D
ENCODING 829
SWIDTH 600 0
DWIDTH 7 0
BBX 3 2 3 7
BITMAP
64
60
ENDCHAR
STARTCHAR uni0342
ENCODING 834
SWIDTH 600 0
DWIDTH 7 0
BBX 5 2 2 7
BITMAP
6940
8700
ENDCHAR
STARTCHAR uni0345
ENCODING 837
SWIDTH 600 0
DWIDTH 7 0
BBX 2 2 2 -3
BITMAP
80
90
ENDCHAR
STARTCHAR uni035F
ENCODING 863
SWIDTH 600 0
DWIDTH 7 0
BBX 13 1 -4 -2
BITMAP
7FFFFF40
ENDCHAR
STARTCHAR uni0361
ENCODING 865
SWIDTH 600 0
DWIDTH 7 0
BBX 11 2 -1 7
BITMAP
1AFE90
A50164
ENDCHAR
STARTCHAR pi
ENCODING 960
SWIDTH 600 0
DWIDTH 7 0
BBX 6 6 1 0
BITMAP
FFF0
2080
5180
9240
C200
82C0
ENDCHAR
STARTCHAR a.sups
ENCODING 7491
SWIDTH 600 0
DWIDTH 7 0
BBX 4 5 2 4
BITMAP
2E
92
82
86
75
ENDCHAR
STARTCHAR b.sups
ENCODING 7495
SWIDTH 600 0
DWIDTH 7 0
BBX 4 7 2 4
BITMAP
10
20
2E
62
52
96
6D
ENDCHAR
STARTCHAR d.sups
ENCODING 7496
SWIDTH 600 0
DWIDTH 7 0
BBX 5 6 2 4
BITMAP
0140
2E00
9200
8200
8600
7900
ENDCHAR
STARTCHAR e.sups
ENCODING 7497
SWIDTH 600 0
DWIDTH 7 0
BBX 4 5 2 4
BITMAP
2E
62
BF
91
7D
ENDCHAR
STARTCHAR g.sups
ENCODING 7501
SWIDTH 600 0
DWIDTH 7 0
BBX 4 6 2 3
BITMAP
2E
92
86
7A
49
B8
ENDCHAR
STARTCHAR k.sups
ENCODING 7503
SWIDTH 600 0
DWIDTH 7 0
BBX 5 6 2 5
BITMAP
1000
2000
2240
2800
6500
5200
ENDCHAR
STARTCHAR m.sups
ENCODING 7504
SWIDTH 600 0
DWIDTH 7 0
BBX 6 5 1 4
BITMAP
6EA0
6220
9520
8520
4000
ENDCHAR
STARTCHAR o.sups
ENCODING 7506
SWIDTH 600 0
DWIDTH 7 0
BBX 4 5 2 4
BITMAP
2E
63
82
86
78
ENDCHAR
STARTCHAR p.sups
ENCODING 7510
SWIDTH 600 0
DWIDTH 7 0
BBX 5 6 2 3
BITMAP
2E00
6240
5240
9200
AD00
8000
ENDCHAR
STARTCHAR t.sups
ENCODING 7511
SWIDTH 600 0
DWIDTH 7 0
BBX 5 7 2 4
BITMAP
0400
0800
7F40
1400
2000
2000
2D00
ENDCHAR
STARTCHAR u.sups
ENCODING 7512
SWIDTH 600 0
DWIDTH 7 0
BBX 4 5 2 4
BITMAP
52
52
82
86
79
ENDCHAR
STARTCHAR v.sups
ENCODING 7515
SWIDTH 600 0
DWIDTH 7 0
BBX 4 5 2 4
BITMAP
52
62
29
28
24
ENDCHAR
STARTCHAR c.sups
ENCODING 7580
SWIDTH 600 0
DWIDTH 7 0
BBX 4 5 2 4
BITMAP
1E
61
50
50
3D
ENDCHAR
STARTCHAR f.sups
ENCODING 7584
SWIDTH 600 0
DWIDTH 7 0
BBX 4 7 3 4
BITMAP
1E
20
FD
20
50
80
40
ENDCHAR
STARTCHAR z.sups
ENCODING 7611
SWIDTH 600 0
DWIDTH 7 0
BBX 4 4 2 5
BITMAP
7E
04
10
BE
ENDCHAR
STARTCHAR uni1E06
ENCODING 7686
SWIDTH 600 0
DWIDTH 7 0
BBX 7 10 0 -2
BITMAP
0FE0
1824
1424
2ED0
2560
3024
6070
7F90
0000
3F40
ENDCHAR
STARTCHAR uni1E07
ENCODING 7687
SWIDTH 600 0
DWIDTH 7 0
BBX 7 11 0 -2
BITMAP
0C00
0800
1800
2AE0
2924
3024
2024
74A0
6B80
0000
2F40
ENDCHAR
STARTCHAR uni1E0C
ENCODING 7692
SWIDTH 600 0
DWIDTH 7 0
BBX 7 11 0 -3
BITMAP
1FD0
1874
2418
3018
3018
6034
51A0
BF40
0000
0000
1C00
ENDCHAR
STARTCHAR uni1E0D
ENCODING 7693
SWIDTH 600 0
DWIDTH 7 0
BBX 7 12 0 -3
BITMAP
0008
000C
0018
0BE8
2834
3020
6030
70A0
2E60
0000
0000
0D00
ENDCHAR
STARTCHAR uni1E0E
ENCODING 7694
SWIDTH 600 0
DWIDTH 7 0
BBX 7 10 0 -2
BITMAP
1FD0
1874
2418
3018
3018
6034
51A0
BF40
0000
3F00
ENDCHAR
STARTCHAR uni1E0F
ENCODING 7695
SWIDTH 600 0
DWIDTH 7 0
BBX 7 11 0 -2
BITMAP
0008
000C
0018
0BE8
2834
3020
6030
70A0
2E60
0000
3F40
ENDCHAR
STARTCHAR uni1E10
ENCODING 7696
SWIDTH 600 0
DWIDTH 7 0
BBX 7 12 0 -4
BITMAP
1FD0
1874
2418
3018
3018
6034
51A0
BF40
0800
0C00
0800
3800
ENDCHAR
STARTCHAR uni1E11
ENCODING 7697
SWIDTH 600 0
DWIDTH 7 0
BBX 7 13 0 -4
BITMAP
0008
000C
0018
0BE8
2834
3020
6030
70A0
2E60
0800
0D00
0900
2800
ENDCHAR
STARTCHAR uni1E16
ENCODING 7702
SWIDTH 600 0
DWIDTH 7 0
BBX 7 13 0 0
BITMAP
0018
0020
0000
01F8
0000
0BFC
0C00
1800
1FE0
2400
2000
3000
7FE0
ENDCHAR
STARTCHAR uni1E17
ENCODING 7703
SWIDTH 600 0
DWIDTH 7 0
BBX 7 11 0 0
BITMAP
0020
0050
0000
03F0
0000
0BE0
2424
3FF4
6000
3450
1F80
ENDCHAR
STARTCHAR uni1E20
ENCODING 7712
SWIDTH 600 0
DWIDTH 7 0
BBX 7 10 0 0
BITMAP
02F4
0000
02F4
0D14
2400
3000
60F4
6024
3430
1BD0
ENDCHAR
STARTCHAR uni1E21
ENCODING 7713
SWIDTH 600 0
DWIDTH 7 0
BBX 7 10 0 -2
BITMAP
03F0
0000
0BE8
2834
2020
6030
3AE0
1550
51C0
7E40
ENDCHAR
STARTCHAR uni1E24
ENCODING 7716
SWIDTH 600 0
DWIDTH 7 0
BBX 7 11 0 -3
BITMAP
180C
2418
2018
3FF4
2024
6030
5060
9060
0000
0000
0C00
ENDCHAR
STARTCHAR uni1E25
ENCODING 7717
SWIDTH 600 0
DWIDTH 7 0
BBX 7 12 0 -3
BITMAP
0C00
0800
1800
26F0
2924
3024
3030
6020
5060
0000
0000
0900
ENDCHAR
STARTCHAR uni1E26
ENCODING 7718
SWIDTH 600 0
DWIDTH 7 0
BBX 7 10 0 0
BITMAP
0224
0000
180C
2418
2018
3FF4
2024
6030
5060
9060
ENDCHAR
STARTCHAR uni1E27
ENCODING 7719
SWIDTH 600 0
DWIDTH 7 0
BBX 7 11 0 0
BITMAP
2140
0000
0C00
0800
1800
26F0
2924
3024
3030
6020
5060
ENDCHAR
STARTCHAR uni1E28
ENCODING 7720
SWIDTH 600 0
DWIDTH 7 0
BBX 8 12 -1 -4
BITMAP
0603
0906
0806
0FFD
0809
180C
1418
2418
2000
3000
2400
A000
ENDCHAR
STARTCHAR uni1E29
ENCODING 7721
SWIDTH 600 0
DWIDTH 7 0
BBX 8 13 -1 -4
BITMAP
0300
0200
0600
09BC
0A49
0C09
0C0C
1808
1418
1000
3400
2400
A000
ENDCHAR
STARTCHAR uni1E2A
ENCODING 7722
SWIDTH 600 0
DWIDTH 7 0
BBX 7 11 0 -3
BITMAP
180C
2418
2018
3FF4
2024
6030
5060
9060
0000
2140
2E00
ENDCHAR
STARTCHAR uni1E2B
ENCODING 7723
SWIDTH 600 0
DWIDTH 7 0
BBX 7 12 0 -3
BITMAP
0C00
0800
1800
26F0
2924
3024
3030
6020
5060
0000
2180
1E00
ENDCHAR
STARTCHAR uni1E32
ENCODING 7730
SWIDTH 600 0
DWIDTH 7 0
BBX 7 11 0 -3
BITMAP
0C18
1860
1980
2B40
2980
30C0
6060
6030
0000
0000
0600
ENDCHAR
STARTCHAR uni1E33
ENCODING 7731
SWIDTH 600 0
DWIDTH 7 0
BBX 7 12 0 -3
BITMAP
0800
0C00
1800
1824
2490
2740
3980
3090
6020
0000
0000
0A00
ENDCHAR
STARTCHAR uni1E34
ENCODING 7732
SWIDTH 600 0
DWIDTH 7 0
BBX 7 10 0 -2
BITMAP
0C18
1860
1980
2B40
2980
30C0
6060
6030
0000
1F80
ENDCHAR
STARTCHAR uni1E35
ENCODING 7733
SWIDTH 600 0
DWIDTH 7 0
BBX 7 11 0 -2
BITMAP
0800
0C00
1800
1824
2490
2740
3980
3090
6020
0000
2F80
ENDCHAR
STARTCHAR uni1E36
ENCODING 7734
SWIDTH 600 0
DWIDTH 7 0
BBX 5 11 1 -3
BITMAP
1800
2400
2400
3000
2000
6000
9000
BFC0
0000
0000
1800
ENDCHAR
STARTCHAR uni1E37
ENCODING 7735
SWIDTH 600 0
DWIDTH 7 0
BBX 5 12 1 -3
BITMAP
7E00
0500
0900
0C00
0800
1800
2400
2400
1F40
0000
0000
0C00
ENDCHAR
STARTCHAR uni1E38
ENCODING 7736
SWIDTH 600 0
DWIDTH 7 0
BBX 5 13 1 -3
BITMAP
3F00
0000
1800
2400
2400
3000
2000
6000
9000
BFC0
0000
0000
1800
ENDCHAR
STARTCHAR uni1E39
ENCODING 7737
SWIDTH 600 0
DWIDTH 7 0
BBX 5 14 1 -3
BITMAP
0FC0
0000
7E00
0500
0900
0C00
0800
1800
2400
2400
1F40
0000
0000
0C00
ENDCHAR
STARTCHAR uni1E3A
ENCODING 7738
SWIDTH 600 0
DWIDTH 7 0
BBX 5 10 1 -2
BITMAP
1800
2400
2400
3000
2000
6000
9000
BFC0
0000
7F00
ENDCHAR
STARTCHAR uni1E3B
ENCODING 7739
SWIDTH 600 0
DWIDTH 7 0
BBX 5 11 1 -2
BITMAP
7E00
0500
0900
0C00
0800
1800
2400
2400
1F40
0000
3F00
ENDCHAR
STARTCHAR uni1E3E
ENCODING 7742
SWIDTH 600 0
DWIDTH 7 0
BBX 7 10 0 0
BITMAP
0020
0090
1C1C
2C28
2968
3594
2664
6230
9020
8060
ENDCHAR
STARTCHAR uni1E3F
ENCODING 7743
SWIDTH 600 0
DWIDTH 7 0
BBX 7 9 0 0
BITMAP
0020
0080
0000
2B78
3698
6218
9324
9624
C530
ENDCHAR
STARTCHAR uni1E40
ENCODING 7744
SWIDTH 600 0
DWIDTH 7 0
BBX 7 10 0 0
BITMAP
0090
0000
1C1C
2C28
2968
3594
2664
6230
9020
8060
ENDCHAR
STARTCHAR uni1E41
ENCODING 7745
SWIDTH 600 0
DWIDTH 7 0
BBX 7 8 0 0
BITMAP
00C0
0000
2B78
3698
6218
9324
9624
C530
ENDCHAR
STARTCHAR uni1E42
ENCODING 7746
SWIDTH 600 0
DWIDTH 7 0
BBX 7 11 0 -3
BITMAP
1C1C
2C28
2968
3594
2664
6230
9020
8060
0000
0000
0C00
ENDCHAR
STARTCHAR uni1E43
ENCODING 7747
SWIDTH 600 0
DWIDTH 7 0
BBX 7 9 0 -3
BITMAP
2B78
3698
6218
9324
9624
C530
0000
0000
0D00
ENDCHAR
STARTCHAR uni1E44
ENCODING 7748
SWIDTH 600 0
DWIDTH 7 0
BBX 7 10 0 0
BITMAP
0090
0000
1C0C
1918
2618
2224
3260
61B0
50A0
90A0
ENDCHAR
STARTCHAR uni1E45
ENCODING 7749
SWIDTH 600 0
DWIDTH 7 0
BBX 7 8 0 0
BITMAP
00C0
0000
26F0
2924
3024
3030
6020
5060
ENDCHAR
STARTCHAR uni1E46
ENCODING 7750
SWIDTH 600 0
DWIDTH 7 0
BBX 7 11 0 -3
BITMAP
1C0C
1918
2618
2224
3260
61B0
50A0
90A0
0000
0000
0D00
ENDCHAR
STARTCHAR uni1E47
ENCODING 7751
SWIDTH 600 0
DWIDTH 7 0
BBX 7 9 0 -3
BITMAP
26F0
2924
3024
3030
6020
5060
0000
0000
0900
ENDCHAR
STARTCHAR uni1E48
ENCODING 7752
SWIDTH 600 0
DWIDTH 7 0
BBX 7 10 0 -2
BITMAP
1C0C
1918
2618
2224
3260
61B0
50A0
90A0
0000
3F40
ENDCHAR
STARTCHAR uni1E49
ENCODING 7753
SWIDTH 600 0
DWIDTH 7 0
BBX 7 8 0 -2
BITMAP
26F0
2924
3024
3030
6020
5060
0000
2F40
ENDCHAR
STARTCHAR uni1E52
ENCODING 7762
SWIDTH 600 0
DWIDTH 7 0
BBX 7 13 0 0
BITMAP
0020
0050
0000
03F4
0000
07E0
1824
3018
6018
5018
6024
70A0
1F80
ENDCHAR
STARTCHAR uni1E53
ENCODING 7763
SWIDTH 600 0
DWIDTH 7 0
BBX 7 11 0 0
BITMAP
0020
0040
0000
07F0
0000
0BD0
2870
6024
6024
70A0
1F80
ENDCHAR
STARTCHAR uni1E58
ENCODING 7768
SWIDTH 600 0
DWIDTH 7 0
BBX 7 10 0 0
BITMAP
0080
0000
0FE0
1824
2418
2474
3F90
3180
60C0
5090
ENDCHAR
STARTCHAR uni1E59
ENCODING 7769
SWIDTH 600 0
DWIDTH 7 0
BBX 6 8 1 0
BITMAP
0240
0000
22D0
3900
3000
6000
9000
9000
ENDCHAR
STARTCHAR uni1E5A
ENCODING 7770
SWIDTH 600 0
DWIDTH 7 0
BBX 7 11 0 -3
BITMAP
0FE0
1824
2418
2474
3F90
3180
60C0
5090
0000
0000
0900
ENDCHAR
STARTCHAR uni1E5B
ENCODING 7771
SWIDTH 600 0
DWIDTH 7 0
BBX 7 9 0 -3
BITMAP
08B4
0E40
0C00
1800
2400
2400
0000
0000
6000
ENDCHAR
STARTCHAR uni1E5C
ENCODING 7772
SWIDTH 600 0
DWIDTH 7 0
BBX 7 13 0 -3
BITMAP
03F4
0000
0FE0
1824
2418
2474
3F90
3180
60C0
5090
0000
0000
0900
ENDCHAR
STARTCHAR uni1E5D
ENCODING 7773
SWIDTH 600 0
DWIDTH 7 0
BBX 7 11 0 -3
BITMAP
02F4
0000
08B4
0E40
0C00
1800
2400
2400
0000
0000
6000
ENDCHAR
STARTCHAR uni1E5E
ENCODING 7774
SWIDTH 600 0
DWIDTH 7 0
BBX 7 10 0 -2
BITMAP
0FE0
1824
2418
2474
3F90
3180
60C0
5090
0000
2F40
ENDCHAR
STARTCHAR uni1E5F
ENCODING 7775
SWIDTH 600 0
DWIDTH 7 0
BBX 8 8 -1 -2
BITMAP
022D
0390
0300
0600
0900
0900
0000
7F00
ENDCHAR
STARTCHAR uni1E60
ENCODING 7776
SWIDTH 600 0
DWIDTH 7 0
BBX 7 10 0 0
BITMAP
0080
0000
07E0
0C24
1800
0A40
01D0
0060
60A0
1F80
ENDCHAR
STARTCHAR uni1E61
ENCODING 7777
SWIDTH 600 0
DWIDTH 7 0
BBX 5 8 1 0
BITMAP
0700
0000
2F40
6180
2800
0640
9180
7E00
ENDCHAR
STARTCHAR uni1E62
ENCODING 7778
SWIDTH 600 0
DWIDTH 7 0
BBX 7 11 0 -3
BITMAP
07E0
0C24
1800
0A40
01D0
0060
60A0
1F80
0000
0000
0900
ENDCHAR
STARTCHAR uni1E63
ENCODING 7779
SWIDTH 600 0
DWIDTH 7 0
BBX 5 9 1 -3
BITMAP
2F40
6180
2800
0640
9180
7E00
0000
0000
2400
ENDCHAR
STARTCHAR uni1E6C
ENCODING 7788
SWIDTH 600 0
DWIDTH 7 0
BBX 7 11 1 -3
BITMAP
BFF4
0600
0900
0900
0C00
0800
1800
2400
0000
0000
3000
ENDCHAR
STARTCHAR uni1E6D
ENCODING 7789
SWIDTH 600 0
DWIDTH 7 0
BBX 6 11 1 -3
BITMAP
0800
0800
FFD0
2400
2000
3000
3040
2F40
0000
0000
1C00
ENDCHAR
STARTCHAR uni1E6E
ENCODING 7790
SWIDTH 600 0
DWIDTH 7 0
BBX 7 10 1 -2
BITMAP
BFF4
0600
0900
0900
0C00
0800
1800
2400
0000
FC00
ENDCHAR
STARTCHAR uni1E6F
ENCODING 7791
SWIDTH 600 0
DWIDTH 7 0
BBX 6 10 1 -2
BITMAP
0800
0800
FFD0
2400
2000
3000
3040
2F40
0000
3F00
ENDCHAR
STARTCHAR uni1E7E
ENCODING 7806
SWIDTH 600 0
DWIDTH 7 0
BBX 7 11 1 -3
BITMAP
5024
6060
6090
6180
2240
3600
3900
2800
0000
0000
3000
ENDCHAR
STARTCHAR uni1E7F
ENCODING 7807
SWIDTH 600 0
DWIDTH 7 0
BBX 6 9 1 -3
BITMAP
C060
9080
5180
6200
2900
2800
0000
0000
3000
ENDCHAR
STARTCHAR Wgrave
ENCODING 7808
SWIDTH 600 0
DWIDTH 7 0
BBX 8 10 0 0
BITMAP
0240
0080
3006
3009
214C
2258
25A4
68A0
64A0
70D0
ENDCHAR
STARTCHAR wgrave
ENCODING 7809
SWIDTH 600 0
DWIDTH 7 0
BBX 8 10 0 0
BITMAP
0200
0180
0080
0000
5149
5348
5654
59A0
69A0
70D0
ENDCHAR
STARTCHAR Wacute
ENCODING 7810
SWIDTH 600 0
DWIDTH 7 0
BBX 8 10 0 0
BITMAP
0020
0090
3006
3009
214C
2258
25A4
68A0
64A0
70D0
ENDCHAR
STARTCHAR wacute
ENCODING 7811
SWIDTH 600 0
DWIDTH 7 0
BBX 8 9 0 0
BITMAP
0060
0180
0000
5149
5348
5654
59A0
69A0
70D0
ENDCHAR
STARTCHAR Wdieresis
ENCODING 7812
SWIDTH 600 0
DWIDTH 7 0
BBX 8 10 0 0
BITMAP
0224
0000
3006
3009
214C
2258
25A4
68A0
64A0
70D0
ENDCHAR
STARTCHAR wdieresis
ENCODING 7813
SWIDTH 600 0
DWIDTH 7 0
BBX 8 8 0 0
BITMAP
0620
0000
5149
5348
5654
59A0
69A0
70D0
ENDCHAR
STARTCHAR uni1E8E
ENCODING 7822
SWIDTH 600 0
DWIDTH 7 0
BBX 7 10 1 0
BITMAP
0200
0000
9024
60A0
3180
2640
1E00
0C00
1800
2400
ENDCHAR
STARTCHAR uni1E8F
ENCODING 7823
SWIDTH 600 0
DWIDTH 7 0
BBX 8 10 -1 -2
BITMAP
0060
0000
0806
0908
0624
0220
0280
0240
0600
7800
ENDCHAR
STARTCHAR uni1E90
ENCODING 7824
SWIDTH 600 0
DWIDTH 7 0
BBX 7 10 0 0
BITMAP
01E0
0220
1FFC
0024
0090
0280
0600
1800
2000
BFF0
ENDCHAR
STARTCHAR uni1E91
ENCODING 7825
SWIDTH 600 0
DWIDTH 7 0
BBX 7 9 0 0
BITMAP
01D0
0520
0000
2FF4
0060
0280
0900
2400
BFE0
ENDCHAR
STARTCHAR uni1E92
ENCODING 7826
SWIDTH 600 0
DWIDTH 7 0
BBX 7 11 0 -3
BITMAP
1FFC
0024
0090
0280
0600
1800
2000
BFF0
0000
0000
0900
ENDCHAR
STARTCHAR uni1E93
ENCODING 7827
SWIDTH 600 0
DWIDTH 7 0
BBX 7 9 0 -3
BITMAP
2FF4
0060
0280
0900
2400
BFE0
0000
0000
0900
ENDCHAR
STARTCHAR uni1E94
ENCODING 7828
SWIDTH 600 0
DWIDTH 7 0
BBX 7 10 0 -2
BITMAP
1FFC
0024
0090
0280
0600
1800
2000
BFF0
0000
2F40
ENDCHAR
STARTCHAR uni1E95
ENCODING 7829
SWIDTH 600 0
DWIDTH 7 0
BBX 7 8 0 -2
BITMAP
2FF4
0060
0280
0900
2400
BFE0
0000
2F40
ENDCHAR
STARTCHAR uni1E96
ENCODING 7830
SWIDTH 600 0
DWIDTH 7 0
BBX 7 11 0 -2
BITMAP
0C00
0800
1800
26F0
2924
3024
3030
6020
5060
0000
2F40
ENDCHAR
STARTCHAR uni1E97
ENCODING 7831
SWIDTH 600 0
DWIDTH 7 0
BBX 6 10 1 0
BITMAP
2540
0000
0800
0800
FFD0
2400
2000
3000
3040
2F40
ENDCHAR
STARTCHAR uni1E9E
ENCODING 7838
SWIDTH 600 0
DWIDTH 7 0
BBX 7 8 0 0
BITMAP
06E0
1D24
2460
31D0
3074
6014
5424
97E0
ENDCHAR
STARTCHAR uni1EA0
ENCODING 7840
SWIDTH 600 0
DWIDTH 7 0
BBX 6 11 0 -3
BITMAP
01C0
0290
0650
0850
1860
3FE0
6030
C030
0000
0000
0900
ENDCHAR
STARTCHAR uni1EA1
ENCODING 7841
SWIDTH 600 0
DWIDTH 7 0
BBX 7 9 0 -3
BITMAP
0BD8
2834
3020
6030
70A0
2E60
0000
0000
0D00
ENDCHAR
STARTCHAR uni1EA2
ENCODING 7842
SWIDTH 600 0
DWIDTH 7 0
BBX 6 11 0 0
BITMAP
00D0
0090
0080
01C0
0290
0650
0850
1860
3FE0
6030
C030
ENDCHAR
STARTCHAR uni1EA3
ENCODING 7843
SWIDTH 600 0
DWIDTH 7 0
BBX 7 10 0 0
BITMAP
00D0
0060
0080
0000
0BD8
2834
3020
6030
70A0
2E60
ENDCHAR
STARTCHAR uni1EA4
ENCODING 7844
SWIDTH 600 0
DWIDTH 7 0
BBX 7 10 0 0
BITMAP
01A4
0000
01C0
0290
0650
0850
1860
3FE0
6030
C030
ENDCHAR
STARTCHAR uni1EA5
ENCODING 7845
SWIDTH 600 0
DWIDTH 7 0
BBX 8 10 0 0
BITMAP
0005
01D8
0220
0000
0BD8
2834
3020
6030
70A0
2E60
ENDCHAR
STARTCHAR uni1EA6
ENCODING 7846
SWIDTH 600 0
DWIDTH 7 0
BBX 6 10 0 0
BITMAP
06A0
0000
01C0
0290
0650
0850
1860
3FE0
6030
C030
ENDCHAR
STARTCHAR uni1EA7
ENCODING 7847
SWIDTH 600 0
DWIDTH 7 0
BBX 7 10 0 0
BITMAP
0800
05D0
0220
0000
0BD8
2834
3020
6030
70A0
2E60
ENDCHAR
STARTCHAR uni1EA8
ENCODING 7848
SWIDTH 600 0
DWIDTH 7 0
BBX 8 12 0 0
BITMAP
000C
0009
01A8
0000
01C0
0290
0650
0850
1860
3FE0
6030
C030
ENDCHAR
STARTCHAR uni1EA9
ENCODING 7849
SWIDTH 600 0
DWIDTH 7 0
BBX 8 10 0 0
BITMAP
000C
01D9
0228
0000
0BD8
2834
3020
6030
70A0
2E60
ENDCHAR
STARTCHAR uni1EAA
ENCODING 7850
SWIDTH 600 0
DWIDTH 7 0
BBX 7 12 0 0
BITMAP
01D8
0274
01A0
0000
01C0
0290
0650
0850
1860
3FE0
6030
C030
ENDCHAR
STARTCHAR uni1EAB
ENCODING 7851
SWIDTH 600 0
DWIDTH 7 0
BBX 7 10 0 0
BITMAP
0194
0270
01A0
0000
0BD8
2834
3020
6030
70A0
2E60
ENDCHAR
STARTCHAR uni1EAC
ENCODING 7852
SWIDTH 600 0
DWIDTH 7 0
BBX 7 13 0 -3
BITMAP
01A0
0214
01C0
0290
0650
0850
1860
3FE0
6030
C030
0000
0000
0900
ENDCHAR
STARTCHAR uni1EAD
ENCODING 7853
SWIDTH 600 0
DWIDTH 7 0
BBX 7 12 0 -3
BITMAP
01A0
0220
0000
0BD8
2834
3020
6030
70A0
2E60
0000
0000
0D00
ENDCHAR
STARTCHAR uni1EAE
ENCODING 7854
SWIDTH 600 0
DWIDTH 7 0
BBX 7 12 0 0
BITMAP
0020
0050
0214
01E0
01C0
0290
0650
0850
1860
3FE0
6030
C030
ENDCHAR
STARTCHAR uni1EAF
ENCODING 7855
SWIDTH 600 0
DWIDTH 7 0
BBX 7 11 0 0
BITMAP
0020
0050
0214
02E0
0000
0BD8
2834
3020
6030
70A0
2E60
ENDCHAR
STARTCHAR uni1EB0
ENCODING 7856
SWIDTH 600 0
DWIDTH 7 0
BBX 7 12 0 0
BITMAP
0080
0040
0214
01E0
01C0
0290
0650
0850
1860
3FE0
6030
C030
ENDCHAR
STARTCHAR uni1EB1
ENCODING 7857
SWIDTH 600 0
DWIDTH 7 0
BBX 7 11 0 0
BITMAP
0080
0080
0214
02E0
0000
0BD8
2834
3020
6030
70A0
2E60
ENDCHAR
STARTCHAR uni1EB2
ENCODING 7858
SWIDTH 600 0
DWIDTH 7 0
BBX 7 13 0 0
BITMAP
0090
0020
0050
0214
01E0
01C0
0290
0650
0850
1860
3FE0
6030
C030
ENDCHAR
STARTCHAR uni1EB3
ENCODING 7859
SWIDTH 600 0
DWIDTH 7 0
BBX 7 12 0 0
BITMAP
0090
0060
0090
0214
02E0
0000
0BD8
2834
3020
6030
70A0
2E60
ENDCHAR
STARTCHAR uni1EB4
ENCODING 7860
SWIDTH 600 0
DWIDTH 7 0
BBX 7 12 0 0
BITMAP
01D8
0274
0214
01E0
01C0
0290
0650
0850
1860
3FE0
6030
C030
ENDCHAR
STARTCHAR uni1EB5
ENCODING 7861
SWIDTH 600 0
DWIDTH 7 0
BBX 7 10 0 0
BITMAP
0194
0374
02E0
0000
0BD8
2834
3020
6030
70A0
2E60
ENDCHAR
STARTCHAR uni1EB6
ENCODING 7862
SWIDTH 600 0
DWIDTH 7 0
BBX 7 13 0 -3
BITMAP
0214
02E0
01C0
0290
0650
0850
1860
3FE0
6030
C030
0000
0000
0900
ENDCHAR
STARTCHAR uni1EB7
ENCODING 7863
SWIDTH 600 0
DWIDTH 7 0
BBX 7 12 0 -3
BITMAP
0214
02E0
0000
0BD8
2834
3020
6030
70A0
2E60
0000
0000
0D00
ENDCHAR
STARTCHAR uni1EB8
ENCODING 7864
SWIDTH 600 0
DWIDTH 7 0
BBX 7 11 0 -3
BITMAP
0BFC
0C00
1800
1FE0
2400
2000
3000
7FE0
0000
0000
0A00
ENDCHAR
STARTCHAR uni1EB9
ENCODING 7865
SWIDTH 600 0
DWIDTH 7 0
BBX 7 9 0 -3
BITMAP
0BE0
2424
3FF4
6000
3450
1F80
0000
0000
0900
ENDCHAR
STARTCHAR uni1EBA
ENCODING 7866
SWIDTH 600 0
DWIDTH 7 0
BBX 7 11 0 0
BITMAP
00A0
0020
0090
0BFC
0C00
1800
1FE0
2400
2000
3000
7FE0
ENDCHAR
STARTCHAR uni1EBB
ENCODING 7867
SWIDTH 600 0
DWIDTH 7 0
BBX 7 10 0 0
BITMAP
00D0
0090
0080
0000
0BE0
2424
3FF4
6000
3450
1F80
ENDCHAR
STARTCHAR uni1EBC
ENCODING 7868
SWIDTH 600 0
DWIDTH 7 0
BBX 8 10 0 0
BITMAP
02D9
0238
0BFC
0C00
1800
1FE0
2400
2000
3000
7FE0
ENDCHAR
STARTCHAR uni1EBD
ENCODING 7869
SWIDTH 600 0
DWIDTH 7 0
BBX 7 9 0 0
BITMAP
0288
0574
0000
0BE0
2424
3FF4
6000
3450
1F80
ENDCHAR
STARTCHAR uni1EBE
ENCODING 7870
SWIDTH 600 0
DWIDTH 7 0
BBX 8 10 0 0
BITMAP
00A5
0000
0BFC
0C00
1800
1FE0
2400
2000
3000
7FE0
ENDCHAR
STARTCHAR uni1EBF
ENCODING 7871
SWIDTH 600 0
DWIDTH 7 0
BBX 8 10 0 0
BITMAP
0005
01D8
0220
0000
0BE0
2424
3FF4
6000
3450
1F80
ENDCHAR
STARTCHAR uni1EC0
ENCODING 7872
SWIDTH 600 0
DWIDTH 7 0
BBX 7 10 0 0
BITMAP
02A4
0000
0BFC
0C00
1800
1FE0
2400
2000
3000
7FE0
ENDCHAR
STARTCHAR uni1EC1
ENCODING 7873
SWIDTH 600 0
DWIDTH 7 0
BBX 7 10 0 0
BITMAP
0800
09D0
0220
0000
0BE0
2424
3FF4
6000
3450
1F80
ENDCHAR
STARTCHAR uni1EC2
ENCODING 7874
SWIDTH 600 0
DWIDTH 7 0
BBX 8 12 0 0
BITMAP
0009
0006
00A9
0000
0BFC
0C00
1800
1FE0
2400
2000
3000
7FE0
ENDCHAR
STARTCHAR uni1EC3
ENCODING 7875
SWIDTH 600 0
DWIDTH 7 0
BBX 7 10 0 0
BITMAP
0018
01D8
0228
0000
0BE0
2424
3FF4
6000
3450
1F80
ENDCHAR
STARTCHAR uni1EC4
ENCODING 7876
SWIDTH 600 0
DWIDTH 7 0
BBX 7 12 0 0
BITMAP
00D8
0168
00A4
0000
0BFC
0C00
1800
1FE0
2400
2000
3000
7FE0
ENDCHAR
STARTCHAR uni1EC5
ENCODING 7877
SWIDTH 600 0
DWIDTH 7 0
BBX 7 10 0 0
BITMAP
0194
0270
0190
0000
0BE0
2424
3FF4
6000
3450
1F80
ENDCHAR
STARTCHAR uni1EC6
ENCODING 7878
SWIDTH 600 0
DWIDTH 7 0
BBX 7 13 0 -3
BITMAP
00B0
0248
0BFC
0C00
1800
1FE0
2400
2000
3000
7FE0
0000
0000
0A00
ENDCHAR
STARTCHAR uni1EC7
ENCODING 7879
SWIDTH 600 0
DWIDTH 7 0
BBX 7 12 0 -3
BITMAP
01D0
0620
0000
0BE0
2424
3FF4
6000
3450
1F80
0000
0000
0900
ENDCHAR
STARTCHAR uni1EC8
ENCODING 7880
SWIDTH 600 0
DWIDTH 7 0
BBX 7 11 0 0
BITMAP
00D0
0090
0080
0FF8
0180
0240
0240
0300
0200
0600
7FD0
ENDCHAR
STARTCHAR uni1EC9
ENCODING 7881
SWIDTH 600 0
DWIDTH 7 0
BBX 5 10 1 0
BITMAP
0600
0200
0600
0000
BD00
0800
0800
1800
1800
0F40
ENDCHAR
STARTCHAR uni1ECA
ENCODING 7882
SWIDTH 600 0
DWIDTH 7 0
BBX 7 11 0 -3
BITMAP
0FF8
0180
0240
0240
0300
0200
0600
7FD0
0000
0000
0C00
ENDCHAR
STARTCHAR uni1ECB
ENCODING 7883
SWIDTH 600 0
DWIDTH 7 0
BBX 5 11 1 -3
BITMAP
0600
0000
BD00
0800
0800
1800
1800
0F40
0000
0000
0D00
ENDCHAR
STARTCHAR uni1ECC
ENCODING 7884
SWIDTH 600 0
DWIDTH 7 0
BBX 7 11 0 -3
BITMAP
07E0
1824
3018
6018
5018
6024
70A0
1F80
0000
0000
0C00
ENDCHAR
STARTCHAR uni1ECD
ENCODING 7885
SWIDTH 600 0
DWIDTH 7 0
BBX 7 9 0 -3
BITMAP
0BD0
2870
6024
6024
70A0
1F80
0000
0000
0C00
ENDCHAR
STARTCHAR uni1ECE
ENCODING 7886
SWIDTH 600 0
DWIDTH 7 0
BBX 7 11 0 0
BITMAP
00D0
0090
0080
07E0
1824
3018
6018
5018
6024
70A0
1F80
ENDCHAR
STARTCHAR uni1ECF
ENCODING 7887
SWIDTH 600 0
DWIDTH 7 0
BBX 7 10 0 0
BITMAP
01D0
0090
0080
0000
0BD0
2870
6024
6024
70A0
1F80
ENDCHAR
STARTCHAR uni1ED0
ENCODING 7888
SWIDTH 600 0
DWIDTH 7 0
BBX 7 10 0 0
BITMAP
01A4
0000
07E0
1824
3018
6018
5018
6024
70A0
1F80
ENDCHAR
STARTCHAR uni1ED1
ENCODING 7889
SWIDTH 600 0
DWIDTH 7 0
BBX 7 10 0 0
BITMAP
0008
01D4
0220
0000
0BD0
2870
6024
6024
70A0
1F80
ENDCHAR
STARTCHAR uni1ED2
ENCODING 7890
SWIDTH 600 0
DWIDTH 7 0
BBX 7 10 0 0
BITMAP
06A0
0000
07E0
1824
3018
6018
5018
6024
70A0
1F80
ENDCHAR
STARTCHAR uni1ED3
ENCODING 7891
SWIDTH 600 0
DWIDTH 7 0
BBX 7 10 0 0
BITMAP
1800
09D0
0220
0000
0BD0
2870
6024
6024
70A0
1F80
ENDCHAR
STARTCHAR uni1ED4
ENCODING 7892
SWIDTH 600 0
DWIDTH 7 0
BBX 8 12 0 0
BITMAP
000C
0009
01A8
0000
07E0
1824
3018
6018
5018
6024
70A0
1F80
ENDCHAR
STARTCHAR uni1ED5
ENCODING 7893
SWIDTH 600 0
DWIDTH 7 0
BBX 7 10 0 0
BITMAP
0018
01D8
0228
0000
0BD0
2870
6024
6024
70A0
1F80
ENDCHAR
STARTCHAR uni1ED6
ENCODING 7894
SWIDTH 600 0
DWIDTH 7 0
BBX 7 12 0 0
BITMAP
01D8
0274
01A0
0000
07E0
1824
3018
6018
5018
6024
70A0
1F80
ENDCHAR
STARTCHAR uni1ED7
ENCODING 7895
SWIDTH 600 0
DWIDTH 7 0
BBX 7 10 0 0
BITMAP
0294
02B0
0190
0000
0BD0
2870
6024
6024
70A0
1F80
ENDCHAR
STARTCHAR uni1ED8
ENCODING 7896
SWIDTH 600 0
DWIDTH 7 0
BBX 7 13 0 -3
BITMAP
01A0
0214
07E0
1824
3018
6018
5018
6024
70A0
1F80
0000
0000
0C00
ENDCHAR
STARTCHAR uni1ED9
ENCODING 7897
SWIDTH 600 0
DWIDTH 7 0
BBX 7 12 0 -3
BITMAP
01D0
0520
0000
0BD0
2870
6024
6024
70A0
1F80
0000
0000
0C00
ENDCHAR
STARTCHAR uni1EDA
ENCODING 7898
SWIDTH 600 0
DWIDTH 7 0
BBX 8 10 0 0
BITMAP
0026
0096
07E8
1824
3018
6018
5018
6024
70A0
1F80
ENDCHAR
STARTCHAR uni1EDB
ENCODING 7899
SWIDTH 600 0
DWIDTH 7 0
BBX 7 9 0 0
BITMAP
0060
0188
0008
0BE4
2870
6024
6024
70A0
1F80
ENDCHAR
STARTCHAR uni1EDC
ENCODING 7900
SWIDTH 600 0
DWIDTH 7 0
BBX 8 10 0 0
BITMAP
0146
0086
07E8
1824
3018
6018
5018
6024
70A0
1F80
ENDCHAR
STARTCHAR uni1EDD
ENCODING 7901
SWIDTH 600 0
DWIDTH 7 0
BBX 7 10 0 0
BITMAP
0200
0180
0088
0008
0BE4
2870
6024
6024
70A0
1F80
ENDCHAR
STARTCHAR uni1EDE
ENCODING 7902
SWIDTH 600 0
DWIDTH 7 0
BBX 8 11 0 0
BITMAP
00D0
0096
0086
07E8
1824
3018
6018
5018
6024
70A0
1F80
ENDCHAR
STARTCHAR uni1EDF
ENCODING 7903
SWIDTH 600 0
DWIDTH 7 0
BBX 7 10 0 0
BITMAP
01D0
0090
0088
0008
0BE4
2870
6024
6024
70A0
1F80
ENDCHAR
STARTCHAR uni1EE0
ENCODING 7904
SWIDTH 600 0
DWIDTH 7 0
BBX 8 10 0 0
BITMAP
079A
08A6
07E8
1824
3018
6018
5018
6024
70A0
1F80
ENDCHAR
STARTCHAR uni1EE1
ENCODING 7905
SWIDTH 600 0
DWIDTH 7 0
BBX 7 9 0 0
BITMAP
0A60
08A8
0008
0BE4
2870
6024
6024
70A0
1F80
ENDCHAR
STARTCHAR uni1EE2
ENCODING 7906
SWIDTH 600 0
DWIDTH 7 0
BBX 8 13 0 -3
BITMAP
0006
0006
07E8
1824
3018
6018
5018
6024
70A0
1F80
0000
0000
0C00
ENDCHAR
STARTCHAR uni1EE3
ENCODING 7907
SWIDTH 600 0
DWIDTH 7 0
BBX 7 11 0 -3
BITMAP
0008
0008
0BE4
2870
6024
6024
70A0
1F80
0000
0000
0C00
ENDCHAR
STARTCHAR uni1EE4
ENCODING 7908
SWIDTH 600 0
DWIDTH 7 0
BBX 7 11 0 -3
BITMAP
180C
2408
2418
3024
2020
6030
34A0
1F80
0000
0000
0C00
ENDCHAR
STARTCHAR uni1EE5
ENCODING 7909
SWIDTH 600 0
DWIDTH 7 0
BBX 7 9 0 -3
BITMAP
2414
2024
3030
6030
61A0
3E60
0000
0000
0D00
ENDCHAR
STARTCHAR uni1EE6
ENCODING 7910
SWIDTH 600 0
DWIDTH 7 0
BBX 7 11 0 0
BITMAP
00D0
0090
0080
180C
2408
2418
3024
2020
6030
34A0
1F80
ENDCHAR
STARTCHAR uni1EE7
ENCODING 7911
SWIDTH 600 0
DWIDTH 7 0
BBX 7 10 0 0
BITMAP
01C0
0090
0080
0000
2414
2024
3030
6030
61A0
3E60
ENDCHAR
STARTCHAR uni1EE8
ENCODING 7912
SWIDTH 600 0
DWIDTH 7 0
BBX 9 10 0 0
BITMAP
002140
009240
180D00
240800
241800
302400
202400
603000
34A000
1F8000
ENDCHAR
STARTCHAR uni1EE9
ENCODING 7913
SWIDTH 600 0
DWIDTH 7 0
BBX 8 9 0 0
BITMAP
0060
0182
0006
241D
2024
3034
6030
61A0
3E60
ENDCHAR
STARTCHAR uni1EEA
ENCODING 7914
SWIDTH 600 0
DWIDTH 7 0
BBX 9 10 0 0
BITMAP
014140
008240
180D00
240800
241800
302400
202400
603000
34A000
1F8000
ENDCHAR
STARTCHAR uni1EEB
ENCODING 7915
SWIDTH 600 0
DWIDTH 7 0
BBX 8 10 0 0
BITMAP
0200
0180
0082
0006
241D
2024
3034
6030
61A0
3E60
ENDCHAR
STARTCHAR uni1EEC
ENCODING 7916
SWIDTH 600 0
DWIDTH 7 0
BBX 9 11 0 0
BITMAP
00D000
009140
008240
180D00
240800
241800
302400
202400
603000
34A000
1F8000
ENDCHAR
STARTCHAR uni1EED
ENCODING 7917
SWIDTH 600 0
DWIDTH 7 0
BBX 8 10 0 0
BITMAP
01C0
0090
0082
0006
241D
2024
3034
6030
61A0
3E60
ENDCHAR
STARTCHAR uni1EEE
ENCODING 7918
SWIDTH 600 0
DWIDTH 7 0
BBX 9 10 0 0
BITMAP
03C940
057640
180D00
240800
241800
302400
202400
603000
34A000
1F8000
ENDCHAR
STARTCHAR uni1EEF
ENCODING 7919
SWIDTH 600 0
DWIDTH 7 0
BBX 8 9 0 0
BITMAP
0654
08B2
0006
241D
2024
3034
6030
61A0
3E60
ENDCHAR
STARTCHAR uni1EF0
ENCODING 7920
SWIDTH 600 0
DWIDTH 7 0
BBX 9 13 0 -3
BITMAP
000140
000240
180D00
240800
241800
302400
202400
603000
34A000
1F8000
000000
000000
0C0000
ENDCHAR
STARTCHAR uni1EF1
ENCODING 7921
SWIDTH 600 0
DWIDTH 7 0
BBX 8 11 0 -3
BITMAP
0002
0006
241D
2024
3034
6030
61A0
3E60
0000
0000
0D00
ENDCHAR
STARTCHAR Ygrave
ENCODING 7922
SWIDTH 600 0
DWIDTH 7 0
BBX 7 10 1 0
BITMAP
0900
0200
9024
60A0
3180
2640
1E00
0C00
1800
2400
ENDCHAR
STARTCHAR ygrave
ENCODING 7923
SWIDTH 600 0
DWIDTH 7 0
BBX 8 12 -1 -2
BITMAP
0080
0060
0020
0000
0806
0908
0624
0220
0280
0240
0600
7800
ENDCHAR
STARTCHAR uni1EF4
ENCODING 7924
SWIDTH 600 0
DWIDTH 7 0
BBX 7 11 1 -3
BITMAP
9024
60A0
3180
2640
1E00
0C00
1800
2400
0000
0000
3000
ENDCHAR
STARTCHAR uni1EF5
ENCODING 7925
SWIDTH 600 0
DWIDTH 7 0
BBX 8 9 -1 -3
BITMAP
0806
0908
0624
0220
0280
0240
0600
7800
0030
ENDCHAR
STARTCHAR uni1EF6
ENCODING 7926
SWIDTH 600 0
DWIDTH 7 0
BBX 7 11 1 0
BITMAP
0700
0240
0600
9024
60A0
3180
2640
1E00
0C00
1800
2400
ENDCHAR
STARTCHAR uni1EF7
ENCODING 7927
SWIDTH 600 0
DWIDTH 7 0
BBX 8 12 -1 -2
BITMAP
0070
0024
0060
0000
0806
0908
0624
0220
0280
0240
0600
7800
ENDCHAR
STARTCHAR uni1EF8
ENCODING 7928
SWIDTH 600 0
DWIDTH 7 0
BBX 7 10 1 0
BITMAP
0E20
11D0
9024
60A0
3180
2640
1E00
0C00
1800
2400
ENDCHAR
STARTCHAR uni1EF9
ENCODING 7929
SWIDTH 600 0
DWIDTH 7 0
BBX 8 11 -1 -2
BITMAP
0195
022C
0000
0806
0908
0624
0220
0280
0240
0600
7800
ENDCHAR
STARTCHAR uni2007
ENCODING 8199
SWIDTH 600 0
DWIDTH 7 0
BBX 1 1 0 0
BITMAP
00
ENDCHAR
STARTCHAR uni2010
ENCODING 8208
SWIDTH 600 0
DWIDTH 7 0
BBX 5 1 1 3
BITMAP
FFC0
ENDCHAR
STARTCHAR figuredash
ENCODING 8210
SWIDTH 600 0
DWIDTH 7 0
BBX 6 1 0 3
BITMAP
7FF0
ENDCHAR
STARTCHAR endash
ENCODING 8211
SWIDTH 600 0
DWIDTH 7 0
BBX 6 1 0 3
BITMAP
7FF0
ENDCHAR
STARTCHAR emdash
ENCODING 8212
SWIDTH 600 0
DWIDTH 7 0
BBX 7 1 0 3
BITMAP
FFFC
ENDCHAR
STARTCHAR uni2015
ENCODING 8213
SWIDTH 600 0
DWIDTH 7 0
BBX 7 1 0 3
BITMAP
FFFC
ENDCHAR
STARTCHAR uni2016
ENCODING 8214
SWIDTH 600 0
DWIDTH 7 0
BBX 4 12 2 -3
BITMAP
89
89
89
89
89
89
89
89
89
89
89
89
ENDCHAR
STARTCHAR underscoredbl
ENCODING 8215
SWIDTH 600 0
DWIDTH 7 0
BBX 7 2 -1 -3
BITMAP
7FF8
BFF4
ENDCHAR
STARTCHAR quoteleft
ENCODING 8216
SWIDTH 600 0
DWIDTH 7 0
BBX 3 5 3 4
BITMAP
18
60
90
E0
A0
ENDCHAR
STARTCHAR quoteright
ENCODING 8217
SWIDTH 600 0
DWIDTH 7 0
BBX 4 5 2 3
BITMAP
1C
1D
08
28
60
ENDCHAR
STARTCHAR quotesinglbase
ENCODING 8218
SWIDTH 600 0
DWIDTH 7 0
BBX 3 5 2 -4
BITMAP
74
74
24
60
80
ENDCHAR
STARTCHAR quotereversed
ENCODING 8219
SWIDTH 600 0
DWIDTH 7 0
BBX 3 5 2 3
BITMAP
28
38
60
34
18
ENDCHAR
STARTCHAR quotedblleft
ENCODING 8220
SWIDTH 600 0
DWIDTH 7 0
BBX 6 5 1 4
BITMAP
0920
2890
2180
76D0
35C0
ENDCHAR
STARTCHAR quotedblright
ENCODING 8221
SWIDTH 600 0
DWIDTH 7 0
BBX 6 5 1 3
BITMAP
28D0
2CE0
1860
25C0
9240
ENDCHAR
STARTCHAR quotedblbase
ENCODING 8222
SWIDTH 600 0
DWIDTH 7 0
BBX 6 5 1 -4
BITMAP
28D0
2CE0
1860
25C0
9240
ENDCHAR
STARTCHAR dagger
ENCODING 8224
SWIDTH 600 0
DWIDTH 7 0
BBX 4 10 2 -1
BITMAP
08
08
FF
14
20
20
20
60
50
80
ENDCHAR
STARTCHAR daggerdbl
ENCODING 8225
SWIDTH 600 0
DWIDTH 7 0
BBX 5 10 1 -1
BITMAP
0200
0200
3FC0
0500
0800
0800
0800
FF00
1400
2400
ENDCHAR
STARTCHAR bullet
ENCODING 8226
SWIDTH 600 0
DWIDTH 7 0
BBX 5 3 1 2
BITMAP
2E00
7F40
2E00
ENDCHAR
STARTCHAR ellipsis
ENCODING 8230
SWIDTH 600 0
DWIDTH 7 0
BBX 6 2 0 0
BITMAP
DA70
DA70
ENDCHAR
STARTCHAR uni202F
ENCODING 8239
SWIDTH 600 0
DWIDTH 7 0
BBX 1 1 0 0
BITMAP
00
ENDCHAR
STARTCHAR perthousand
ENCODING 8240
SWIDTH 600 0
DWIDTH 7 0
BBX 7 8 0 0
BITMAP
1E00
2200
2218
2E90
1400
79F0
8A60
B5E0
ENDCHAR
STARTCHAR uni2032
ENCODING 8242
SWIDTH 600 0
DWIDTH 7 0
BBX 2 3 3 5
BITMAP
20
20
50
ENDCHAR
STARTCHAR uni2033
ENCODING 8243
SWIDTH 600 0
DWIDTH 7 0
BBX 4 3 2 5
BITMAP
22
22
55
ENDCHAR
STARTCHAR uni2035
ENCODING 8245
SWIDTH 600 0
DWIDTH 7 0
BBX 2 3 3 5
BITMAP
50
20
20
ENDCHAR
STARTCHAR guilsinglleft
ENCODING 8249
SWIDTH 600 0
DWIDTH 7 0
BBX 3 5 2 1
BITMAP
08
20
90
60
20
ENDCHAR
STARTCHAR guilsinglright
ENCODING 8250
SWIDTH 600 0
DWIDTH 7 0
BBX 3 5 2 1
BITMAP
50
20
24
60
80
ENDCHAR
STARTCHAR exclamdbl
ENCODING 8252
SWIDTH 600 0
DWIDTH 7 0
BBX 7 8 0 0
BITMAP
0924
0820
0820
0820
1450
0000
34D0
74D0
ENDCHAR
STARTCHAR uni203D
ENCODING 8253
SWIDTH 600 0
DWIDTH 7 0
BBX 5 8 2 0
BITMAP
7E00
8240
2600
2800
2000
0000
A000
9000
ENDCHAR
STARTCHAR uni203E
ENCODING 8254
SWIDTH 600 0
DWIDTH 7 0
BBX 6 1 1 7
BITMAP
7FF0
ENDCHAR
STARTCHAR uni203F
ENCODING 8255
SWIDTH 600 0
DWIDTH 7 0
BBX 11 2 -3 -3
BITMAP
650164
06FE40
ENDCHAR
STARTCHAR fraction
ENCODING 8260
SWIDTH 600 0
DWIDTH 7 0
BBX 7 7 0 0
BITMAP
0008
0024
0040
0000
1400
6000
8000
ENDCHAR
STARTCHAR uni2047
ENCODING 8263
SWIDTH 600 0
DWIDTH 7 0
BBX 8 8 0 0
BITMAP
2E7C
1349
0608
1820
2050
0000
60D0
A1C0
ENDCHAR
STARTCHAR uni2048
ENCODING 8264
SWIDTH 600 0
DWIDTH 7 0
BBX 7 8 0 0
BITMAP
2E18
1324
0620
1820
2020
0000
6090
A0D0
ENDCHAR
STARTCHAR uni2049
ENCODING 8265
SWIDTH 600 0
DWIDTH 7 0
BBX 8 8 0 0
BITMAP
097C
0C49
0808
1420
1450
0000
70D0
71C0
ENDCHAR
STARTCHAR zero.sups
ENCODING 8304
SWIDTH 600 0
DWIDTH 7 0
BBX 4 5 2 5
BITMAP
2D
62
82
86
78
ENDCHAR
STARTCHAR i.sups
ENCODING 8305
SWIDTH 600 0
DWIDTH 7 0
BBX 4 6 2 4
BITMAP
08
78
04
14
24
1D
ENDCHAR
STARTCHAR four.sups
ENCODING 8308
SWIDTH 600 0
DWIDTH 7 0
BBX 4 5 2 5
BITMAP
08
14
55
BE
08
ENDCHAR
STARTCHAR five.sups
ENCODING 8309
SWIDTH 600 0
DWIDTH 7 0
BBX 4 5 2 5
BITMAP
2F
20
3D
56
78
ENDCHAR
STARTCHAR six.sups
ENCODING 8310
SWIDTH 600 0
DWIDTH 7 0
BBX 4 5 2 5
BITMAP
1E
60
7D
56
3C
ENDCHAR
STARTCHAR seven.sups
ENCODING 8311
SWIDTH 600 0
DWIDTH 7 0
BBX 3 5 3 5
BITMAP
FC
14
20
50
80
ENDCHAR
STARTCHAR eight.sups
ENCODING 8312
SWIDTH 600 0
DWIDTH 7 0
BBX 4 5 2 5
BITMAP
2D
22
3D
95
7C
ENDCHAR
STARTCHAR nine.sups
ENCODING 8313
SWIDTH 600 0
DWIDTH 7 0
BBX 4 5 2 5
BITMAP
2D
62
52
7D
78
ENDCHAR
STARTCHAR parenleft.sups
ENCODING 8317
SWIDTH 600 0
DWIDTH 7 0
BBX 3 7 3 4
BITMAP
14
20
50
90
80
80
50
ENDCHAR
STARTCHAR parenright.sups
ENCODING 8318
SWIDTH 600 0
DWIDTH 7 0
BBX 2 7 3 4
BITMAP
20
20
20
20
20
80
40
ENDCHAR
STARTCHAR n.sups
ENCODING 8319
SWIDTH 600 0
DWIDTH 7 0
BBX 4 5 2 4
BITMAP
2F
62
52
82
41
ENDCHAR
STARTCHAR zero.subs
ENCODING 8320
SWIDTH 600 0
DWIDTH 7 0
BBX 4 5 1 -2
BITMAP
2D
62
82
96
78
ENDCHAR
STARTCHAR one.subs
ENCODING 8321
SWIDTH 600 0
DWIDTH 7 0
BBX 4 5 1 -2
BITMAP
1C
08
08
08
BE
ENDCHAR
STARTCHAR two.subs
ENCODING 8322
SWIDTH 600 0
DWIDTH 7 0
BBX 4 5 1 -2
BITMAP
1D
12
05
14
BD
ENDCHAR
STARTCHAR three.subs
ENCODING 8323
SWIDTH 600 0
DWIDTH 7 0
BBX 4 5 1 -2
BITMAP
2D
16
1C
45
7D
ENDCHAR
STARTCHAR four.subs
ENCODING 8324
SWIDTH 600 0
DWIDTH 7 0
BBX 4 5 1 -2
BITMAP
08
14
55
BE
08
ENDCHAR
STARTCHAR five.subs
ENCODING 8325
SWIDTH 600 0
DWIDTH 7 0
BBX 4 5 1 -2
BITMAP
2F
20
3D
56
7C
ENDCHAR
STARTCHAR six.subs
ENCODING 8326
SWIDTH 600 0
DWIDTH 7 0
BBX 4 5 1 -2
BITMAP
1E
20
7D
56
3D
ENDCHAR
STARTCHAR seven.subs
ENCODING 8327
SWIDTH 600 0
DWIDTH 7 0
BBX 4 5 2 -2
BITMAP
FD
18
20
50
80
ENDCHAR
STARTCHAR eight.subs
ENCODING 8328
SWIDTH 600 0
DWIDTH 7 0
BBX 4 5 1 -2
BITMAP
2E
22
2D
95
7D
ENDCHAR
STARTCHAR nine.subs
ENCODING 8329
SWIDTH 600 0
DWIDTH 7 0
BBX 4 5 1 -2
BITMAP
2D
22
62
7D
78
ENDCHAR
STARTCHAR parenleft.subs
ENCODING 8333
SWIDTH 600 0
DWIDTH 7 0
BBX 3 7 2 -3
BITMAP
14
20
50
50
80
50
50
ENDCHAR
STARTCHAR parenright.subs
ENCODING 8334
SWIDTH 600 0
DWIDTH 7 0
BBX 2 7 2 -3
BITMAP
20
20
20
20
20
80
40
ENDCHAR
STARTCHAR uni0259.sups
ENCODING 8340
SWIDTH 600 0
DWIDTH 7 0
BBX 4 5 2 4
BITMAP
2D
12
BF
86
78
ENDCHAR
STARTCHAR colonmonetary
ENCODING 8353
SWIDTH 600 0
DWIDTH 7 0
BBX 6 10 1 -1
BITMAP
0150
0BD0
29A0
6540
9500
C500
D500
A580
3E00
1400
ENDCHAR
STARTCHAR franc
ENCODING 8355
SWIDTH 600 0
DWIDTH 7 0
BBX 7 8 0 0
BITMAP
0BFC
0800
0C00
1FE0
1800
BF40
2000
3000
ENDCHAR
STARTCHAR lira
ENCODING 8356
SWIDTH 600 0
DWIDTH 7 0
BBX 7 8 0 0
BITMAP
02E0
0A14
0800
2FE0
0900
3FD0
0800
BFE0
ENDCHAR
STARTCHAR uni20A6
ENCODING 8358
SWIDTH 600 0
DWIDTH 7 0
BBX 7 8 0 0
BITMAP
0914
0A24
1620
7FF8
1620
7FF8
2190
20C0
ENDCHAR
STARTCHAR peseta
ENCODING 8359
SWIDTH 600 0
DWIDTH 7 0
BBX 6 8 1 0
BITMAP
2F80
3090
FFF0
6180
7E40
9000
8000
8000
ENDCHAR
STARTCHAR uni20A9
ENCODING 8361
SWIDTH 600 0
DWIDTH 7 0
BBX 7 8 0 0
BITMAP
1448
1588
2694
7FF8
25A0
24A0
2490
25C0
ENDCHAR
STARTCHAR dong
ENCODING 8363
SWIDTH 600 0
DWIDTH 7 0
BBX 7 9 0 0
BITMAP
0024
02FC
0020
0BA0
2460
2490
1F80
0000
7FD0
ENDCHAR
STARTCHAR Euro
ENCODING 8364
SWIDTH 600 0
DWIDTH 7 0
BBX 7 8 0 0
BITMAP
01F4
0A08
1800
7FE0
2400
7FC0
2820
0BD0
ENDCHAR
STARTCHAR uni20AE
ENCODING 8366
SWIDTH 600 0
DWIDTH 7 0
BBX 6 8 1 0
BITMAP
7FF0
0600
0A40
1E00
5E40
6C00
1800
1400
ENDCHAR
STARTCHAR uni20B1
ENCODING 8369
SWIDTH 600 0
DWIDTH 7 0
BBX 7 8 1 0
BITMAP
2F80
3090
FFF4
6590
BAE0
6680
A900
C000
ENDCHAR
STARTCHAR uni20B2
ENCODING 8370
SWIDTH 600 0
DWIDTH 7 0
BBX 6 10 1 -1
BITMAP
0140
0BC0
3450
9000
C000
C3D0
C080
D180
7E40
1400
ENDCHAR
STARTCHAR uni20B4
ENCODING 8372
SWIDTH 600 0
DWIDTH 7 0
BBX 6 8 1 0
BITMAP
0B80
14C0
0080
FFE0
1D00
FFD0
9140
7E00
ENDCHAR
STARTCHAR uni20B5
ENCODING 8373
SWIDTH 600 0
DWIDTH 7 0
BBX 6 10 1 -1
BITMAP
0040
0BD0
2A60
6200
9200
C100
C500
A980
2E40
0800
ENDCHAR
STARTCHAR uni20B8
ENCODING 8376
SWIDTH 600 0
DWIDTH 7 0
BBX 6 8 1 0
BITMAP
7FF0
0000
BFE0
0900
0800
0C00
1800
1400
ENDCHAR
STARTCHAR uni20B9
ENCODING 8377
SWIDTH 600 0
DWIDTH 7 0
BBX 6 8 1 0
BITMAP
3FF0
0140
7FE0
0280
BE00
1800
0C00
0600
ENDCHAR
STARTCHAR uni20BA
ENCODING 8378
SWIDTH 600 0
DWIDTH 7 0
BBX 7 8 0 0
BITMAP
0600
0A50
1E50
1E40
6C14
1820
15A0
2E40
ENDCHAR
STARTCHAR uni20BD
ENCODING 8381
SWIDTH 600 0
DWIDTH 7 0
BBX 7 8 0 0
BITMAP
03F4
060C
0508
0918
7FE0
0C00
BFF0
1800
ENDCHAR
STARTCHAR uni2105
ENCODING 8453
SWIDTH 600 0
DWIDTH 7 0
BBX 7 8 0 0
BITMAP
7800
8408
8060
B400
00B4
1658
9214
41E0
ENDCHAR
STARTCHAR uni2113
ENCODING 8467
SWIDTH 600 0
DWIDTH 7 0
BBX 6 9 1 0
BITMAP
02C0
0990
0C80
1880
1A00
2800
7000
3500
1E00
ENDCHAR
STARTCHAR uni2116
ENCODING 8470
SWIDTH 600 0
DWIDTH 7 0
BBX 9 8 -1 0
BITMAP
0D3000
0D6B40
199980
258E00
268000
229E00
634000
934000
ENDCHAR
STARTCHAR uni2117
ENCODING 8471
SWIDTH 600 0
DWIDTH 7 0
BBX 7 8 0 0
BITMAP
07E0
2818
67D8
4568
8B88
8814
6060
2F80
ENDCHAR
STARTCHAR uni2120
ENCODING 8480
SWIDTH 600 0
DWIDTH 7 0
BBX 7 4 1 4
BITMAP
B214
92A4
65D0
E520
ENDCHAR
STARTCHAR trademark
ENCODING 8482
SWIDTH 600 0
DWIDTH 7 0
BBX 7 4 1 4
BITMAP
FE58
22A8
5294
8510
ENDCHAR
STARTCHAR uni2126
ENCODING 8486
SWIDTH 600 0
DWIDTH 7 0
BBX 8 8 -1 0
BITMAP
01F8
060A
0C03
1802
1406
1808
0824
7D7C
ENDCHAR
STARTCHAR estimated
ENCODING 8494
SWIDTH 600 0
DWIDTH 7 0
BBX 7 8 0 0
BITMAP
0B80
2460
7024
B028
BFFC
7000
2460
0B80
ENDCHAR
STARTCHAR uni2150
ENCODING 8528
SWIDTH 600 0
DWIDTH 7 0
BBX 7 8 0 0
BITMAP
6400
1408
2024
2040
00F8
1420
6050
8080
ENDCHAR
STARTCHAR uni2151
ENCODING 8529
SWIDTH 600 0
DWIDTH 7 0
BBX 7 8 0 0
BITMAP
6400
1408
2024
2040
00F0
1554
61F4
82E0
ENDCHAR
STARTCHAR uni2152
ENCODING 8530
SWIDTH 600 0
DWIDTH 7 0
BBX 7 8 0 0
BITMAP
1D00
0900
0818
0590
14A0
7660
1620
21D0
ENDCHAR
STARTCHAR onethird
ENCODING 8531
SWIDTH 600 0
DWIDTH 7 0
BBX 7 8 0 0
BITMAP
6400
1408
2024
2040
00B4
1464
61A0
81F0
ENDCHAR
STARTCHAR twothirds
ENCODING 8532
SWIDTH 600 0
DWIDTH 7 0
BBX 7 8 0 0
BITMAP
7800
4808
5024
F840
00B4
1464
61A0
81F0
ENDCHAR
STARTCHAR uni2155
ENCODING 8533
SWIDTH 600 0
DWIDTH 7 0
BBX 7 8 0 0
BITMAP
6400
1408
2024
2040
00F4
14F0
6164
81E0
ENDCHAR
STARTCHAR uni2156
ENCODING 8534
SWIDTH 600 0
DWIDTH 7 0
BBX 7 8 0 0
BITMAP
7800
4808
5024
F840
00F4
14F0
6164
81E0
ENDCHAR
STARTCHAR uni2157
ENCODING 8535
SWIDTH 600 0
DWIDTH 7 0
BBX 7 8 0 0
BITMAP
3800
0808
7424
B840
00F4
14F0
6164
81E0
ENDCHAR
STARTCHAR uni2158
ENCODING 8536
SWIDTH 600 0
DWIDTH 7 0
BBX 7 8 0 0
BITMAP
1000
5808
FC24
1440
00F4
14F0
6164
81E0
ENDCHAR
STARTCHAR uni2159
ENCODING 8537
SWIDTH 600 0
DWIDTH 7 0
BBX 7 8 0 0
BITMAP
6400
1408
2024
2040
00B4
15F4
6264
81E0
ENDCHAR
STARTCHAR uni215A
ENCODING 8538
SWIDTH 600 0
DWIDTH 7 0
BBX 7 8 0 0
BITMAP
7C00
B808
4824
B440
00B4
15F4
6264
81E0
ENDCHAR
STARTCHAR oneeighth
ENCODING 8539
SWIDTH 600 0
DWIDTH 7 0
BBX 7 8 0 0
BITMAP
6400
1408
2024
2040
00B4
1494
60F0
81F0
ENDCHAR
STARTCHAR threeeighths
ENCODING 8540
SWIDTH 600 0
DWIDTH 7 0
BBX 7 8 0 0
BITMAP
3800
0808
7424
B840
00B4
1494
60F0
81F0
ENDCHAR
STARTCHAR fiveeighths
ENCODING 8541
SWIDTH 600 0
DWIDTH 7 0
BBX 7 8 0 0
BITMAP
7C00
B808
4824
B440
00B4
1494
60F0
81F0
ENDCHAR
STARTCHAR seveneighths
ENCODING 8542
SWIDTH 600 0
DWIDTH 7 0
BBX 7 8 0 0
BITMAP
BD00
0808
2024
6040
00B4
1494
60F0
81F0
ENDCHAR
STARTCHAR uni2189
ENCODING 8585
SWIDTH 600 0
DWIDTH 7 0
BBX 7 8 0 0
BITMAP
7C00
8508
8924
B440
00B4
1464
61A0
81F0
ENDCHAR
STARTCHAR uni2190
ENCODING 8592
SWIDTH 600 0
DWIDTH 7 0
BBX 7 7 0 0
BITMAP
0200
0900
2000
BFF8
2000
0900
0200
ENDCHAR
STARTCHAR arrowup
ENCODING 8593
SWIDTH 600 0
DWIDTH 7 0
BBX 7 7 0 0
BITMAP
0240
0B80
2620
5204
0200
0200
0200
ENDCHAR
STARTCHAR uni2192
ENCODING 8594
SWIDTH 600 0
DWIDTH 7 0
BBX 7 7 0 0
BITMAP
0100
0080
0020
BFF8
0020
0080
0100
ENDCHAR
STARTCHAR arrowdown
ENCODING 8595
SWIDTH 600 0
DWIDTH 7 0
BBX 7 7 0 0
BITMAP
0200
0200
0200
5204
2620
0B80
0240
ENDCHAR
STARTCHAR arrowboth
ENCODING 8596
SWIDTH 600 0
DWIDTH 7 0
BBX 7 5 0 1
BITMAP
2420
5018
FFFC
5018
2420
ENDCHAR
STARTCHAR arrowupdn
ENCODING 8597
SWIDTH 600 0
DWIDTH 7 0
BBX 5 7 1 0
BITMAP
0900
6A40
4840
0800
4840
6A40
1900
ENDCHAR
STARTCHAR uni2196
ENCODING 8598
SWIDTH 600 0
DWIDTH 7 0
BBX 5 6 1 0
BITMAP
5540
A540
A800
8A00
8280
0040
ENDCHAR
STARTCHAR uni2197
ENCODING 8599
SWIDTH 600 0
DWIDTH 7 0
BBX 5 6 1 0
BITMAP
5540
56C0
0680
1880
6080
4000
ENDCHAR
STARTCHAR uni2198
ENCODING 8600
SWIDTH 600 0
DWIDTH 7 0
BBX 5 6 1 0
BITMAP
4000
6080
1880
0680
56C0
1540
ENDCHAR
STARTCHAR uni2199
ENCODING 8601
SWIDTH 600 0
DWIDTH 7 0
BBX 5 6 1 0
BITMAP
0040
8180
8600
9800
B540
5540
ENDCHAR
STARTCHAR arrowupdnbse
ENCODING 8616
SWIDTH 600 0
DWIDTH 7 0
BBX 7 9 0 -2
BITMAP
0200
0B90
2220
0200
0200
2220
0B80
0100
7FF4
ENDCHAR
STARTCHAR uni21D0
ENCODING 8656
SWIDTH 600 0
DWIDTH 7 0
BBX 7 8 0 -1
BITMAP
0100
0900
2FF8
5000
5000
2FF8
0900
0100
ENDCHAR
STARTCHAR uni21D1
ENCODING 8657
SWIDTH 600 0
DWIDTH 7 0
BBX 7 7 0 0
BITMAP
0200
0AC0
28A0
5884
0880
0880
0880
ENDCHAR
STARTCHAR uni21D2
ENCODING 8658
SWIDTH 600 0
DWIDTH 7 0
BBX 7 8 0 -1
BITMAP
0100
0080
BFE0
0018
0018
BFE0
0080
0100
ENDCHAR
STARTCHAR uni21D3
ENCODING 8659
SWIDTH 600 0
DWIDTH 7 0
BBX 7 7 0 0
BITMAP
0880
0880
0880
5884
28A0
0AC0
0200
ENDCHAR
STARTCHAR uni2200
ENCODING 8704
SWIDTH 600 0
DWIDTH 7 0
BBX 7 8 1 0
BITMAP
9024
9060
BAC0
6680
6200
6600
2800
3400
ENDCHAR
STARTCHAR partialdiff
ENCODING 8706
SWIDTH 600 0
DWIDTH 7 0
BBX 7 8 0 0
BITMAP
02E0
0124
0018
1BA4
3474
6020
6190
2E40
ENDCHAR
STARTCHAR uni2203
ENCODING 8707
SWIDTH 600 0
DWIDTH 7 0
BBX 7 8 0 0
BITMAP
1FF4
0024
0030
1FE0
0060
0090
0090
FFC0
ENDCHAR
STARTCHAR uni2206
ENCODING 8710
SWIDTH 600 0
DWIDTH 7 0
BBX 6 8 0 0
BITMAP
01C0
0290
0550
0860
2460
6030
9030
FFF0
ENDCHAR
STARTCHAR product
ENCODING 8719
SWIDTH 600 0
DWIDTH 7 0
BBX 7 9 0 -1
BITMAP
7FF8
6018
6018
6018
6018
6018
6018
6018
6018
ENDCHAR
STARTCHAR summation
ENCODING 8721
SWIDTH 600 0
DWIDTH 7 0
BBX 7 10 0 -2
BITMAP
3FF0
2400
0800
0600
0240
0240
0600
0800
2400
7FF4
ENDCHAR
STARTCHAR minus
ENCODING 8722
SWIDTH 600 0
DWIDTH 7 0
BBX 5 1 1 3
BITMAP
FFC0
ENDCHAR
STARTCHAR uni2215
ENCODING 8725
SWIDTH 600 0
DWIDTH 7 0
BBX 7 7 0 0
BITMAP
0008
0024
0040
0000
1400
6000
8000
ENDCHAR
STARTCHAR uni2219
ENCODING 8729
SWIDTH 600 0
DWIDTH 7 0
BBX 2 2 2 3
BITMAP
A0
A0
ENDCHAR
STARTCHAR radical
ENCODING 8730
SWIDTH 600 0
DWIDTH 7 0
BBX 6 11 1 -1
BITMAP
0020
0020
0050
0080
0080
9080
2140
2140
1600
0A00
0900
ENDCHAR
STARTCHAR infinity
ENCODING 8734
SWIDTH 600 0
DWIDTH 7 0
BBX 7 4 0 2
BITMAP
78B8
8648
8748
78B8
ENDCHAR
STARTCHAR orthogonal
ENCODING 8735
SWIDTH 600 0
DWIDTH 7 0
BBX 5 6 1 1
BITMAP
8000
8000
8000
8000
8000
FFC0
ENDCHAR
STARTCHAR intersection
ENCODING 8745
SWIDTH 600 0
DWIDTH 7 0
BBX 5 6 1 1
BITMAP
2E00
A180
8080
8080
8080
8080
ENDCHAR
STARTCHAR integral
ENCODING 8747
SWIDTH 600 0
DWIDTH 7 0
BBX 4 12 2 -2
BITMAP
1D
24
30
30
20
20
24
14
14
14
24
A0
ENDCHAR
STARTCHAR uni2237
ENCODING 8759
SWIDTH 600 0
DWIDTH 7 0
BBX 7 6 0 1
BITMAP
1D24
1C34
0000
0000
34A0
74A0
ENDCHAR
STARTCHAR approxequal
ENCODING 8776
SWIDTH 600 0
DWIDTH 7 0
BBX 5 4 1 2
BITMAP
7880
8B80
7880
8B80
ENDCHAR
STARTCHAR notequal
ENCODING 8800
SWIDTH 600 0
DWIDTH 7 0
BBX 5 8 1 0
BITMAP
0080
0200
FFC0
0500
0800
FFC0
2000
5000
ENDCHAR
STARTCHAR equivalence
ENCODING 8801
SWIDTH 600 0
DWIDTH 7 0
BBX 5 7 1 0
BITMAP
FFC0
0000
0000
FFC0
0000
0000
FFC0
ENDCHAR
STARTCHAR lessequal
ENCODING 8804
SWIDTH 600 0
DWIDTH 7 0
BBX 5 7 1 0
BITMAP
0180
2A40
E000
2A40
0180
0000
FFC0
ENDCHAR
STARTCHAR greaterequal
ENCODING 8805
SWIDTH 600 0
DWIDTH 7 0
BBX 5 7 1 0
BITMAP
9000
6E40
02C0
6E40
9000
0000
FFC0
ENDCHAR
STARTCHAR house
ENCODING 8962
SWIDTH 600 0
DWIDTH 7 0
BBX 7 8 0 0
BITMAP
0740
09C0
2460
6024
5018
5018
5018
7FF8
ENDCHAR
STARTCHAR revlogicalnot
ENCODING 8976
SWIDTH 600 0
DWIDTH 7 0
BBX 5 4 1 0
BITMAP
FFC0
8000
8000
4000
ENDCHAR
STARTCHAR uni231C
ENCODING 8988
SWIDTH 600 0
DWIDTH 7 0
BBX 5 9 2 0
BITMAP
2F80
2000
2000
2000
6000
5000
8000
8000
8000
ENDCHAR
STARTCHAR uni231D
ENCODING 8989
SWIDTH 600 0
DWIDTH 7 0
BBX 4 9 2 0
BITMAP
BD
05
08
08
08
14
14
20
20
ENDCHAR
STARTCHAR uni231E
ENCODING 8990
SWIDTH 600 0
DWIDTH 7 0
BBX 3 9 2 -1
BITMAP
10
20
20
60
50
80
80
80
FC
ENDCHAR
STARTCHAR uni231F
ENCODING 8991
SWIDTH 600 0
DWIDTH 7 0
BBX 6 9 0 -1
BITMAP
0050
0080
0080
0080
0180
0140
0200
0200
BE00
ENDCHAR
STARTCHAR integraltp
ENCODING 8992
SWIDTH 600 0
DWIDTH 7 0
BBX 3 15 3 -5
BITMAP
74
90
80
80
80
80
80
80
80
80
80
80
80
80
40
ENDCHAR
STARTCHAR integralbt
ENCODING 8993
SWIDTH 600 0
DWIDTH 7 0
BBX 2 14 2 -2
BITMAP
20
20
20
20
20
20
20
20
20
20
20
20
20
D0
ENDCHAR
STARTCHAR uni2500
ENCODING 9472
SWIDTH 600 0
DWIDTH 7 0
BBX 9 1 -1 3
BITMAP
7FFF80
ENDCHAR
STARTCHAR uni2501
ENCODING 9473
SWIDTH 600 0
DWIDTH 7 0
BBX 9 2 -1 3
BITMAP
7FFF80
7FFF80
ENDCHAR
STARTCHAR uni2502
ENCODING 9474
SWIDTH 600 0
DWIDTH 7 0
BBX 1 17 3 -5
BITMAP
C0
C0
C0
C0
C0
C0
C0
C0
C0
C0
C0
C0
C0
C0
C0
C0
C0
ENDCHAR
STARTCHAR uni2503
ENCODING 9475
SWIDTH 600 0
DWIDTH 7 0
BBX 3 17 2 -5
BITMAP
78
78
78
78
78
78
78
78
78
78
78
78
78
78
78
78
78
ENDCHAR
STARTCHAR uni2504
ENCODING 9476
SWIDTH 600 0
DWIDTH 7 0
BBX 7 1 0 3
BITMAP
B768
ENDCHAR
STARTCHAR uni2505
ENCODING 9477
SWIDTH 600 0
DWIDTH 7 0
BBX 7 2 0 3
BITMAP
B768
B768
ENDCHAR
STARTCHAR uni2506
ENCODING 9478
SWIDTH 600 0
DWIDTH 7 0
BBX 1 13 3 -3
BITMAP
C0
C0
C0
00
40
C0
C0
C0
00
40
C0
C0
80
ENDCHAR
STARTCHAR uni2507
ENCODING 9479
SWIDTH 600 0
DWIDTH 7 0
BBX 3 13 2 -3
BITMAP
78
78
78
00
00
78
78
78
00
00
78
78
78
ENDCHAR
STARTCHAR uni2508
ENCODING 9480
SWIDTH 600 0
DWIDTH 7 0
BBX 7 1 0 3
BITMAP
AEEC
ENDCHAR
STARTCHAR uni2509
ENCODING 9481
SWIDTH 600 0
DWIDTH 7 0
BBX 7 2 0 3
BITMAP
AEEC
AEEC
ENDCHAR
STARTCHAR uni250A
ENCODING 9482
SWIDTH 600 0
DWIDTH 7 0
BBX 1 14 3 -3
BITMAP
C0
C0
C0
00
C0
C0
C0
00
C0
C0
C0
C0
C0
C0
ENDCHAR
STARTCHAR uni250B
ENCODING 9483
SWIDTH 600 0
DWIDTH 7 0
BBX 3 14 2 -3
BITMAP
78
78
78
00
78
78
78
00
78
78
78
78
78
78
ENDCHAR
STARTCHAR uni250C
ENCODING 9484
SWIDTH 600 0
DWIDTH 7 0
BBX 5 9 3 -5
BITMAP
FF80
C000
C000
C000
C000
C000
C000
C000
8000
ENDCHAR
STARTCHAR uni250D
ENCODING 9485
SWIDTH 600 0
DWIDTH 7 0
BBX 5 10 3 -5
BITMAP
FF80
FF80
C000
C000
C000
C000
C000
C000
C000
4000
ENDCHAR
STARTCHAR uni250E
ENCODING 9486
SWIDTH 600 0
DWIDTH 7 0
BBX 6 9 2 -5
BITMAP
7FE0
7800
7800
7800
7800
7800
7800
7800
7400
ENDCHAR
STARTCHAR uni250F
ENCODING 9487
SWIDTH 600 0
DWIDTH 7 0
BBX 6 10 2 -5
BITMAP
7FE0
7FE0
7800
7800
7800
7800
7800
7800
7800
1400
ENDCHAR
STARTCHAR uni2510
ENCODING 9488
SWIDTH 600 0
DWIDTH 7 0
BBX 5 9 -1 -5
BITMAP
7FC0
00C0
00C0
00C0
00C0
00C0
00C0
00C0
0080
ENDCHAR
STARTCHAR uni2511
ENCODING 9489
SWIDTH 600 0
DWIDTH 7 0
BBX 5 10 -1 -5
BITMAP
7FC0
7FC0
00C0
00C0
00C0
00C0
00C0
00C0
00C0
0040
ENDCHAR
STARTCHAR uni2512
ENCODING 9490
SWIDTH 600 0
DWIDTH 7 0
BBX 6 9 -1 -5
BITMAP
7FE0
01E0
01E0
01E0
01E0
01E0
01E0
01E0
01D0
ENDCHAR
STARTCHAR uni2513
ENCODING 9491
SWIDTH 600 0
DWIDTH 7 0
BBX 6 10 -1 -5
BITMAP
7FE0
7FE0
01E0
01E0
01E0
01E0
01E0
01E0
01E0
0050
ENDCHAR
STARTCHAR uni2514
ENCODING 9492
SWIDTH 600 0
DWIDTH 7 0
BBX 5 9 3 3
BITMAP
8000
C000
C000
C000
C000
C000
C000
C000
FF80
ENDCHAR
STARTCHAR uni2515
ENCODING 9493
SWIDTH 600 0
DWIDTH 7 0
BBX 5 10 3 3
BITMAP
4000
C000
C000
C000
C000
C000
C000
C000
FF80
FF80
ENDCHAR
STARTCHAR uni2516
ENCODING 9494
SWIDTH 600 0
DWIDTH 7 0
BBX 6 9 2 3
BITMAP
7400
7800
7800
7800
7800
7800
7800
7800
7FE0
ENDCHAR
STARTCHAR uni2517
ENCODING 9495
SWIDTH 600 0
DWIDTH 7 0
BBX 6 10 2 3
BITMAP
1400
7800
7800
7800
7800
7800
7800
7800
7FE0
7FE0
ENDCHAR
STARTCHAR uni2518
ENCODING 9496
SWIDTH 600 0
DWIDTH 7 0
BBX 5 9 -1 3
BITMAP
0080
00C0
00C0
00C0
00C0
00C0
00C0
00C0
7FC0
ENDCHAR
STARTCHAR uni2519
ENCODING 9497
SWIDTH 600 0
DWIDTH 7 0
BBX 5 10 -1 3
BITMAP
0040
00C0
00C0
00C0
00C0
00C0
00C0
00C0
7FC0
7FC0
ENDCHAR
STARTCHAR uni251A
ENCODING 9498
SWIDTH 600 0
DWIDTH 7 0
BBX 6 9 -1 3
BITMAP
01D0
01E0
01E0
01E0
01E0
01E0
01E0
01E0
7FE0
ENDCHAR
STARTCHAR uni251B
ENCODING 9499
SWIDTH 600 0
DWIDTH 7 0
BBX 6 10 -1 3
BITMAP
0050
01E0
01E0
01E0
01E0
01E0
01E0
01E0
7FE0
7FE0
ENDCHAR
STARTCHAR uni251C
ENCODING 9500
SWIDTH 600 0
DWIDTH 7 0
BBX 5 17 3 -5
BITMAP
8000
C000
C000
C000
C000
C000
C000
C000
FF80
C000
C000
C000
C000
C000
C000
C000
8000
ENDCHAR
STARTCHAR uni251D
ENCODING 9501
SWIDTH 600 0
DWIDTH 7 0
BBX 5 18 3 -5
BITMAP
4000
C000
C000
C000
C000
C000
C000
C000
FF80
FF80
C000
C000
C000
C000
C000
C000
C000
4000
ENDCHAR
STARTCHAR uni251E
ENCODING 9502
SWIDTH 600 0
DWIDTH 7 0
BBX 6 17 2 -5
BITMAP
7400
7800
7800
7800
7800
7800
7800
7800
7FE0
3000
3000
3000
3000
3000
3000
3000
2000
ENDCHAR
STARTCHAR uni251F
ENCODING 9503
SWIDTH 600 0
DWIDTH 7 0
BBX 6 17 2 -5
BITMAP
2000
3000
3000
3000
3000
3000
3000
3000
7FE0
7800
7800
7800
7800
7800
7800
7800
7400
ENDCHAR
STARTCHAR uni2520
ENCODING 9504
SWIDTH 600 0
DWIDTH 7 0
BBX 6 17 2 -5
BITMAP
7400
7800
7800
7800
7800
7800
7800
7800
7FE0
7800
7800
7800
7800
7800
7800
7800
7400
ENDCHAR
STARTCHAR uni2521
ENCODING 9505
SWIDTH 600 0
DWIDTH 7 0
BBX 6 18 2 -5
BITMAP
1400
7800
7800
7800
7800
7800
7800
7800
7FE0
7FE0
3000
3000
3000
3000
3000
3000
3000
1000
ENDCHAR
STARTCHAR uni2522
ENCODING 9506
SWIDTH 600 0
DWIDTH 7 0
BBX 6 18 2 -5
BITMAP
1000
3000
3000
3000
3000
3000
3000
3000
7FE0
7FE0
7800
7800
7800
7800
7800
7800
7800
1400
ENDCHAR
STARTCHAR uni2523
ENCODING 9507
SWIDTH 600 0
DWIDTH 7 0
BBX 6 18 2 -5
BITMAP
1400
7800
7800
7800
7800
7800
7800
7800
7FE0
7FE0
7800
7800
7800
7800
7800
7800
7800
1400
ENDCHAR
STARTCHAR uni2524
ENCODING 9508
SWIDTH 600 0
DWIDTH 7 0
BBX 5 17 -1 -5
BITMAP
0080
00C0
00C0
00C0
00C0
00C0
00C0
00C0
7FC0
00C0
00C0
00C0
00C0
00C0
00C0
00C0
0080
ENDCHAR
STARTCHAR uni2525
ENCODING 9509
SWIDTH 600 0
DWIDTH 7 0
BBX 5 18 -1 -5
BITMAP
0040
00C0
00C0
00C0
00C0
00C0
00C0
00C0
7FC0
7FC0
00C0
00C0
00C0
00C0
00C0
00C0
00C0
0040
ENDCHAR
STARTCHAR uni2526
ENCODING 9510
SWIDTH 600 0
DWIDTH 7 0
BBX 6 17 -1 -5
BITMAP
01D0
01E0
01E0
01E0
01E0
01E0
01E0
01E0
7FE0
00C0
00C0
00C0
00C0
00C0
00C0
00C0
0080
ENDCHAR
STARTCHAR uni2527
ENCODING 9511
SWIDTH 600 0
DWIDTH 7 0
BBX 6 17 -1 -5
BITMAP
0080
00C0
00C0
00C0
00C0
00C0
00C0
00C0
7FE0
01E0
01E0
01E0
01E0
01E0
01E0
01E0
01D0
ENDCHAR
STARTCHAR uni2528
ENCODING 9512
SWIDTH 600 0
DWIDTH 7 0
BBX 6 17 -1 -5
BITMAP
01D0
01E0
01E0
01E0
01E0
01E0
01E0
01E0
7FE0
01E0
01E0
01E0
01E0
01E0
01E0
01E0
01D0
ENDCHAR
STARTCHAR uni2529
ENCODING 9513
SWIDTH 600 0
DWIDTH 7 0
BBX 6 18 -1 -5
BITMAP
0050
01E0
01E0
01E0
01E0
01E0
01E0
01E0
7FE0
7FE0
00C0
00C0
00C0
00C0
00C0
00C0
00C0
0040
ENDCHAR
STARTCHAR uni252A
ENCODING 9514
SWIDTH 600 0
DWIDTH 7 0
BBX 6 18 -1 -5
BITMAP
0040
00C0
00C0
00C0
00C0
00C0
00C0
00C0
7FE0
7FE0
01E0
01E0
01E0
01E0
01E0
01E0
01E0
0050
ENDCHAR
STARTCHAR uni252B
ENCODING 9515
SWIDTH 600 0
DWIDTH 7 0
BBX 6 18 -1 -5
BITMAP
0050
01E0
01E0
01E0
01E0
01E0
01E0
01E0
7FE0
7FE0
01E0
01E0
01E0
01E0
01E0
01E0
01E0
0050
ENDCHAR
STARTCHAR uni252C
ENCODING 9516
SWIDTH 600 0
DWIDTH 7 0
BBX 9 9 -1 -5
BITMAP
7FFF80
00C000
00C000
00C000
00C000
00C000
00C000
00C000
008000
ENDCHAR
STARTCHAR uni252D
ENCODING 9517
SWIDTH 600 0
DWIDTH 7 0
BBX 9 10 -1 -5
BITMAP
7FC000
7FFF80
00C000
00C000
00C000
00C000
00C000
00C000
00C000
004000
ENDCHAR
STARTCHAR uni252E
ENCODING 9518
SWIDTH 600 0
DWIDTH 7 0
BBX 9 10 -1 -5
BITMAP
00FF80
7FFF80
00C000
00C000
00C000
00C000
00C000
00C000
00C000
004000
ENDCHAR
STARTCHAR uni252F
ENCODING 9519
SWIDTH 600 0
DWIDTH 7 0
BBX 9 10 -1 -5
BITMAP
7FFF80
7FFF80
00C000
00C000
00C000
00C000
00C000
00C000
00C000
004000
ENDCHAR
STARTCHAR uni2530
ENCODING 9520
SWIDTH 600 0
DWIDTH 7 0
BBX 9 9 -1 -5
BITMAP
7FFF80
01E000
01E000
01E000
01E000
01E000
01E000
01E000
01D000
ENDCHAR
STARTCHAR uni2531
ENCODING 9521
SWIDTH 600 0
DWIDTH 7 0
BBX 9 10 -1 -5
BITMAP
7FE000
7FFF80
01E000
01E000
01E000
01E000
01E000
01E000
01E000
005000
ENDCHAR
STARTCHAR uni2532
ENCODING 9522
SWIDTH 600 0
DWIDTH 7 0
BBX 9 10 -1 -5
BITMAP
01FF80
7FFF80
01E000
01E000
01E000
01E000
01E000
01E000
01E000
005000
ENDCHAR
STARTCHAR uni2533
ENCODING 9523
SWIDTH 600 0
DWIDTH 7 0
BBX 9 10 -1 -5
BITMAP
7FFF80
7FFF80
01E000
01E000
01E000
01E000
01E000
01E000
01E000
005000
ENDCHAR
STARTCHAR uni2534
ENCODING 9524
SWIDTH 600 0
DWIDTH 7 0
BBX 9 9 -1 3
BITMAP
008000
00C000
00C000
00C000
00C000
00C000
00C000
00C000
7FFF80
ENDCHAR
STARTCHAR uni2535
ENCODING 9525
SWIDTH 600 0
DWIDTH 7 0
BBX 9 10 -1 3
BITMAP
004000
00C000
00C000
00C000
00C000
00C000
00C000
00C000
7FC000
7FFF80
ENDCHAR
STARTCHAR uni2536
ENCODING 9526
SWIDTH 600 0
DWIDTH 7 0
BBX 9 10 -1 3
BITMAP
004000
00C000
00C000
00C000
00C000
00C000
00C000
00C000
00FF80
7FFF80
ENDCHAR
STARTCHAR uni2537
ENCODING 9527
SWIDTH 600 0
DWIDTH 7 0
BBX 9 10 -1 3
BITMAP
004000
00C000
00C000
00C000
00C000
00C000
00C000
00C000
7FFF80
7FFF80
ENDCHAR
STARTCHAR uni2538
ENCODING 9528
SWIDTH 600 0
DWIDTH 7 0
BBX 9 9 -1 3
BITMAP
01D000
01E000
01E000
01E000
01E000
01E000
01E000
01E000
7FFF80
ENDCHAR
STARTCHAR uni2539
ENCODING 9529
SWIDTH 600 0
DWIDTH 7 0
BBX 9 10 -1 3
BITMAP
005000
01E000
01E000
01E000
01E000
01E000
01E000
01E000
7FE000
7FFF80
ENDCHAR
STARTCHAR uni253A
ENCODING 9530
SWIDTH 600 0
DWIDTH 7 0
BBX 9 10 -1 3
BITMAP
005000
01E000
01E000
01E000
01E000
01E000
01E000
01E000
01FF80
7FFF80
ENDCHAR
STARTCHAR uni253B
ENCODING 9531
SWIDTH 600 0
DWIDTH 7 0
BBX 9 10 -1 3
BITMAP
005000
01E000
01E000
01E000
01E000
01E000
01E000
01E000
7FFF80
7FFF80
ENDCHAR
STARTCHAR uni253C
ENCODING 9532
SWIDTH 600 0
DWIDTH 7 0
BBX 9 17 -1 -5
BITMAP
008000
00C000
00C000
00C000
00C000
00C000
00C000
00C000
7FFF80
00C000
00C000
00C000
00C000
00C000
00C000
00C000
008000
ENDCHAR
STARTCHAR uni253D
ENCODING 9533
SWIDTH 600 0
DWIDTH 7 0
BBX 9 18 -1 -5
BITMAP
004000
00C000
00C000
00C000
00C000
00C000
00C000
00C000
7FC000
7FFF80
00C000
00C000
00C000
00C000
00C000
00C000
00C000
004000
ENDCHAR
STARTCHAR uni253E
ENCODING 9534
SWIDTH 600 0
DWIDTH 7 0
BBX 9 18 -1 -5
BITMAP
004000
00C000
00C000
00C000
00C000
00C000
00C000
00C000
00FF80
7FFF80
00C000
00C000
00C000
00C000
00C000
00C000
00C000
004000
ENDCHAR
STARTCHAR uni253F
ENCODING 9535
SWIDTH 600 0
DWIDTH 7 0
BBX 9 18 -1 -5
BITMAP
004000
00C000
00C000
00C000
00C000
00C000
00C000
00C000
7FFF80
7FFF80
00C000
00C000
00C000
00C000
00C000
00C000
00C000
004000
ENDCHAR
STARTCHAR uni2540
ENCODING 9536
SWIDTH 600 0
DWIDTH 7 0
BBX 9 17 -1 -5
BITMAP
01D000
01E000
01E000
01E000
01E000
01E000
01E000
01E000
7FFF80
00C000
00C000
00C000
00C000
00C000
00C000
00C000
008000
ENDCHAR
STARTCHAR uni2541
ENCODING 9537
SWIDTH 600 0
DWIDTH 7 0
BBX 9 17 -1 -5
BITMAP
008000
00C000
00C000
00C000
00C000
00C000
00C000
00C000
7FFF80
01E000
01E000
01E000
01E000
01E000
01E000
01E000
01D000
ENDCHAR
STARTCHAR uni2542
ENCODING 9538
SWIDTH 600 0
DWIDTH 7 0
BBX 9 17 -1 -5
BITMAP
01D000
01E000
01E000
01E000
01E000
01E000
01E000
01E000
7FFF80
01E000
01E000
01E000
01E000
01E000
01E000
01E000
01D000
ENDCHAR
STARTCHAR uni2543
ENCODING 9539
SWIDTH 600 0
DWIDTH 7 0
BBX 9 18 -1 -5
BITMAP
005000
01E000
01E000
01E000
01E000
01E000
01E000
01E000
7FE000
7FFF80
00C000
00C000
00C000
00C000
00C000
00C000
00C000
004000
ENDCHAR
STARTCHAR uni2544
ENCODING 9540
SWIDTH 600 0
DWIDTH 7 0
BBX 9 18 -1 -5
BITMAP
005000
01E000
01E000
01E000
01E000
01E000
01E000
01E000
01FF80
7FFF80
00C000
00C000
00C000
00C000
00C000
00C000
00C000
004000
ENDCHAR
STARTCHAR uni2545
ENCODING 9541
SWIDTH 600 0
DWIDTH 7 0
BBX 9 18 -1 -5
BITMAP
004000
00C000
00C000
00C000
00C000
00C000
00C000
00C000
7FE000
7FFF80
01E000
01E000
01E000
01E000
01E000
01E000
01E000
005000
ENDCHAR
STARTCHAR uni2546
ENCODING 9542
SWIDTH 600 0
DWIDTH 7 0
BBX 9 18 -1 -5
BITMAP
004000
00C000
00C000
00C000
00C000
00C000
00C000
00C000
01FF80
7FFF80
01E000
01E000
01E000
01E000
01E000
01E000
01E000
005000
ENDCHAR
STARTCHAR uni2547
ENCODING 9543
SWIDTH 600 0
DWIDTH 7 0
BBX 9 18 -1 -5
BITMAP
005000
01E000
01E000
01E000
01E000
01E000
01E000
01E000
7FFF80
7FFF80
00C000
00C000
00C000
00C000
00C000
00C000
00C000
004000
ENDCHAR
STARTCHAR uni2548
ENCODING 9544
SWIDTH 600 0
DWIDTH 7 0
BBX 9 18 -1 -5
BITMAP
004000
00C000
00C000
00C000
00C000
00C000
00C000
00C000
7FFF80
7FFF80
01E000
01E000
01E000
01E000
01E000
01E000
01E000
005000
ENDCHAR
STARTCHAR uni2549
ENCODING 9545
SWIDTH 600 0
DWIDTH 7 0
BBX 9 18 -1 -5
BITMAP
005000
01E000
01E000
01E000
01E000
01E000
01E000
01E000
7FE000
7FFF80
01E000
01E000
01E000
01E000
01E000
01E000
01E000
005000
ENDCHAR
STARTCHAR uni254A
ENCODING 9546
SWIDTH 600 0
DWIDTH 7 0
BBX 9 18 -1 -5
BITMAP
005000
01E000
01E000
01E000
01E000
01E000
01E000
01E000
01FF80
7FFF80
01E000
01E000
01E000
01E000
01E000
01E000
01E000
005000
ENDCHAR
STARTCHAR uni254B
ENCODING 9547
SWIDTH 600 0
DWIDTH 7 0
BBX 9 18 -1 -5
BITMAP
005000
01E000
01E000
01E000
01E000
01E000
01E000
01E000
7FFF80
7FFF80
01E000
01E000
01E000
01E000
01E000
01E000
01E000
005000
ENDCHAR
STARTCHAR uni254C
ENCODING 9548
SWIDTH 600 0
DWIDTH 7 0
BBX 6 1 1 3
BITMAP
E2D0
ENDCHAR
STARTCHAR uni254D
ENCODING 9549
SWIDTH 600 0
DWIDTH 7 0
BBX 6 2 1 3
BITMAP
E2D0
E2D0
ENDCHAR
STARTCHAR uni254E
ENCODING 9550
SWIDTH 600 0
DWIDTH 7 0
BBX 1 11 3 -2
BITMAP
C0
C0
C0
80
00
00
00
80
C0
C0
C0
ENDCHAR
STARTCHAR uni254F
ENCODING 9551
SWIDTH 600 0
DWIDTH 7 0
BBX 3 11 2 -2
BITMAP
78
78
78
78
00
00
00
64
78
78
64
ENDCHAR
STARTCHAR uni2550
ENCODING 9552
SWIDTH 600 0
DWIDTH 7 0
BBX 9 3 -1 2
BITMAP
7FFF80
000000
7FFF80
ENDCHAR
STARTCHAR uni2551
ENCODING 9553
SWIDTH 600 0
DWIDTH 7 0
BBX 3 17 2 -5
BITMAP
8C
8C
8C
8C
8C
8C
8C
8C
8C
8C
8C
8C
8C
8C
8C
8C
8C
ENDCHAR
STARTCHAR uni2552
ENCODING 9554
SWIDTH 600 0
DWIDTH 7 0
BBX 5 10 3 -5
BITMAP
FF80
C000
FF80
C000
C000
C000
C000
C000
C000
C000
ENDCHAR
STARTCHAR uni2553
ENCODING 9555
SWIDTH 600 0
DWIDTH 7 0
BBX 6 9 2 -5
BITMAP
BFE0
8C00
8C00
8C00
8C00
8C00
8C00
8C00
8C00
ENDCHAR
STARTCHAR uni2554
ENCODING 9556
SWIDTH 600 0
DWIDTH 7 0
BBX 6 10 2 -5
BITMAP
BFE0
8000
8FE0
8C00
8C00
8C00
8C00
8C00
8C00
8C00
ENDCHAR
STARTCHAR uni2555
ENCODING 9557
SWIDTH 600 0
DWIDTH 7 0
BBX 5 10 -1 -5
BITMAP
7FC0
00C0
7FC0
00C0
00C0
00C0
00C0
00C0
00C0
00C0
ENDCHAR
STARTCHAR uni2556
ENCODING 9558
SWIDTH 600 0
DWIDTH 7 0
BBX 6 9 -1 -5
BITMAP
7FF0
0230
0230
0230
0230
0230
0230
0230
0230
ENDCHAR
STARTCHAR uni2557
ENCODING 9559
SWIDTH 600 0
DWIDTH 7 0
BBX 6 10 -1 -5
BITMAP
7FF0
0030
7F30
0230
0230
0230
0230
0230
0230
0220
ENDCHAR
STARTCHAR uni2558
ENCODING 9560
SWIDTH 600 0
DWIDTH 7 0
BBX 5 10 3 2
BITMAP
C000
C000
C000
C000
C000
C000
C000
FF80
C000
FF80
ENDCHAR
STARTCHAR uni2559
ENCODING 9561
SWIDTH 600 0
DWIDTH 7 0
BBX 6 9 2 3
BITMAP
8C00
8C00
8C00
8C00
8C00
8C00
8C00
8C00
BFE0
ENDCHAR
STARTCHAR uni255A
ENCODING 9562
SWIDTH 600 0
DWIDTH 7 0
BBX 6 10 2 2
BITMAP
8C00
8C00
8C00
8C00
8C00
8C00
8C00
8FE0
8000
BFE0
ENDCHAR
STARTCHAR uni255B
ENCODING 9563
SWIDTH 600 0
DWIDTH 7 0
BBX 5 10 -1 2
BITMAP
00C0
00C0
00C0
00C0
00C0
00C0
00C0
7FC0
00C0
7FC0
ENDCHAR
STARTCHAR uni255C
ENCODING 9564
SWIDTH 600 0
DWIDTH 7 0
BBX 6 9 -1 3
BITMAP
0230
0230
0230
0230
0230
0230
0230
0230
7FF0
ENDCHAR
STARTCHAR uni255D
ENCODING 9565
SWIDTH 600 0
DWIDTH 7 0
BBX 6 10 -1 2
BITMAP
0220
0230
0230
0230
0230
0230
0230
7F30
0030
7FF0
ENDCHAR
STARTCHAR uni255E
ENCODING 9566
SWIDTH 600 0
DWIDTH 7 0
BBX 5 17 3 -5
BITMAP
C000
C000
C000
C000
C000
C000
C000
FF80
C000
FF80
C000
C000
C000
C000
C000
C000
C000
ENDCHAR
STARTCHAR uni255F
ENCODING 9567
SWIDTH 600 0
DWIDTH 7 0
BBX 6 17 2 -5
BITMAP
8C00
8C00
8C00
8C00
8C00
8C00
8C00
8C00
8FE0
8C00
8C00
8C00
8C00
8C00
8C00
8C00
8C00
ENDCHAR
STARTCHAR uni2560
ENCODING 9568
SWIDTH 600 0
DWIDTH 7 0
BBX 6 17 2 -5
BITMAP
8C00
8C00
8C00
8C00
8C00
8C00
8C00
8FE0
8000
8FE0
8C00
8C00
8C00
8C00
8C00
8C00
8C00
ENDCHAR
STARTCHAR uni2561
ENCODING 9569
SWIDTH 600 0
DWIDTH 7 0
BBX 5 17 -1 -5
BITMAP
00C0
00C0
00C0
00C0
00C0
00C0
00C0
7FC0
00C0
7FC0
00C0
00C0
00C0
00C0
00C0
00C0
00C0
ENDCHAR
STARTCHAR uni2562
ENCODING 9570
SWIDTH 600 0
DWIDTH 7 0
BBX 6 17 -1 -5
BITMAP
0230
0230
0230
0230
0230
0230
0230
0230
7F30
0230
0230
0230
0230
0230
0230
0230
0220
ENDCHAR
STARTCHAR uni2563
ENCODING 9571
SWIDTH 600 0
DWIDTH 7 0
BBX 6 17 -1 -5
BITMAP
0230
0230
0230
0230
0230
0230
0230
7F30
0030
7F30
0230
0230
0230
0230
0230
0230
0220
ENDCHAR
STARTCHAR uni2564
ENCODING 9572
SWIDTH 600 0
DWIDTH 7 0
BBX 9 10 -1 -5
BITMAP
7FFF80
000000
7FFF80
00C000
00C000
00C000
00C000
00C000
00C000
00C000
ENDCHAR
STARTCHAR uni2565
ENCODING 9573
SWIDTH 600 0
DWIDTH 7 0
BBX 9 9 -1 -5
BITMAP
7FFF80
023000
023000
023000
023000
023000
023000
023000
023000
ENDCHAR
STARTCHAR uni2566
ENCODING 9574
SWIDTH 600 0
DWIDTH 7 0
BBX 9 10 -1 -5
BITMAP
7FFF80
000000
7F3F80
023000
023000
023000
023000
023000
023000
023000
ENDCHAR
STARTCHAR uni2567
ENCODING 9575
SWIDTH 600 0
DWIDTH 7 0
BBX 9 10 -1 2
BITMAP
00C000
00C000
00C000
00C000
00C000
00C000
00C000
7FFF80
000000
7FFF80
ENDCHAR
STARTCHAR uni2568
ENCODING 9576
SWIDTH 600 0
DWIDTH 7 0
BBX 9 9 -1 3
BITMAP
023000
023000
023000
023000
023000
023000
023000
023000
7FFF80
ENDCHAR
STARTCHAR uni2569
ENCODING 9577
SWIDTH 600 0
DWIDTH 7 0
BBX 9 10 -1 2
BITMAP
023000
023000
023000
023000
023000
023000
023000
7F3F80
000000
7FFF80
ENDCHAR
STARTCHAR uni256A
ENCODING 9578
SWIDTH 600 0
DWIDTH 7 0
BBX 9 17 -1 -5
BITMAP
00C000
00C000
00C000
00C000
00C000
00C000
00C000
7FFF80
00C000
7FFF80
00C000
00C000
00C000
00C000
00C000
00C000
00C000
ENDCHAR
STARTCHAR uni256B
ENCODING 9579
SWIDTH 600 0
DWIDTH 7 0
BBX 9 17 -1 -5
BITMAP
023000
023000
023000
023000
023000
023000
023000
023000
7FFF80
023000
023000
023000
023000
023000
023000
023000
023000
ENDCHAR
STARTCHAR uni256C
ENCODING 9580
SWIDTH 600 0
DWIDTH 7 0
BBX 9 17 -1 -5
BITMAP
023000
023000
023000
023000
023000
023000
023000
7F3F80
000000
7F3F80
023000
023000
023000
023000
023000
023000
023000
ENDCHAR
STARTCHAR uni256D
ENCODING 9581
SWIDTH 600 0
DWIDTH 7 0
BBX 5 9 3 -5
BITMAP
0B80
2800
6000
9000
C000
C000
C000
C000
8000
ENDCHAR
STARTCHAR uni256E
ENCODING 9582
SWIDTH 600 0
DWIDTH 7 0
BBX 5 9 -1 -5
BITMAP
7800
0700
0180
00C0
00C0
00C0
00C0
00C0
0080
ENDCHAR
STARTCHAR uni256F
ENCODING 9583
SWIDTH 600 0
DWIDTH 7 0
BBX 5 9 -1 3
BITMAP
0080
00C0
00C0
00C0
00C0
00C0
0180
0700
7800
ENDCHAR
STARTCHAR uni2570
ENCODING 9584
SWIDTH 600 0
DWIDTH 7 0
BBX 5 9 3 3
BITMAP
8000
C000
C000
C000
C000
9000
6000
2800
0B80
ENDCHAR
STARTCHAR uni2571
ENCODING 9585
SWIDTH 600 0
DWIDTH 7 0
BBX 8 14 0 -3
BITMAP
0009
000C
0024
0030
0090
00C0
0240
0700
0900
1800
2400
6000
9000
8000
ENDCHAR
STARTCHAR uni2572
ENCODING 9586
SWIDTH 600 0
DWIDTH 7 0
BBX 8 14 0 -3
BITMAP
8000
9000
6000
2400
1800
0900
0700
0240
00C0
0090
0030
0024
000C
0009
ENDCHAR
STARTCHAR uni2573
ENCODING 9587
SWIDTH 600 0
DWIDTH 7 0
BBX 8 14 0 -3
BITMAP
8009
900C
6024
2430
1890
09C0
0740
0740
09C0
1890
2430
6024
900C
8009
ENDCHAR
STARTCHAR uni2574
ENCODING 9588
SWIDTH 600 0
DWIDTH 7 0
BBX 5 1 -1 3
BITMAP
7FC0
ENDCHAR
STARTCHAR uni2575
ENCODING 9589
SWIDTH 600 0
DWIDTH 7 0
BBX 1 9 3 3
BITMAP
C0
C0
C0
C0
C0
C0
C0
C0
C0
ENDCHAR
STARTCHAR uni2576
ENCODING 9590
SWIDTH 600 0
DWIDTH 7 0
BBX 5 1 3 3
BITMAP
FF80
ENDCHAR
STARTCHAR uni2577
ENCODING 9591
SWIDTH 600 0
DWIDTH 7 0
BBX 1 9 3 -5
BITMAP
C0
C0
C0
C0
C0
C0
C0
C0
C0
ENDCHAR
STARTCHAR uni2578
ENCODING 9592
SWIDTH 600 0
DWIDTH 7 0
BBX 5 2 -1 3
BITMAP
7FC0
7FC0
ENDCHAR
STARTCHAR uni2579
ENCODING 9593
SWIDTH 600 0
DWIDTH 7 0
BBX 3 9 2 3
BITMAP
78
78
78
78
78
78
78
78
78
ENDCHAR
STARTCHAR uni257A
ENCODING 9594
SWIDTH 600 0
DWIDTH 7 0
BBX 5 2 3 3
BITMAP
FF80
FF80
ENDCHAR
STARTCHAR uni257B
ENCODING 9595
SWIDTH 600 0
DWIDTH 7 0
BBX 3 9 2 -5
BITMAP
78
78
78
78
78
78
78
78
78
ENDCHAR
STARTCHAR uni257C
ENCODING 9596
SWIDTH 600 0
DWIDTH 7 0
BBX 9 3 -1 2
BITMAP
005540
7FFF80
005540
ENDCHAR
STARTCHAR uni257D
ENCODING 9597
SWIDTH 600 0
DWIDTH 7 0
BBX 3 17 2 -5
BITMAP
30
30
30
30
30
30
30
30
78
78
78
78
78
78
78
78
78
ENDCHAR
STARTCHAR uni257E
ENCODING 9598
SWIDTH 600 0
DWIDTH 7 0
BBX 9 3 -1 2
BITMAP
554000
7FFF80
554000
ENDCHAR
STARTCHAR uni257F
ENCODING 9599
SWIDTH 600 0
DWIDTH 7 0
BBX 3 17 2 -5
BITMAP
78
78
78
78
78
78
78
78
78
30
30
30
30
30
30
30
30
ENDCHAR
STARTCHAR uni2580
ENCODING 9600
SWIDTH 600 0
DWIDTH 7 0
BBX 8 8 0 4
BITMAP
FFFD
FFFD
FFFD
FFFD
FFFD
FFFD
FFFD
FFFD
ENDCHAR
STARTCHAR uni2581
ENCODING 9601
SWIDTH 600 0
DWIDTH 7 0
BBX 8 2 0 -5
BITMAP
FFFD
FFFD
ENDCHAR
STARTCHAR uni2582
ENCODING 9602
SWIDTH 600 0
DWIDTH 7 0
BBX 8 4 0 -5
BITMAP
FFFD
FFFD
FFFD
FFFD
ENDCHAR
STARTCHAR uni2583
ENCODING 9603
SWIDTH 600 0
DWIDTH 7 0
BBX 8 7 0 -5
BITMAP
FFFD
FFFD
FFFD
FFFD
FFFD
FFFD
FFFD
ENDCHAR
STARTCHAR uni2584
ENCODING 9604
SWIDTH 600 0
DWIDTH 7 0
BBX 8 9 0 -5
BITMAP
FFFD
FFFD
FFFD
FFFD
FFFD
FFFD
FFFD
FFFD
FFFD
ENDCHAR
STARTCHAR uni2585
ENCODING 9605
SWIDTH 600 0
DWIDTH 7 0
BBX 8 11 0 -5
BITMAP
FFFD
FFFD
FFFD
FFFD
FFFD
FFFD
FFFD
FFFD
FFFD
FFFD
FFFD
ENDCHAR
STARTCHAR uni2586
ENCODING 9606
SWIDTH 600 0
DWIDTH 7 0
BBX 8 13 0 -5
BITMAP
FFFD
FFFD
FFFD
FFFD
FFFD
FFFD
FFFD
FFFD
FFFD
FFFD
FFFD
FFFD
FFFD
ENDCHAR
STARTCHAR uni2587
ENCODING 9607
SWIDTH 600 0
DWIDTH 7 0
BBX 8 15 0 -5
BITMAP
FFFD
FFFD
FFFD
FFFD
FFFD
FFFD
FFFD
FFFD
FFFD
FFFD
FFFD
FFFD
FFFD
FFFD
FFFD
ENDCHAR
STARTCHAR uni2588
ENCODING 9608
SWIDTH 600 0
DWIDTH 7 0
BBX 8 17 0 -5
BITMAP
FFFD
FFFD
FFFD
FFFD
FFFD
FFFD
FFFD
FFFD
FFFD
FFFD
FFFD
FFFD
FFFD
FFFD
FFFD
FFFD
FFFD
ENDCHAR
STARTCHAR uni2589
ENCODING 9609
SWIDTH 600 0
DWIDTH 7 0
BBX 7 17 0 -5
BITMAP
FFF4
FFF4
FFF4
FFF4
FFF4
FFF4
FFF4
FFF4
FFF4
FFF4
FFF4
FFF4
FFF4
FFF4
FFF4
FFF4
FFF4
ENDCHAR
STARTCHAR uni258A
ENCODING 9610
SWIDTH 600 0
DWIDTH 7 0
BBX 6 17 0 -5
BITMAP
FFD0
FFD0
FFD0
FFD0
FFD0
FFD0
FFD0
FFD0
FFD0
FFD0
FFD0
FFD0
FFD0
FFD0
FFD0
FFD0
FFD0
ENDCHAR
STARTCHAR uni258B
ENCODING 9611
SWIDTH 600 0
DWIDTH 7 0
BBX 5 17 0 -5
BITMAP
FF80
FF80
FF80
FF80
FF80
FF80
FF80
FF80
FF80
FF80
FF80
FF80
FF80
FF80
FF80
FF80
FF80
ENDCHAR
STARTCHAR uni258C
ENCODING 9612
SWIDTH 600 0
DWIDTH 7 0
BBX 4 17 0 -5
BITMAP
FE
FE
FE
FE
FE
FE
FE
FE
FE
FE
FE
FE
FE
FE
FE
FE
FE
ENDCHAR
STARTCHAR uni258D
ENCODING 9613
SWIDTH 600 0
DWIDTH 7 0
BBX 3 17 0 -5
BITMAP
F8
F8
F8
F8
F8
F8
F8
F8
F8
F8
F8
F8
F8
F8
F8
F8
F8
ENDCHAR
STARTCHAR uni258E
ENCODING 9614
SWIDTH 600 0
DWIDTH 7 0
BBX 2 17 0 -5
BITMAP
E0
E0
E0
E0
E0
E0
E0
E0
E0
E0
E0
E0
E0
E0
E0
E0
E0
ENDCHAR
STARTCHAR uni258F
ENCODING 9615
SWIDTH 600 0
DWIDTH 7 0
BBX 1 17 0 -5
BITMAP
C0
C0
C0
C0
C0
C0
C0
C0
C0
C0
C0
C0
C0
C0
C0
C0
C0
ENDCHAR
STARTCHAR uni2590
ENCODING 9616
SWIDTH 600 0
DWIDTH 7 0
BBX 5 17 3 -5
BITMAP
7F40
7F40
7F40
7F40
7F40
7F40
7F40
7F40
7F40
7F40
7F40
7F40
7F40
7F40
7F40
7F40
7F40
ENDCHAR
STARTCHAR uni2591
ENCODING 9617
SWIDTH 600 0
DWIDTH 7 0
BBX 6 16 1 -5
BITMAP
4850
1100
4850
1100
4400
4400
1100
4850
1100
4450
0000
0000
4450
1100
4850
1100
ENDCHAR
STARTCHAR uni2592
ENCODING 9618
SWIDTH 600 0
DWIDTH 7 0
BBX 8 16 -1 -5
BITMAP
18C9
5254
18CA
5110
1485
1485
5110
18CA
5210
1885
1555
1555
1885
5210
18CA
5214
ENDCHAR
STARTCHAR uni2593
ENCODING 9619
SWIDTH 600 0
DWIDTH 7 0
BBX 8 17 -1 -5
BITMAP
2DDA
29DA
A769
2DEF
6AA9
6EEA
6EEA
6AA9
2DEF
A769
2DEF
6AAA
6AAA
2DEF
A769
2EEF
ABB9
ENDCHAR
STARTCHAR uni2594
ENCODING 9620
SWIDTH 600 0
DWIDTH 7 0
BBX 8 2 0 10
BITMAP
FFFD
FFFD
ENDCHAR
STARTCHAR uni2595
ENCODING 9621
SWIDTH 600 0
DWIDTH 7 0
BBX 2 17 6 -5
BITMAP
90
90
90
90
90
90
90
90
90
90
90
90
90
90
90
90
90
ENDCHAR
STARTCHAR uni2596
ENCODING 9622
SWIDTH 600 0
DWIDTH 7 0
BBX 4 9 0 -5
BITMAP
FE
FE
FE
FE
FE
FE
FE
FE
FE
ENDCHAR
STARTCHAR uni2597
ENCODING 9623
SWIDTH 600 0
DWIDTH 7 0
BBX 5 9 3 -5
BITMAP
7F40
7F40
7F40
7F40
7F40
7F40
7F40
7F40
7F40
ENDCHAR
STARTCHAR uni2598
ENCODING 9624
SWIDTH 600 0
DWIDTH 7 0
BBX 4 8 0 4
BITMAP
FE
FE
FE
FE
FE
FE
FE
FE
ENDCHAR
STARTCHAR uni2599
ENCODING 9625
SWIDTH 600 0
DWIDTH 7 0
BBX 8 17 0 -5
BITMAP
FE00
FE00
FE00
FE00
FE00
FE00
FE00
FE00
FFFD
FFFD
FFFD
FFFD
FFFD
FFFD
FFFD
FFFD
FFFD
ENDCHAR
STARTCHAR uni259A
ENCODING 9626
SWIDTH 600 0
DWIDTH 7 0
BBX 8 17 0 -5
BITMAP
FE00
FE00
FE00
FE00
FE00
FE00
FE00
FE00
01FD
01FD
01FD
01FD
01FD
01FD
01FD
01FD
01FD
ENDCHAR
STARTCHAR uni259B
ENCODING 9627
SWIDTH 600 0
DWIDTH 7 0
BBX 8 17 0 -5
BITMAP
FFFD
FFFD
FFFD
FFFD
FFFD
FFFD
FFFD
FFFD
FE00
FE00
FE00
FE00
FE00
FE00
FE00
FE00
FE00
ENDCHAR
STARTCHAR uni259C
ENCODING 9628
SWIDTH 600 0
DWIDTH 7 0
BBX 8 17 0 -5
BITMAP
FFFD
FFFD
FFFD
FFFD
FFFD
FFFD
FFFD
FFFD
01FD
01FD
01FD
01FD
01FD
01FD
01FD
01FD
01FD
ENDCHAR
STARTCHAR uni259D
ENCODING 9629
SWIDTH 600 0
DWIDTH 7 0
BBX 5 8 3 4
BITMAP
7F40
7F40
7F40
7F40
7F40
7F40
7F40
7F40
ENDCHAR
STARTCHAR uni259E
ENCODING 9630
SWIDTH 600 0
DWIDTH 7 0
BBX 8 17 0 -5
BITMAP
01FD
01FD
01FD
01FD
01FD
01FD
01FD
01FD
FE00
FE00
FE00
FE00
FE00
FE00
FE00
FE00
FE00
ENDCHAR
STARTCHAR uni259F
ENCODING 9631
SWIDTH 600 0
DWIDTH 7 0
BBX 8 17 0 -5
BITMAP
01FD
01FD
01FD
01FD
01FD
01FD
01FD
01FD
FFFD
FFFD
FFFD
FFFD
FFFD
FFFD
FFFD
FFFD
FFFD
ENDCHAR
STARTCHAR uni25A0
ENCODING 9632
SWIDTH 600 0
DWIDTH 7 0
BBX 5 5 1 1
BITMAP
FFC0
FFC0
FFC0
FFC0
FFC0
ENDCHAR
STARTCHAR uni25A1
ENCODING 9633
SWIDTH 600 0
DWIDTH 7 0
BBX 6 6 1 1
BITMAP
FFD0
8050
8050
8050
8050
FFD0
ENDCHAR
STARTCHAR uni25AA
ENCODING 9642
SWIDTH 600 0
DWIDTH 7 0
BBX 4 3 2 2
BITMAP
FD
FD
FD
ENDCHAR
STARTCHAR uni25AB
ENCODING 9643
SWIDTH 600 0
DWIDTH 7 0
BBX 4 4 2 1
BITMAP
FD
45
45
FD
ENDCHAR
STARTCHAR filledrect
ENCODING 9644
SWIDTH 600 0
DWIDTH 7 0
BBX 8 1 0 3
BITMAP
FFFD
ENDCHAR
STARTCHAR triagup
ENCODING 9650
SWIDTH 600 0
DWIDTH 7 0
BBX 6 6 1 1
BITMAP
0400
0D00
2E00
3F40
BF80
FFD0
ENDCHAR
STARTCHAR uni25B3
ENCODING 9651
SWIDTH 600 0
DWIDTH 7 0
BBX 6 6 1 1
BITMAP
0400
0500
1100
1040
4040
FFD0
ENDCHAR
STARTCHAR uni25B4
ENCODING 9652
SWIDTH 600 0
DWIDTH 7 0
BBX 4 4 2 1
BITMAP
10
34
B8
FD
ENDCHAR
STARTCHAR uni25B5
ENCODING 9653
SWIDTH 600 0
DWIDTH 7 0
BBX 5 4 1 1
BITMAP
0400
1100
1100
7F80
ENDCHAR
STARTCHAR uni25B6
ENCODING 9654
SWIDTH 600 0
DWIDTH 7 0
BBX 7 6 0 1
BITMAP
6400
7E40
7FE4
7FD0
7D00
1000
ENDCHAR
STARTCHAR uni25B7
ENCODING 9655
SWIDTH 600 0
DWIDTH 7 0
BBX 7 6 0 1
BITMAP
6400
5640
5064
5190
6900
1000
ENDCHAR
STARTCHAR uni25B8
ENCODING 9656
SWIDTH 600 0
DWIDTH 7 0
BBX 3 4 2 1
BITMAP
90
F8
F8
90
ENDCHAR
STARTCHAR uni25B9
ENCODING 9657
SWIDTH 600 0
DWIDTH 7 0
BBX 3 4 2 1
BITMAP
90
58
58
90
ENDCHAR
STARTCHAR triagrt
ENCODING 9658
SWIDTH 600 0
DWIDTH 7 0
BBX 7 6 0 1
BITMAP
A000
BE40
BFF8
BFE4
BD00
5000
ENDCHAR
STARTCHAR triagdn
ENCODING 9660
SWIDTH 600 0
DWIDTH 7 0
BBX 6 6 1 1
BITMAP
FFD0
BF80
3F40
2E00
0D00
0400
ENDCHAR
STARTCHAR uni25BD
ENCODING 9661
SWIDTH 600 0
DWIDTH 7 0
BBX 6 6 1 1
BITMAP
FFD0
4040
1040
1100
0500
0400
ENDCHAR
STARTCHAR uni25BE
ENCODING 9662
SWIDTH 600 0
DWIDTH 7 0
BBX 4 4 2 1
BITMAP
FD
B8
34
10
ENDCHAR
STARTCHAR uni25BF
ENCODING 9663
SWIDTH 600 0
DWIDTH 7 0
BBX 5 4 1 1
BITMAP
7F80
1100
1100
0400
ENDCHAR
STARTCHAR uni25C0
ENCODING 9664
SWIDTH 600 0
DWIDTH 7 0
BBX 6 6 1 1
BITMAP
0090
0BD0
BFD0
6FD0
06D0
0050
ENDCHAR
STARTCHAR uni25C1
ENCODING 9665
SWIDTH 600 0
DWIDTH 7 0
BBX 6 6 1 1
BITMAP
0090
0950
9010
6410
0650
0050
ENDCHAR
STARTCHAR uni25C2
ENCODING 9666
SWIDTH 600 0
DWIDTH 7 0
BBX 4 4 2 1
BITMAP
09
7D
7D
09
ENDCHAR
STARTCHAR uni25C3
ENCODING 9667
SWIDTH 600 0
DWIDTH 7 0
BBX 4 4 2 1
BITMAP
09
55
55
09
ENDCHAR
STARTCHAR triaglf
ENCODING 9668
SWIDTH 600 0
DWIDTH 7 0
BBX 7 6 0 1
BITMAP
0018
06FC
7FFC
6FFC
01BC
0004
ENDCHAR
STARTCHAR uni25C6
ENCODING 9670
SWIDTH 600 0
DWIDTH 7 0
BBX 7 6 0 1
BITMAP
0240
0FD0
7FF4
7FF4
0FD0
0240
ENDCHAR
STARTCHAR uni25C9
ENCODING 9673
SWIDTH 600 0
DWIDTH 7 0
BBX 7 6 0 1
BITMAP
1B90
2BE4
5FD4
5FD4
2564
1B90
ENDCHAR
STARTCHAR lozenge
ENCODING 9674
SWIDTH 600 0
DWIDTH 7 0
BBX 5 8 1 0
BITMAP
0D00
2600
2240
9080
9080
2240
2600
0D00
ENDCHAR
STARTCHAR uni25CB
ENCODING 9675
SWIDTH 600 0
DWIDTH 7 0
BBX 6 6 1 1
BITMAP
2E40
9180
8050
8050
9180
2E40
ENDCHAR
STARTCHAR uni25CC
ENCODING 9676
SWIDTH 600 0
DWIDTH 7 0
BBX 7 6 0 0
BITMAP
0680
2020
0000
5014
2020
0680
ENDCHAR
STARTCHAR uni25CF
ENCODING 9679
SWIDTH 600 0
DWIDTH 7 0
BBX 6 5 1 1
BITMAP
2E40
BFC0
FFD0
BFC0
2E40
ENDCHAR
STARTCHAR invbullet
ENCODING 9688
SWIDTH 600 0
DWIDTH 7 0
BBX 4 4 2 1
BITMAP
FD
45
45
FD
ENDCHAR
STARTCHAR invcircle
ENCODING 9689
SWIDTH 600 0
DWIDTH 7 0
BBX 6 5 1 1
BITMAP
FFD0
7F90
7F80
6F50
9190
ENDCHAR
STARTCHAR uni25E6
ENCODING 9702
SWIDTH 600 0
DWIDTH 7 0
BBX 5 4 1 1
BITMAP
1E00
6140
5240
2D00
ENDCHAR
STARTCHAR uni2610
ENCODING 9744
SWIDTH 600 0
DWIDTH 7 0
BBX 9 8 -1 0
BITMAP
3FFF80
500180
500180
500180
500180
500180
500180
7FFF40
ENDCHAR
STARTCHAR uni2611
ENCODING 9745
SWIDTH 600 0
DWIDTH 7 0
BBX 10 9 -1 0
BITMAP
000090
3FFF80
500780
551980
522180
52A180
51D180
500180
7FFF40
ENDCHAR
STARTCHAR uni2615
ENCODING 9749
SWIDTH 600 0
DWIDTH 7 0
BBX 9 8 -1 0
BITMAP
1BE000
241800
5BE500
5BE940
500180
200E40
282400
0BD000
ENDCHAR
STARTCHAR smileface
ENCODING 9786
SWIDTH 600 0
DWIDTH 7 0
BBX 7 8 0 0
BITMAP
1BD0
2464
8CC8
8008
8458
8B88
2464
1BD0
ENDCHAR
STARTCHAR invsmileface
ENCODING 9787
SWIDTH 600 0
DWIDTH 7 0
BBX 7 6 0 1
BITMAP
1BD0
7774
BB78
BBA8
7474
1BD0
ENDCHAR
STARTCHAR sun
ENCODING 9788
SWIDTH 600 0
DWIDTH 7 0
BBX 8 8 0 0
BITMAP
0200
2764
2860
2020
F02D
2860
2BA0
0214
ENDCHAR
STARTCHAR female
ENCODING 9792
SWIDTH 600 0
DWIDTH 7 0
BBX 7 10 0 -1
BITMAP
0B90
2460
2014
6014
2470
0BD0
0200
1FE0
0200
0100
ENDCHAR
STARTCHAR male
ENCODING 9794
SWIDTH 600 0
DWIDTH 7 0
BBX 8 8 0 0
BITMAP
00AD
0029
2F95
9190
8060
8060
9190
2F40
ENDCHAR
STARTCHAR spade
ENCODING 9824
SWIDTH 600 0
DWIDTH 7 0
BBX 7 9 0 0
BITMAP
0240
0BC0
2FF0
7FF8
BFFC
BFFC
6764
0B80
2FF0
ENDCHAR
STARTCHAR club
ENCODING 9827
SWIDTH 600 0
DWIDTH 7 0
BBX 7 9 0 0
BITMAP
0B80
0FD0
0FC0
6BE4
BFFC
BFFC
2764
0B80
2FF0
ENDCHAR
STARTCHAR heart
ENCODING 9829
SWIDTH 600 0
DWIDTH 7 0
BBX 7 9 0 0
BITMAP
78B4
BFFC
FFFC
BFFC
7FF8
3FF4
1FE0
0BC0
0200
ENDCHAR
STARTCHAR diamond
ENCODING 9830
SWIDTH 600 0
DWIDTH 7 0
BBX 7 9 0 0
BITMAP
0200
0B80
1FE0
7FF4
BFFC
7FF4
1FE0
0B80
0200
ENDCHAR
STARTCHAR musicalnote
ENCODING 9834
SWIDTH 600 0
DWIDTH 7 0
BBX 6 8 1 0
BITMAP
0600
0780
05C0
0550
0540
0500
BC00
B800
ENDCHAR
STARTCHAR musicalnotedbl
ENCODING 9835
SWIDTH 600 0
DWIDTH 7 0
BBX 7 9 0 0
BITMAP
0168
07FC
0508
0508
0508
0508
05BC
7CF8
B800
ENDCHAR
STARTCHAR uni2713
ENCODING 10003
SWIDTH 600 0
DWIDTH 7 0
BBX 7 9 0 0
BITMAP
0004
0018
0020
0090
0180
8200
6600
2800
1C00
ENDCHAR
STARTCHAR uni2752
ENCODING 10066
SWIDTH 600 0
DWIDTH 7 0
BBX 6 6 1 1
BITMAP
FFD0
4050
4050
4050
4050
FFC0
ENDCHAR
STARTCHAR uni2764
ENCODING 10084
SWIDTH 600 0
DWIDTH 7 0
BBX 9 8 -1 0
BITMAP
2E2E40
BFBFC0
BFFFC0
BFFFC0
7FFF40
1FFD00
02F400
008000
ENDCHAR
STARTCHAR uni27E6
ENCODING 10214
SWIDTH 600 0
DWIDTH 7 0
BBX 6 11 1 -2
BITMAP
0FE0
0A00
1500
2500
2800
2800
2800
5400
5400
A000
BF00
ENDCHAR
STARTCHAR uni27E7
ENCODING 10215
SWIDTH 600 0
DWIDTH 7 0
BBX 6 11 0 -2
BITMAP
0BF0
00A0
0060
0150
0240
0280
0280
0580
0540
0940
BF00
ENDCHAR
STARTCHAR uni2E18
ENCODING 11800
SWIDTH 600 0
DWIDTH 7 0
BBX 4 8 1 -2
BITMAP
07
07
00
09
1C
88
C2
BD
ENDCHAR
STARTCHAR uni2E22
ENCODING 11810
SWIDTH 600 0
DWIDTH 7 0
BBX 5 6 2 3
BITMAP
2F80
2000
2000
2000
6000
5000
ENDCHAR
STARTCHAR uni2E23
ENCODING 11811
SWIDTH 600 0
DWIDTH 7 0
BBX 4 6 2 3
BITMAP
BD
05
08
08
08
04
ENDCHAR
STARTCHAR uni2E24
ENCODING 11812
SWIDTH 600 0
DWIDTH 7 0
BBX 4 6 1 -2
BITMAP
10
20
20
20
50
7F
ENDCHAR
STARTCHAR uni2E25
ENCODING 11813
SWIDTH 600 0
DWIDTH 7 0
BBX 5 6 0 -2
BITMAP
0140
0140
0200
0200
0200
BE00
ENDCHAR
STARTCHAR uniE0A0
ENCODING 57504
SWIDTH 600 0
DWIDTH 7 0
BBX 6 16 1 -3
BITMAP
8000
8000
81C0
83E0
80C0
80C0
80C0
80C0
4280
0A00
3400
9000
9000
8000
8000
8000
ENDCHAR
STARTCHAR uniE0A1
ENCODING 57505
SWIDTH 600 0
DWIDTH 7 0
BBX 6 13 1 -2
BITMAP
C000
C000
C000
C000
C000
FE00
0000
2890
2890
2590
2690
2590
24D0
ENDCHAR
STARTCHAR uniE0A2
ENCODING 57506
SWIDTH 600 0
DWIDTH 7 0
BBX 7 11 0 -1
BITMAP
0B90
1860
1420
7FF8
7FF8
78B8
7878
7DF8
7CF8
7CF8
7FF8
ENDCHAR
STARTCHAR uniE0B0
ENCODING 57520
SWIDTH 600 0
DWIDTH 7 0
BBX 7 16 0 -3
BITMAP
4000
D000
F400
FD00
FF00
FFC0
FFE0
FFF8
FFF8
FFE0
FFC0
FF00
FD00
F400
D000
4000
ENDCHAR
STARTCHAR uniE0B1
ENCODING 57521
SWIDTH 600 0
DWIDTH 7 0
BBX 7 15 0 -3
BITMAP
8000
6000
1800
0600
0180
0090
0024
000C
0024
0090
0180
0600
1800
6000
8000
ENDCHAR
STARTCHAR uniE0B2
ENCODING 57522
SWIDTH 600 0
DWIDTH 7 0
BBX 8 16 0 -3
BITMAP
0005
000D
003D
00BD
02FD
0BFD
2FFD
BFFD
BFFD
2FFD
0BFD
02FD
00BD
003D
000D
0005
ENDCHAR
STARTCHAR uniE0B3
ENCODING 57523
SWIDTH 600 0
DWIDTH 7 0
BBX 7 15 0 -3
BITMAP
0008
0024
0090
0180
0600
1800
6000
C000
6000
1800
0600
0180
0090
0024
0008
ENDCHAR
STARTCHAR f_i
ENCODING 64257
SWIDTH 600 0
DWIDTH 7 0
BBX 6 9 1 0
BITMAP
1F00
2460
3000
BC90
60C0
5080
9180
C140
C240
ENDCHAR
STARTCHAR f_l
ENCODING 64258
SWIDTH 600 0
DWIDTH 7 0
BBX 6 9 1 0
BITMAP
1F60
2450
3090
BCC0
60C0
5180
9140
C240
C280
ENDCHAR
STARTCHAR uniFE0E
ENCODING 65038
SWIDTH 600 0
DWIDTH 7 0
BBX 7 8 0 0
BITMAP
6AA8
8008
4004
68A8
0880
0440
0880
0A80
ENDCHAR
STARTCHAR uniFE0F
ENCODING 65039
SWIDTH 600 0
DWIDTH 7 0
BBX 7 8 0 0
BITMAP
0540
1450
1554
8998
9458
5548
1450
0540
ENDCHAR
STARTCHAR uniFEFF
ENCODING 65279
SWIDTH 600 0
DWIDTH 7 0
BBX 1 1 0 0
BITMAP
00
ENDCHAR
STARTCHAR u1F3B5
ENCODING 127925
SWIDTH 600 0
DWIDTH 7 0
BBX 6 8 1 0
BITMAP
0600
06C0
0550
0550
0500
0500
BC00
B800
ENDCHAR
STARTCHAR u1F3B6
ENCODING 127926
SWIDTH 600 0
DWIDTH 7 0
BBX 7 9 0 0
BITMAP
0168
07FC
0508
0508
0508
0508
05BC
7CF8
B800
ENDCHAR
STARTCHAR u1F4A9
ENCODING 128169
SWIDTH 600 0
DWIDTH 7 0
BBX 7 8 0 0
BITMAP
0B80
1FD0
2FF4
7AA8
7FF8
F02C
F47C
6FF4
ENDCHAR
STARTCHAR u1F512
ENCODING 128274
SWIDTH 600 0
DWIDTH 7 0
BBX 7 11 0 -1
BITMAP
0B90
1860
1420
7FF8
7FF8
78B8
7878
7DF8
7CF8
7CF8
7FF8
ENDCHAR
STARTCHAR u1F916
ENCODING 129302
SWIDTH 600 0
DWIDTH 7 0
BBX 9 8 -1 0
BITMAP
06F400
190900
26F600
6AAA40
67FA40
208200
090900
06F400
ENDCHAR
STARTCHAR .notdef
ENCODING -1
SWIDTH 600 0
DWIDTH 7 0
BBX 7 8 0 0
BITMAP
7FF4
6464
6894
6354
6654
6894
7424
7FF4
ENDCHAR
STARTCHAR uni00470303
ENCODING -1
SWIDTH 600 0
DWIDTH 7 0
BBX 7 10 0 0
BITMAP
02D8
0238
02F4
0D14
2400
3000
60F4
6024
3430
1BD0
ENDCHAR
STARTCHAR uni004C00B7004C
ENCODING -1
SWIDTH 600 0
DWIDTH 7 0
BBX 7 8 0 0
BITMAP
2430
2020
3060
2B50
6A90
90C0
8080
FDF8
ENDCHAR
STARTCHAR uni01320301
ENCODING -1
SWIDTH 600 0
DWIDTH 7 0
BBX 8 12 0 -2
BITMAP
0242
0909
0C18
1814
1824
2430
2030
3060
6060
6090
00C0
0780
ENDCHAR
STARTCHAR uni00670303
ENCODING -1
SWIDTH 600 0
DWIDTH 7 0
BBX 7 11 0 -2
BITMAP
0288
0574
0000
0BE8
2834
2020
6030
3AE0
1550
51C0
7E40
ENDCHAR
STARTCHAR uni006C00B7006C
ENCODING -1
SWIDTH 600 0
DWIDTH 7 0
BBX 7 9 0 0
BITMAP
F5F4
2420
2020
2060
2B50
5A80
9080
90C0
78B8
ENDCHAR
STARTCHAR uni01330301
ENCODING -1
SWIDTH 600 0
DWIDTH 7 0
BBX 7 11 1 -2
BITMAP
0924
2490
0000
20C0
6180
9140
9240
C300
8300
0600
2C00
ENDCHAR
STARTCHAR uni014A.a
ENCODING -1
SWIDTH 600 0
DWIDTH 7 0
BBX 7 10 0 -2
BITMAP
1C0C
1918
2618
2224
3260
61B0
50A0
90A0
0090
0380
ENDCHAR
STARTCHAR a.a
ENCODING -1
SWIDTH 600 0
DWIDTH 7 0
BBX 6 6 0 0
BITMAP
0BE0
1420
0AF0
3530
61A0
2E60
ENDCHAR
STARTCHAR agrave.a
ENCODING -1
SWIDTH 600 0
DWIDTH 7 0
BBX 6 10 0 0
BITMAP
0240
0180
0080
0000
0BE0
1420
0AF0
3530
61A0
2E60
ENDCHAR
STARTCHAR aacute.a
ENCODING -1
SWIDTH 600 0
DWIDTH 7 0
BBX 6 9 0 0
BITMAP
0060
0180
0000
0BE0
1420
0AF0
3530
61A0
2E60
ENDCHAR
STARTCHAR acircumflex.a
ENCODING -1
SWIDTH 600 0
DWIDTH 7 0
BBX 6 9 0 0
BITMAP
01D0
0520
0000
0BE0
1420
0AF0
3530
61A0
2E60
ENDCHAR
STARTCHAR atilde.a
ENCODING -1
SWIDTH 600 0
DWIDTH 7 0
BBX 7 9 0 0
BITMAP
0298
0474
0000
0BE0
1420
0AF0
3530
61A0
2E60
ENDCHAR
STARTCHAR adieresis.a
ENCODING -1
SWIDTH 600 0
DWIDTH 7 0
BBX 6 8 0 0
BITMAP
0220
0000
0BE0
1420
0AF0
3530
61A0
2E60
ENDCHAR
STARTCHAR amacron.a
ENCODING -1
SWIDTH 600 0
DWIDTH 7 0
BBX 6 8 0 0
BITMAP
03F0
0000
0BE0
1420
0AF0
3530
61A0
2E60
ENDCHAR
STARTCHAR abreve.a
ENCODING -1
SWIDTH 600 0
DWIDTH 7 0
BBX 7 9 0 0
BITMAP
0624
02E0
0000
0BE0
1420
0AF0
3530
61A0
2E60
ENDCHAR
STARTCHAR aring.a
ENCODING -1
SWIDTH 600 0
DWIDTH 7 0
BBX 6 9 0 0
BITMAP
01D0
0260
02D0
0BE0
1420
0AF0
3530
61A0
2E60
ENDCHAR
STARTCHAR aringacute.a
ENCODING -1
SWIDTH 600 0
DWIDTH 7 0
BBX 6 10 0 0
BITMAP
0060
01D0
0260
02D0
0BE0
1420
0AF0
3530
61A0
2E60
ENDCHAR
STARTCHAR uni01CE.a
ENCODING -1
SWIDTH 600 0
DWIDTH 7 0
BBX 7 9 0 0
BITMAP
0224
01D0
0000
0BE0
1420
0AF0
3530
61A0
2E60
ENDCHAR
STARTCHAR uni1EA1.a
ENCODING -1
SWIDTH 600 0
DWIDTH 7 0
BBX 6 9 0 -3
BITMAP
0BE0
1420
0AF0
3530
61A0
2E60
0000
0000
0900
ENDCHAR
STARTCHAR uni1EA3.a
ENCODING -1
SWIDTH 600 0
DWIDTH 7 0
BBX 6 10 0 0
BITMAP
00D0
0090
0080
0000
0BE0
1420
0AF0
3530
61A0
2E60
ENDCHAR
STARTCHAR uni1EA5.a
ENCODING -1
SWIDTH 600 0
DWIDTH 7 0
BBX 8 10 0 0
BITMAP
0009
01D4
0220
0000
0BE0
1420
0AF0
3530
61A0
2E60
ENDCHAR
STARTCHAR uni1EA7.a
ENCODING -1
SWIDTH 600 0
DWIDTH 7 0
BBX 6 10 0 0
BITMAP
0800
09D0
0220
0000
0BE0
1420
0AF0
3530
61A0
2E60
ENDCHAR
STARTCHAR uni1EA9.a
ENCODING -1
SWIDTH 600 0
DWIDTH 7 0
BBX 7 10 0 0
BITMAP
0018
01D8
0228
0000
0BE0
1420
0AF0
3530
61A0
2E60
ENDCHAR
STARTCHAR uni1EAB.a
ENCODING -1
SWIDTH 600 0
DWIDTH 7 0
BBX 7 10 0 0
BITMAP
0194
0270
0190
0000
0BE0
1420
0AF0
3530
61A0
2E60
ENDCHAR
STARTCHAR uni1EAD.a
ENCODING -1
SWIDTH 600 0
DWIDTH 7 0
BBX 6 12 0 -3
BITMAP
01D0
0520
0000
0BE0
1420
0AF0
3530
61A0
2E60
0000
0000
0900
ENDCHAR
STARTCHAR uni1EAF.a
ENCODING -1
SWIDTH 600 0
DWIDTH 7 0
BBX 7 11 0 0
BITMAP
0020
0090
0624
02E0
0000
0BE0
1420
0AF0
3530
61A0
2E60
ENDCHAR
STARTCHAR uni1EB1.a
ENCODING -1
SWIDTH 600 0
DWIDTH 7 0
BBX 7 11 0 0
BITMAP
0140
0080
0624
02E0
0000
0BE0
1420
0AF0
3530
61A0
2E60
ENDCHAR
STARTCHAR uni1EB3.a
ENCODING -1
SWIDTH 600 0
DWIDTH 7 0
BBX 7 12 0 0
BITMAP
0090
0060
0090
0624
02E0
0000
0BE0
1420
0AF0
3530
61A0
2E60
ENDCHAR
STARTCHAR uni1EB5.a
ENCODING -1
SWIDTH 600 0
DWIDTH 7 0
BBX 7 10 0 0
BITMAP
0294
07B4
02D0
0000
0BE0
1420
0AF0
3530
61A0
2E60
ENDCHAR
STARTCHAR uni1EB7.a
ENCODING -1
SWIDTH 600 0
DWIDTH 7 0
BBX 7 12 0 -3
BITMAP
0624
02E0
0000
0BE0
1420
0AF0
3530
61A0
2E60
0000
0000
0900
ENDCHAR
STARTCHAR aogonek.a
ENCODING -1
SWIDTH 600 0
DWIDTH 7 0
BBX 6 9 0 -3
BITMAP
0BE0
1420
0AF0
3530
61A0
2E60
0040
0200
02D0
ENDCHAR
STARTCHAR g.a
ENCODING -1
SWIDTH 600 0
DWIDTH 7 0
BBX 7 8 0 -2
BITMAP
0BF8
2860
2460
1F80
2000
2F90
80A0
BF80
ENDCHAR
STARTCHAR uni01F5.a
ENCODING -1
SWIDTH 600 0
DWIDTH 7 0
BBX 7 11 0 -2
BITMAP
0060
0180
0000
0BF8
2860
2460
1F80
2000
2F90
80A0
BF80
ENDCHAR
STARTCHAR gcircumflex.a
ENCODING -1
SWIDTH 600 0
DWIDTH 7 0
BBX 7 11 0 -2
BITMAP
01D0
0520
0000
0BF8
2860
2460
1F80
2000
2F90
80A0
BF80
ENDCHAR
STARTCHAR gbreve.a
ENCODING -1
SWIDTH 600 0
DWIDTH 7 0
BBX 7 11 0 -2
BITMAP
0624
02E0
0000
0BF8
2860
2460
1F80
2000
2F90
80A0
BF80
ENDCHAR
STARTCHAR gdotaccent.a
ENCODING -1
SWIDTH 600 0
DWIDTH 7 0
BBX 7 10 0 -2
BITMAP
00C0
0000
0BF8
2860
2460
1F80
2000
2F90
80A0
BF80
ENDCHAR
STARTCHAR uni0123.a
ENCODING -1
SWIDTH 600 0
DWIDTH 7 0
BBX 7 11 0 -2
BITMAP
0090
0180
0040
0BF8
2860
2460
1F80
2000
2F90
80A0
BF80
ENDCHAR
STARTCHAR gcaron.a
ENCODING -1
SWIDTH 600 0
DWIDTH 7 0
BBX 7 11 0 -2
BITMAP
0224
01D0
0000
0BF8
2860
2460
1F80
2000
2F90
80A0
BF80
ENDCHAR
STARTCHAR uni1E21.a
ENCODING -1
SWIDTH 600 0
DWIDTH 7 0
BBX 7 10 0 -2
BITMAP
03F0
0000
0BF8
2860
2460
1F80
2000
2F90
80A0
BF80
ENDCHAR
STARTCHAR uni00670303.a
ENCODING -1
SWIDTH 600 0
DWIDTH 7 0
BBX 7 11 0 -2
BITMAP
0298
0474
0000
0BF8
2860
2460
1F80
2000
2F90
80A0
BF80
ENDCHAR
STARTCHAR iogonek.d
ENCODING -1
SWIDTH 600 0
DWIDTH 7 0
BBX 5 9 1 -3
BITMAP
BD00
0800
0800
1800
1800
0F40
0500
0800
0B00
ENDCHAR
STARTCHAR uni0268.d
ENCODING -1
SWIDTH 600 0
DWIDTH 7 0
BBX 5 6 1 0
BITMAP
BD00
0800
FF80
1800
1800
0F40
ENDCHAR
STARTCHAR uni029D.d
ENCODING -1
SWIDTH 600 0
DWIDTH 7 0
BBX 6 9 0 -3
BITMAP
1FD0
0080
0080
0180
0240
7B00
CB00
BA40
0140
ENDCHAR
STARTCHAR zero.a
ENCODING -1
SWIDTH 600 0
DWIDTH 7 0
BBX 7 8 0 0
BITMAP
07D0
1C24
2414
2214
6164
60A0
34A0
1F80
ENDCHAR
STARTCHAR one.a
ENCODING -1
SWIDTH 600 0
DWIDTH 7 0
BBX 6 8 0 0
BITMAP
0180
07C0
0580
0140
0240
0300
0300
7FE0
ENDCHAR
STARTCHAR zero.onum
ENCODING -1
SWIDTH 600 0
DWIDTH 7 0
BBX 7 7 0 0
BITMAP
0BD0
2834
3324
6324
6020
30A0
1F80
ENDCHAR
STARTCHAR one.onum
ENCODING -1
SWIDTH 600 0
DWIDTH 7 0
BBX 6 7 0 0
BITMAP
06C0
0180
0140
0240
0300
0300
7FE0
ENDCHAR
STARTCHAR two.onum
ENCODING -1
SWIDTH 600 0
DWIDTH 7 0
BBX 6 7 0 0
BITMAP
0BD0
2460
0060
0080
0200
1800
BFE0
ENDCHAR
STARTCHAR three.onum
ENCODING -1
SWIDTH 600 0
DWIDTH 7 0
BBX 6 8 0 -1
BITMAP
0BD0
1470
0060
0B80
0590
0060
9090
2F80
ENDCHAR
STARTCHAR four.onum
ENCODING -1
SWIDTH 600 0
DWIDTH 7 0
BBX 6 8 0 -1
BITMAP
0070
01A0
0650
1890
2080
FFF0
0080
0180
ENDCHAR
STARTCHAR five.onum
ENCODING -1
SWIDTH 600 0
DWIDTH 7 0
BBX 7 8 0 -1
BITMAP
0FF4
1800
1400
2BD0
0060
0020
9090
2F80
ENDCHAR
STARTCHAR six.onum
ENCODING -1
SWIDTH 600 0
DWIDTH 7 0
BBX 7 8 0 0
BITMAP
06E0
1D14
2400
37D0
7470
2020
3460
1B80
ENDCHAR
STARTCHAR seven.onum
ENCODING -1
SWIDTH 600 0
DWIDTH 7 0
BBX 6 8 1 -1
BITMAP
BFE0
0080
0240
0500
0C00
1400
3000
3000
ENDCHAR
STARTCHAR eight.onum
ENCODING -1
SWIDTH 600 0
DWIDTH 7 0
BBX 7 8 0 0
BITMAP
07E0
0C24
0824
1EB0
3590
6020
3060
1F90
ENDCHAR
STARTCHAR nine.onum
ENCODING -1
SWIDTH 600 0
DWIDTH 7 0
BBX 7 8 0 -1
BITMAP
0BD0
2830
2024
3474
1FB0
0060
51D0
2E40
ENDCHAR
STARTCHAR zero.b
ENCODING -1
SWIDTH 600 0
DWIDTH 7 0
BBX 7 7 0 0
BITMAP
0BD0
2834
2524
6224
6060
34A0
1F80
ENDCHAR
STARTCHAR one.b
ENCODING -1
SWIDTH 600 0
DWIDTH 7 0
BBX 6 7 0 0
BITMAP
02C0
0A80
0140
0240
0300
0300
7FE0
ENDCHAR
STARTCHAR zero.cap
ENCODING -1
SWIDTH 600 0
DWIDTH 7 0
BBX 7 8 0 0
BITMAP
07E0
1924
2414
2254
6324
6030
34A0
1F80
ENDCHAR
STARTCHAR one.cap
ENCODING -1
SWIDTH 600 0
DWIDTH 7 0
BBX 6 15 0 0
BITMAP
06C0
00C0
0080
0140
0140
0100
0100
02E0
02E0
02E0
03E0
03E0
03E0
03E0
7FA0
ENDCHAR
STARTCHAR two.cap
ENCODING -1
SWIDTH 600 0
DWIDTH 7 0
BBX 6 8 0 0
BITMAP
07D0
1870
0030
0060
0180
0600
2800
7FF0
ENDCHAR
STARTCHAR three.cap
ENCODING -1
SWIDTH 600 0
DWIDTH 7 0
BBX 7 8 0 0
BITMAP
07E0
0434
0070
0780
00A0
0060
60A0
2F80
ENDCHAR
STARTCHAR four.cap
ENCODING -1
SWIDTH 600 0
DWIDTH 7 0
BBX 7 8 0 0
BITMAP
0070
01B0
0660
0860
2050
BFF4
0080
0080
ENDCHAR
STARTCHAR five.cap
ENCODING -1
SWIDTH 600 0
DWIDTH 7 0
BBX 7 8 0 0
BITMAP
0BF4
0800
1800
2FD0
0070
0030
50A0
2F80
ENDCHAR
STARTCHAR six.cap
ENCODING -1
SWIDTH 600 0
DWIDTH 7 0
BBX 7 8 0 0
BITMAP
06E0
1D14
2400
37D0
7470
6020
3460
1F80
ENDCHAR
STARTCHAR seven.cap
ENCODING -1
SWIDTH 600 0
DWIDTH 7 0
BBX 6 8 1 0
BITMAP
BFF0
0090
0240
0600
0C00
1800
2400
3000
ENDCHAR
STARTCHAR eight.cap
ENCODING -1
SWIDTH 600 0
DWIDTH 7 0
BBX 7 8 0 0
BITMAP
07E0
0C24
0924
1FD0
3590
6030
3060
1F80
ENDCHAR
STARTCHAR nine.cap
ENCODING -1
SWIDTH 600 0
DWIDTH 7 0
BBX 7 8 0 0
BITMAP
0BD0
1824
2014
2474
1FA4
0030
5190
2E40
ENDCHAR
STARTCHAR zero.c
ENCODING -1
SWIDTH 600 0
DWIDTH 7 0
BBX 7 8 0 0
BITMAP
07E0
1824
2814
2214
6164
60A0
34A0
1F80
ENDCHAR
STARTCHAR one.c
ENCODING -1
SWIDTH 600 0
DWIDTH 7 0
BBX 6 8 0 0
BITMAP
01C0
06C0
0580
0140
0240
0300
0300
7FE0
ENDCHAR
STARTCHAR at.case
ENCODING -1
SWIDTH 600 0
DWIDTH 7 0
BBX 7 8 0 0
BITMAP
06F4
1D08
20BC
5258
5624
53E4
2450
1F80
ENDCHAR
STARTCHAR asterisk.a
ENCODING -1
SWIDTH 600 0
DWIDTH 7 0
BBX 5 5 2 4
BITMAP
0800
9940
7D00
7C00
8900
ENDCHAR
STARTCHAR hyphen.a
ENCODING -1
SWIDTH 600 0
DWIDTH 7 0
BBX 5 1 1 3
BITMAP
BF40
ENDCHAR
STARTCHAR uni00AD.a
ENCODING -1
SWIDTH 600 0
DWIDTH 7 0
BBX 5 1 1 3
BITMAP
BF40
ENDCHAR
STARTCHAR uni2010.a
ENCODING -1
SWIDTH 600 0
DWIDTH 7 0
BBX 5 1 1 3
BITMAP
BF40
ENDCHAR
STARTCHAR dollar.a
ENCODING -1
SWIDTH 600 0
DWIDTH 7 0
BBX 5 12 1 -2
BITMAP
0080
0080
2F40
62C0
2200
0900
0900
5580
E180
3E40
1000
4000
ENDCHAR
STARTCHAR period.sups
ENCODING -1
SWIDTH 600 0
DWIDTH 7 0
BBX 1 1 3 5
BITMAP
80
ENDCHAR
STARTCHAR comma.sups
ENCODING -1
SWIDTH 600 0
DWIDTH 7 0
BBX 2 3 3 3
BITMAP
90
90
80
ENDCHAR
STARTCHAR period.subs
ENCODING -1
SWIDTH 600 0
DWIDTH 7 0
BBX 2 1 2 -2
BITMAP
90
ENDCHAR
STARTCHAR comma.subs
ENCODING -1
SWIDTH 600 0
DWIDTH 7 0
BBX 2 3 2 -4
BITMAP
90
90
80
ENDCHAR
STARTCHAR zero.dnom
ENCODING -1
SWIDTH 600 0
DWIDTH 7 0
BBX 4 4 1 0
BITMAP
2E
62
56
7D
ENDCHAR
STARTCHAR one.dnom
ENCODING -1
SWIDTH 600 0
DWIDTH 7 0
BBX 2 4 2 0
BITMAP
70
20
20
60
ENDCHAR
STARTCHAR two.dnom
ENCODING -1
SWIDTH 600 0
DWIDTH 7 0
BBX 4 4 1 0
BITMAP
1D
15
14
7E
ENDCHAR
STARTCHAR three.dnom
ENCODING -1
SWIDTH 600 0
DWIDTH 7 0
BBX 3 4 2 0
BITMAP
74
58
74
B4
ENDCHAR
STARTCHAR four.dnom
ENCODING -1
SWIDTH 600 0
DWIDTH 7 0
BBX 4 4 1 0
BITMAP
04
25
7E
08
ENDCHAR
STARTCHAR five.dnom
ENCODING -1
SWIDTH 600 0
DWIDTH 7 0
BBX 4 4 1 0
BITMAP
2E
2D
56
3D
ENDCHAR
STARTCHAR six.dnom
ENCODING -1
SWIDTH 600 0
DWIDTH 7 0
BBX 4 4 1 0
BITMAP
1E
3E
66
2D
ENDCHAR
STARTCHAR seven.dnom
ENCODING -1
SWIDTH 600 0
DWIDTH 7 0
BBX 3 4 2 0
BITMAP
FC
14
20
50
ENDCHAR
STARTCHAR eight.dnom
ENCODING -1
SWIDTH 600 0
DWIDTH 7 0
BBX 4 4 1 0
BITMAP
1E
26
2D
7D
ENDCHAR
STARTCHAR nine.dnom
ENCODING -1
SWIDTH 600 0
DWIDTH 7 0
BBX 4 4 1 0
BITMAP
2D
26
3E
78
ENDCHAR
STARTCHAR parenleft.dnom
ENCODING -1
SWIDTH 600 0
DWIDTH 7 0
BBX 3 6 2 -1
BITMAP
14
20
50
90
50
20
ENDCHAR
STARTCHAR parenright.dnom
ENCODING -1
SWIDTH 600 0
DWIDTH 7 0
BBX 2 6 2 -1
BITMAP
20
20
20
20
60
80
ENDCHAR
STARTCHAR period.dnom
ENCODING -1
SWIDTH 600 0
DWIDTH 7 0
BBX 2 1 2 0
BITMAP
50
ENDCHAR
STARTCHAR comma.dnom
ENCODING -1
SWIDTH 600 0
DWIDTH 7 0
BBX 2 3 2 -2
BITMAP
60
50
80
ENDCHAR
STARTCHAR zero.numr
ENCODING -1
SWIDTH 600 0
DWIDTH 7 0
BBX 4 4 2 3
BITMAP
2D
92
85
78
ENDCHAR
STARTCHAR one.numr
ENCODING -1
SWIDTH 600 0
DWIDTH 7 0
BBX 2 4 3 3
BITMAP
A0
20
50
50
ENDCHAR
STARTCHAR two.numr
ENCODING -1
SWIDTH 600 0
DWIDTH 7 0
BBX 4 4 2 3
BITMAP
2C
18
14
BD
ENDCHAR
STARTCHAR three.numr
ENCODING -1
SWIDTH 600 0
DWIDTH 7 0
BBX 4 4 2 3
BITMAP
2D
15
6C
7C
ENDCHAR
STARTCHAR four.numr
ENCODING -1
SWIDTH 600 0
DWIDTH 7 0
BBX 4 4 2 3
BITMAP
14
58
BD
08
ENDCHAR
STARTCHAR five.numr
ENCODING -1
SWIDTH 600 0
DWIDTH 7 0
BBX 4 4 2 3
BITMAP
3D
3C
59
78
ENDCHAR
STARTCHAR six.numr
ENCODING -1
SWIDTH 600 0
DWIDTH 7 0
BBX 4 4 2 3
BITMAP
2D
7D
95
78
ENDCHAR
STARTCHAR seven.numr
ENCODING -1
SWIDTH 600 0
DWIDTH 7 0
BBX 3 4 3 3
BITMAP
F8
20
50
80
ENDCHAR
STARTCHAR eight.numr
ENCODING -1
SWIDTH 600 0
DWIDTH 7 0
BBX 4 4 2 3
BITMAP
2D
25
3C
7C
ENDCHAR
STARTCHAR nine.numr
ENCODING -1
SWIDTH 600 0
DWIDTH 7 0
BBX 4 4 2 3
BITMAP
2C
55
7D
78
ENDCHAR
STARTCHAR parenleft.numr
ENCODING -1
SWIDTH 600 0
DWIDTH 7 0
BBX 3 6 3 2
BITMAP
14
60
80
80
80
50
ENDCHAR
STARTCHAR parenright.numr
ENCODING -1
SWIDTH 600 0
DWIDTH 7 0
BBX 3 6 2 2
BITMAP
14
08
08
08
24
50
ENDCHAR
STARTCHAR period.numr
ENCODING -1
SWIDTH 600 0
DWIDTH 7 0
BBX 1 1 3 3
BITMAP
80
ENDCHAR
STARTCHAR comma.numr
ENCODING -1
SWIDTH 600 0
DWIDTH 7 0
BBX 3 3 2 1
BITMAP
24
24
60
ENDCHAR
STARTCHAR ordfeminine.a
ENCODING -1
SWIDTH 600 0
DWIDTH 7 0
BBX 4 5 2 4
BITMAP
2E
12
16
86
B9
ENDCHAR
STARTCHAR q.sups
ENCODING -1
SWIDTH 600 0
DWIDTH 7 0
BBX 4 6 2 3
BITMAP
2E
92
82
86
79
09
ENDCHAR
STARTCHAR egrave.sups
ENCODING -1
SWIDTH 600 0
DWIDTH 7 0
BBX 4 7 2 4
BITMAP
08
04
2E
62
BF
91
7D
ENDCHAR
STARTCHAR eacute.sups
ENCODING -1
SWIDTH 600 0
DWIDTH 7 0
BBX 4 7 2 4
BITMAP
02
04
2E
62
BF
91
7D
ENDCHAR
STARTCHAR a.supa
ENCODING -1
SWIDTH 600 0
DWIDTH 7 0
BBX 4 5 2 4
BITMAP
2E
12
16
86
B9
ENDCHAR
STARTCHAR g.supa
ENCODING -1
SWIDTH 600 0
DWIDTH 7 0
BBX 5 6 2 3
BITMAP
2F40
6600
7D00
8000
BE00
FD00
ENDCHAR
STARTCHAR colon.sups
ENCODING -1
SWIDTH 600 0
DWIDTH 7 0
BBX 2 4 3 5
BITMAP
50
00
00
80
ENDCHAR
STARTCHAR hyphen.sups
ENCODING -1
SWIDTH 600 0
DWIDTH 7 0
BBX 2 1 3 6
BITMAP
B0
ENDCHAR
STARTCHAR endash.sups
ENCODING -1
SWIDTH 600 0
DWIDTH 7 0
BBX 4 1 2 6
BITMAP
7E
ENDCHAR
STARTCHAR emdash.sups
ENCODING -1
SWIDTH 600 0
DWIDTH 7 0
BBX 6 1 1 6
BITMAP
BFF0
ENDCHAR
STARTCHAR slash.frac
ENCODING -1
SWIDTH 600 0
DWIDTH 7 0
BBX 7 7 0 0
BITMAP
0008
0024
0040
0000
1400
6000
8000
ENDCHAR
STARTCHAR uni0300.cap
ENCODING -1
SWIDTH 600 0
DWIDTH 7 0
BBX 2 2 3 8
BITMAP
50
20
ENDCHAR
STARTCHAR uni0301.cap
ENCODING -1
SWIDTH 600 0
DWIDTH 7 0
BBX 2 2 4 8
BITMAP
20
90
ENDCHAR
STARTCHAR uni0302.cap
ENCODING -1
SWIDTH 600 0
DWIDTH 7 0
BBX 4 2 3 8
BITMAP
68
85
ENDCHAR
STARTCHAR uni0303.cap
ENCODING -1
SWIDTH 600 0
DWIDTH 7 0
BBX 5 2 2 8
BITMAP
3C80
5740
ENDCHAR
STARTCHAR uni0304.cap
ENCODING -1
SWIDTH 600 0
DWIDTH 7 0
BBX 4 1 3 9
BITMAP
FD
ENDCHAR
STARTCHAR uni0305.cap
ENCODING -1
SWIDTH 600 0
DWIDTH 7 0
BBX 4 1 3 9
BITMAP
FD
ENDCHAR
STARTCHAR uni0306.c
ENCODING -1
SWIDTH 600 0
DWIDTH 7 0
BBX 3 2 3 7
BITMAP
88
B4
ENDCHAR
STARTCHAR uni0306.cap
ENCODING -1
SWIDTH 600 0
DWIDTH 7 0
BBX 4 2 3 8
BITMAP
85
B8
ENDCHAR
STARTCHAR uni0306.ccap
ENCODING -1
SWIDTH 600 0
DWIDTH 7 0
BBX 4 2 3 8
BITMAP
89
78
ENDCHAR
STARTCHAR uni0307.cap
ENCODING -1
SWIDTH 600 0
DWIDTH 7 0
BBX 2 1 4 9
BITMAP
90
ENDCHAR
STARTCHAR uni0308.cap
ENCODING -1
SWIDTH 600 0
DWIDTH 7 0
BBX 4 1 3 9
BITMAP
89
ENDCHAR
STARTCHAR uni0309.cap
ENCODING -1
SWIDTH 600 0
DWIDTH 7 0
BBX 2 3 4 8
BITMAP
D0
90
80
ENDCHAR
STARTCHAR uni0310.cap
ENCODING -1
SWIDTH 600 0
DWIDTH 7 0
BBX 4 3 3 8
BITMAP
14
85
78
ENDCHAR
STARTCHAR uni030A.cap
ENCODING -1
SWIDTH 600 0
DWIDTH 7 0
BBX 3 3 3 8
BITMAP
38
58
74
ENDCHAR
STARTCHAR uni030B.cap
ENCODING -1
SWIDTH 600 0
DWIDTH 7 0
BBX 4 2 3 8
BITMAP
22
55
ENDCHAR
STARTCHAR uni030C.cap
ENCODING -1
SWIDTH 600 0
DWIDTH 7 0
BBX 4 2 3 8
BITMAP
85
78
ENDCHAR
STARTCHAR uni030C.a
ENCODING -1
SWIDTH 600 0
DWIDTH 7 0
BBX 2 3 3 7
BITMAP
20
20
50
ENDCHAR
STARTCHAR uni030F.cap
ENCODING -1
SWIDTH 600 0
DWIDTH 7 0
BBX 4 2 2 8
BITMAP
59
22
ENDCHAR
STARTCHAR uni0311.cap
ENCODING -1
SWIDTH 600 0
DWIDTH 7 0
BBX 4 2 3 8
BITMAP
78
89
ENDCHAR
STARTCHAR uni0326.a
ENCODING -1
SWIDTH 600 0
DWIDTH 7 0
BBX 3 3 3 6
BITMAP
24
50
10
ENDCHAR
STARTCHAR uni0327.cap
ENCODING -1
SWIDTH 600 0
DWIDTH 7 0
BBX 3 4 1 -4
BITMAP
20
34
24
A0
ENDCHAR
STARTCHAR uni0328.cap
ENCODING -1
SWIDTH 600 0
DWIDTH 7 0
BBX 3 3 1 -3
BITMAP
20
50
74
ENDCHAR
STARTCHAR uni0342.cap
ENCODING -1
SWIDTH 600 0
DWIDTH 7 0
BBX 5 2 2 8
BITMAP
3C80
5740
ENDCHAR
STARTCHAR uni03080301
ENCODING -1
SWIDTH 600 0
DWIDTH 7 0
BBX 3 3 3 7
BITMAP
08
10
88
ENDCHAR
STARTCHAR uni03080301.cap
ENCODING -1
SWIDTH 600 0
DWIDTH 7 0
BBX 3 3 3 9
BITMAP
08
14
88
ENDCHAR
STARTCHAR uni03080300
ENCODING -1
SWIDTH 600 0
DWIDTH 7 0
BBX 3 3 3 7
BITMAP
10
20
88
ENDCHAR
STARTCHAR uni03080300.cap
ENCODING -1
SWIDTH 600 0
DWIDTH 7 0
BBX 3 3 3 9
BITMAP
20
20
88
ENDCHAR
STARTCHAR uni03080303
ENCODING -1
SWIDTH 600 0
DWIDTH 7 0
BBX 4 4 3 7
BITMAP
A5
5C
00
88
ENDCHAR
STARTCHAR uni03080304
ENCODING -1
SWIDTH 600 0
DWIDTH 7 0
BBX 4 3 3 7
BITMAP
BD
00
88
ENDCHAR
STARTCHAR uni03080304.cap
ENCODING -1
SWIDTH 600 0
DWIDTH 7 0
BBX 4 3 3 9
BITMAP
BD
00
88
ENDCHAR
STARTCHAR uni0308030C
ENCODING -1
SWIDTH 600 0
DWIDTH 7 0
BBX 3 3 3 7
BITMAP
64
00
88
ENDCHAR
STARTCHAR uni0308030C.cap
ENCODING -1
SWIDTH 600 0
DWIDTH 7 0
BBX 4 2 3 9
BITMAP
69
88
ENDCHAR
STARTCHAR uni03020301
ENCODING -1
SWIDTH 600 0
DWIDTH 7 0
BBX 4 3 3 7
BITMAP
02
75
88
ENDCHAR
STARTCHAR uni03020301.cap
ENCODING -1
SWIDTH 600 0
DWIDTH 7 0
BBX 4 1 3 9
BITMAP
69
ENDCHAR
STARTCHAR uni03020300
ENCODING -1
SWIDTH 600 0
DWIDTH 7 0
BBX 5 3 1 7
BITMAP
6000
2740
0880
ENDCHAR
STARTCHAR uni03020300.cap
ENCODING -1
SWIDTH 600 0
DWIDTH 7 0
BBX 4 1 2 9
BITMAP
6A
ENDCHAR
STARTCHAR uni03020309
ENCODING -1
SWIDTH 600 0
DWIDTH 7 0
BBX 4 3 3 7
BITMAP
06
76
8A
ENDCHAR
STARTCHAR uni03020309.cap
ENCODING -1
SWIDTH 600 0
DWIDTH 7 0
BBX 5 3 3 9
BITMAP
0300
0240
6A00
ENDCHAR
STARTCHAR uni03020303
ENCODING -1
SWIDTH 600 0
DWIDTH 7 0
BBX 4 3 3 7
BITMAP
A5
AC
64
ENDCHAR
STARTCHAR uni03020303.cap
ENCODING -1
SWIDTH 600 0
DWIDTH 7 0
BBX 4 3 3 9
BITMAP
76
9D
68
ENDCHAR
STARTCHAR uni03060301
ENCODING -1
SWIDTH 600 0
DWIDTH 7 0
BBX 5 4 2 7
BITMAP
0200
0900
5240
2E00
ENDCHAR
STARTCHAR uni03060301.cap
ENCODING -1
SWIDTH 600 0
DWIDTH 7 0
BBX 4 4 3 8
BITMAP
08
14
85
78
ENDCHAR
STARTCHAR uni03060300
ENCODING -1
SWIDTH 600 0
DWIDTH 7 0
BBX 5 4 2 7
BITMAP
1400
0800
5240
2E00
ENDCHAR
STARTCHAR uni03060300.cap
ENCODING -1
SWIDTH 600 0
DWIDTH 7 0
BBX 4 4 3 8
BITMAP
20
10
85
78
ENDCHAR
STARTCHAR uni03060309
ENCODING -1
SWIDTH 600 0
DWIDTH 7 0
BBX 5 5 2 7
BITMAP
0900
0600
0800
5240
2E00
ENDCHAR
STARTCHAR uni03060309.cap
ENCODING -1
SWIDTH 600 0
DWIDTH 7 0
BBX 4 5 3 8
BITMAP
24
08
14
85
78
ENDCHAR
STARTCHAR uni03060303
ENCODING -1
SWIDTH 600 0
DWIDTH 7 0
BBX 5 3 2 7
BITMAP
2940
7B00
2D00
ENDCHAR
STARTCHAR uni03060303.cap
ENCODING -1
SWIDTH 600 0
DWIDTH 7 0
BBX 4 4 3 8
BITMAP
76
9D
85
78
ENDCHAR
STARTCHAR uni03020306
ENCODING -1
SWIDTH 600 0
DWIDTH 7 0
BBX 3 3 3 7
BITMAP
98
10
A4
ENDCHAR
STARTCHAR uni03040301
ENCODING -1
SWIDTH 600 0
DWIDTH 7 0
BBX 4 4 2 7
BITMAP
02
04
00
7F
ENDCHAR
STARTCHAR uni03040301.cap
ENCODING -1
SWIDTH 600 0
DWIDTH 7 0
BBX 4 4 3 9
BITMAP
08
14
00
FD
ENDCHAR
STARTCHAR space.frac
ENCODING -1
SWIDTH 600 0
DWIDTH 7 0
BBX 1 1 0 0
BITMAP
00
ENDCHAR
STARTCHAR nbspace.frac
ENCODING -1
SWIDTH 600 0
DWIDTH 7 0
BBX 1 1 0 0
BITMAP
00
ENDCHAR
STARTCHAR u1F3B5_uniFE0F
ENCODING -1
SWIDTH 600 0
DWIDTH 7 0
BBX 6 8 1 0
BITMAP
0600
06C0
0550
0550
0500
0500
BC00
B800
ENDCHAR
STARTCHAR u1F3B6_uniFE0F
ENCODING -1
SWIDTH 600 0
DWIDTH 7 0
BBX 7 9 0 0
BITMAP
0168
07FC
0508
0508
0508
0508
05BC
7CF8
B800
ENDCHAR
STARTCHAR uni2611_uniFE0F
ENCODING -1
SWIDTH 600 0
DWIDTH 7 0
BBX 9 10 -1 0
BITMAP
000040
000080
3FFF80
500780
500980
552580
522180
51D180
504180
7FFF40
ENDCHAR
STARTCHAR uni2713_uniFE0F
ENCODING -1
SWIDTH 600 0
DWIDTH 7 0
BBX 7 9 0 0
BITMAP
0004
0018
0020
0090
0180
8200
6600
2800
1C00
ENDCHAR
STARTCHAR uni2665_uniFE0F
ENCODING -1
SWIDTH 600 0
DWIDTH 7 0
BBX 7 9 0 0
BITMAP
78B4
BFFC
FFFC
BFFC
7FF8
3FF4
1FE0
0BC0
0200
ENDCHAR
STARTCHAR uni2663_uniFE0F
ENCODING -1
SWIDTH 600 0
DWIDTH 7 0
BBX 7 9 0 0
BITMAP
0B80
0FD0
0FC0
6BE4
BFFC
BFFC
2764
0B80
2FF0
ENDCHAR
STARTCHAR uni2666_uniFE0F
ENCODING -1
SWIDTH 600 0
DWIDTH 7 0
BBX 7 9 0 0
BITMAP
0200
0B80
1FE0
7FF4
BFFC
7FF4
1FE0
0B80
0200
ENDCHAR
STARTCHAR uni2660_uniFE0F
ENCODING -1
SWIDTH 600 0
DWIDTH 7 0
BBX 7 9 0 0
BITMAP
0240
0BC0
2FF0
7FF8
BFFC
BFFC
6764
0B80
2FF0
ENDCHAR
STARTCHAR uni263A_uniFE0F
ENCODING -1
SWIDTH 600 0
DWIDTH 7 0
BBX 7 8 0 0
BITMAP
0540
1450
1554
8998
9458
5548
1450
0540
ENDCHAR
STARTCHAR uni263B_uniFE0F
ENCODING -1
SWIDTH 600 0
DWIDTH 7 0
BBX 7 6 0 1
BITMAP
1BD0
7774
BB78
BBA8
7474
1BD0
ENDCHAR
STARTCHAR uni2764_uniFE0F
ENCODING -1
SWIDTH 600 0
DWIDTH 7 0
BBX 9 8 -1 0
BITMAP
2E2E40
BFBFC0
BFFFC0
BFFFC0
7FFF40
1FFD00
02F400
008000
ENDCHAR
STARTCHAR uni2615_uniFE0F
ENCODING -1
SWIDTH 600 0
DWIDTH 7 0
BBX 9 8 -1 0
BITMAP
1BE000
241800
5BE500
5BE940
500180
200E40
282400
0BD000
ENDCHAR
STARTCHAR u1F4A9_uniFE0F
ENCODING -1
SWIDTH 600 0
DWIDTH 7 0
BBX 7 8 0 0
BITMAP
0B80
1FD0
2FF4
7AA8
7FF8
F02C
F47C
6FF4
ENDCHAR
STARTCHAR u1F916_uniFE0F
ENCODING -1
SWIDTH 600 0
DWIDTH 7 0
BBX 9 8 -1 0
BITMAP
06F400
190900
26F600
6AAA40
67FA40
208200
090900
06F400
ENDCHAR
STARTCHAR u1F512_uniFE0F
ENCODING -1
SWIDTH 600 0
DWIDTH 7 0
BBX 7 11 0 -1
BITMAP
0B80
1850
1420
1420
7FF8
78B8
7878
7DF8
7CF8
7CF8
7FF8
ENDCHAR
ENDFONT
